IntelOneMono-Italic.ufo
<glyph name="exclam" format="2">
  <advance width="614"/>
  <unicode hex="0021"/>
  <outline>
    <contour>
      <point x="283" y="242" type="line"/>
      <point x="337" y="242" type="line"/>
      <point x="527" y="710" type="line"/>
      <point x="363" y="710" type="line"/>
    </contour>
    <contour>
      <point x="264" y="114" type="curve" smooth="yes"/>
      <point x="198" y="114"/>
      <point x="170" y="77"/>
      <point x="170" y="35" type="curve" smooth="yes"/>
      <point x="170" y="4"/>
      <point x="193" y="-15"/>
      <point x="242" y="-15" type="curve" smooth="yes"/>
      <point x="308" y="-15"/>
      <point x="337" y="23"/>
      <point x="337" y="64" type="curve" smooth="yes"/>
      <point x="337" y="95"/>
      <point x="313" y="114"/>
    </contour>
  </outline>
</glyph>
<glyph name="quotedbl" format="2">
  <advance width="614"/>
  <unicode hex="0022"/>
  <outline>
    <contour>
      <point x="439" y="405" type="line"/>
      <point x="519" y="405" type="line"/>
      <point x="627" y="710" type="line"/>
      <point x="508" y="710" type="line"/>
    </contour>
    <contour>
      <point x="184" y="405" type="line"/>
      <point x="263" y="405" type="line"/>
      <point x="371" y="710" type="line"/>
      <point x="252" y="710" type="line"/>
    </contour>
  </outline>
</glyph>
<glyph name="dollar" format="2">
  <advance width="614"/>
  <unicode hex="0024"/>
  <outline>
    <contour>
      <point x="207" y="-142" type="line"/>
      <point x="254" y="1" type="line"/>
      <point x="267" y="0"/>
      <point x="280" y="0"/>
      <point x="293" y="0" type="curve" smooth="yes"/>
      <point x="437" y="0"/>
      <point x="528" y="68"/>
      <point x="528" y="185" type="curve" smooth="yes"/>
      <point x="528" y="249"/>
      <point x="511" y="296"/>
      <point x="389" y="361" type="curve"/>
      <point x="463" y="579" type="line"/>
      <point x="505" y="572"/>
      <point x="547" y="560"/>
      <point x="593" y="542" type="curve"/>
      <point x="617" y="614" type="line"/>
      <point x="572" y="629"/>
      <point x="534" y="641"/>
      <point x="494" y="647" type="curve"/>
      <point x="542" y="797" type="line"/>
      <point x="478" y="797" type="line"/>
      <point x="431" y="654" type="line"/>
      <point x="420" y="655"/>
      <point x="409" y="655"/>
      <point x="397" y="655" type="curve" smooth="yes"/>
      <point x="247" y="655"/>
      <point x="169" y="574"/>
      <point x="169" y="484" type="curve" smooth="yes"/>
      <point x="169" y="420"/>
      <point x="196" y="368"/>
      <point x="300" y="314" type="curve"/>
      <point x="221" y="79" type="line"/>
      <point x="170" y="89"/>
      <point x="117" y="110"/>
      <point x="64" y="136" type="curve"/>
      <point x="33" y="65" type="line"/>
      <point x="86" y="40"/>
      <point x="137" y="20"/>
      <point x="192" y="10" type="curve"/>
      <point x="143" y="-142" type="line"/>
    </contour>
    <contour>
      <point x="256" y="489" type="curve" smooth="yes"/>
      <point x="256" y="543"/>
      <point x="299" y="585"/>
      <point x="396" y="585" type="curve" smooth="yes"/>
      <point x="402" y="585"/>
      <point x="407" y="585"/>
      <point x="413" y="585" type="curve"/>
      <point x="344" y="381" type="line"/>
      <point x="268" y="423"/>
      <point x="256" y="457"/>
    </contour>
    <contour>
      <point x="293" y="71" type="curve" smooth="yes"/>
      <point x="286" y="71"/>
      <point x="278" y="71"/>
      <point x="271" y="72" type="curve"/>
      <point x="345" y="294" type="line"/>
      <point x="431" y="248"/>
      <point x="440" y="212"/>
      <point x="440" y="179" type="curve" smooth="yes"/>
      <point x="440" y="112"/>
      <point x="389" y="71"/>
    </contour>
  </outline>
</glyph>
<glyph name="percent" format="2">
  <advance width="614"/>
  <unicode hex="0025"/>
  <outline>
    <contour>
      <point x="227" y="318" type="curve" smooth="yes"/>
      <point x="345" y="318"/>
      <point x="416" y="440"/>
      <point x="416" y="558" type="curve" smooth="yes"/>
      <point x="416" y="629"/>
      <point x="379" y="670"/>
      <point x="300" y="670" type="curve" smooth="yes"/>
      <point x="181" y="670"/>
      <point x="110" y="548"/>
      <point x="110" y="429" type="curve" smooth="yes"/>
      <point x="110" y="358"/>
      <point x="148" y="318"/>
    </contour>
    <contour>
      <point x="436" y="377" type="line"/>
      <point x="716" y="654" type="line"/>
      <point x="717" y="660" type="line"/>
      <point x="610" y="660" type="line"/>
      <point x="396" y="377" type="line"/>
    </contour>
    <contour>
      <point x="295" y="614" type="curve" smooth="yes"/>
      <point x="336" y="614"/>
      <point x="353" y="593"/>
      <point x="353" y="555" type="curve" smooth="yes"/>
      <point x="353" y="480"/>
      <point x="308" y="373"/>
      <point x="231" y="373" type="curve" smooth="yes"/>
      <point x="191" y="373"/>
      <point x="173" y="395"/>
      <point x="173" y="433" type="curve" smooth="yes"/>
      <point x="173" y="508"/>
      <point x="218" y="614"/>
    </contour>
    <contour>
      <point x="368" y="-15" type="curve" smooth="yes"/>
      <point x="487" y="-15"/>
      <point x="558" y="107"/>
      <point x="558" y="226" type="curve" smooth="yes"/>
      <point x="558" y="297"/>
      <point x="520" y="337"/>
      <point x="442" y="337" type="curve" smooth="yes"/>
      <point x="323" y="337"/>
      <point x="252" y="215"/>
      <point x="252" y="97" type="curve" smooth="yes"/>
      <point x="252" y="26"/>
      <point x="290" y="-15"/>
    </contour>
    <contour>
      <point x="232" y="278" type="line"/>
      <point x="-47" y="1" type="line"/>
      <point x="-48" y="-5" type="line"/>
      <point x="59" y="-5" type="line"/>
      <point x="273" y="278" type="line"/>
    </contour>
    <contour>
      <point x="437" y="282" type="curve" smooth="yes"/>
      <point x="478" y="282"/>
      <point x="495" y="260"/>
      <point x="495" y="222" type="curve" smooth="yes"/>
      <point x="495" y="147"/>
      <point x="450" y="41"/>
      <point x="373" y="41" type="curve" smooth="yes"/>
      <point x="332" y="41"/>
      <point x="315" y="62"/>
      <point x="315" y="100" type="curve" smooth="yes"/>
      <point x="315" y="175"/>
      <point x="360" y="282"/>
    </contour>
  </outline>
</glyph>
<glyph name="ampersand" format="2">
  <advance width="614"/>
  <unicode hex="0026"/>
  <outline>
    <contour>
      <point x="82" y="282" type="curve" smooth="yes"/>
      <point x="41" y="241"/>
      <point x="27" y="192"/>
      <point x="27" y="128" type="curve" smooth="yes"/>
      <point x="27" y="41"/>
      <point x="79" y="-8"/>
      <point x="170" y="-8" type="curve" smooth="yes"/>
      <point x="254" y="-8"/>
      <point x="302" y="19"/>
      <point x="380" y="119" type="curve"/>
      <point x="429" y="0" type="line"/>
      <point x="519" y="0" type="line"/>
      <point x="440" y="188" type="line"/>
      <point x="590" y="396" type="line"/>
      <point x="527" y="434" type="line"/>
      <point x="407" y="257" type="line"/>
      <point x="335" y="432" type="line" smooth="yes"/>
      <point x="321" y="465"/>
      <point x="317" y="486"/>
      <point x="317" y="505" type="curve" smooth="yes"/>
      <point x="317" y="562"/>
      <point x="361" y="600"/>
      <point x="424" y="600" type="curve" smooth="yes"/>
      <point x="459" y="600"/>
      <point x="497" y="595"/>
      <point x="563" y="581" type="curve"/>
      <point x="581" y="649" type="line"/>
      <point x="505" y="665"/>
      <point x="460" y="669"/>
      <point x="421" y="669" type="curve" smooth="yes"/>
      <point x="307" y="669"/>
      <point x="232" y="599"/>
      <point x="232" y="508" type="curve" smooth="yes"/>
      <point x="232" y="476"/>
      <point x="243" y="439"/>
      <point x="263" y="390" type="curve" smooth="yes"/>
      <point x="273" y="367" type="line"/>
      <point x="155" y="335"/>
      <point x="112" y="312"/>
    </contour>
    <contour>
      <point x="113" y="140" type="curve" smooth="yes"/>
      <point x="113" y="181"/>
      <point x="121" y="216"/>
      <point x="146" y="241" type="curve" smooth="yes"/>
      <point x="168" y="263"/>
      <point x="192" y="278"/>
      <point x="296" y="310" type="curve"/>
      <point x="348" y="184" type="line"/>
      <point x="279" y="87"/>
      <point x="246" y="65"/>
      <point x="188" y="65" type="curve" smooth="yes"/>
      <point x="142" y="65"/>
      <point x="113" y="88"/>
    </contour>
  </outline>
</glyph>
<glyph name="parenleft" format="2">
  <advance width="614"/>
  <unicode hex="0028"/>
  <outline>
    <contour>
      <point x="128" y="230" type="curve" smooth="yes"/>
      <point x="128" y="90"/>
      <point x="210" y="-37"/>
      <point x="381" y="-147" type="curve"/>
      <point x="431" y="-89" type="line"/>
      <point x="275" y="14"/>
      <point x="216" y="124"/>
      <point x="216" y="230" type="curve" smooth="yes"/>
      <point x="216" y="397"/>
      <point x="323" y="575"/>
      <point x="671" y="745" type="curve"/>
      <point x="631" y="805" type="line"/>
      <point x="285" y="644"/>
      <point x="128" y="442"/>
    </contour>
  </outline>
</glyph>
<glyph name="parenright" format="2">
  <advance width="614"/>
  <unicode hex="0029"/>
  <outline>
    <contour>
      <point x="542" y="428" type="curve" smooth="yes"/>
      <point x="542" y="568"/>
      <point x="460" y="695"/>
      <point x="289" y="805" type="curve"/>
      <point x="238" y="747" type="line"/>
      <point x="394" y="644"/>
      <point x="454" y="534"/>
      <point x="454" y="428" type="curve" smooth="yes"/>
      <point x="454" y="261"/>
      <point x="347" y="83"/>
      <point x="-1" y="-87" type="curve"/>
      <point x="39" y="-147" type="line"/>
      <point x="385" y="14"/>
      <point x="542" y="216"/>
    </contour>
  </outline>
</glyph>
<glyph name="asterisk" format="2">
  <advance width="614"/>
  <unicode hex="002A"/>
  <outline>
    <contour>
      <point x="104" y="230" type="curve"/>
      <point x="166" y="160" type="line"/>
      <point x="223" y="210"/>
      <point x="277" y="293"/>
      <point x="343" y="352" type="curve"/>
      <point x="372" y="293"/>
      <point x="378" y="209"/>
      <point x="407" y="160" type="curve"/>
      <point x="503" y="223" type="line"/>
      <point x="474" y="272"/>
      <point x="411" y="316"/>
      <point x="375" y="370" type="curve"/>
      <point x="453" y="392"/>
      <point x="541" y="391"/>
      <point x="607" y="413" type="curve"/>
      <point x="593" y="511" type="line"/>
      <point x="528" y="490"/>
      <point x="450" y="432"/>
      <point x="374" y="405" type="curve"/>
      <point x="397" y="480"/>
      <point x="453" y="564"/>
      <point x="472" y="630" type="curve"/>
      <point x="368" y="630" type="line"/>
      <point x="349" y="564"/>
      <point x="358" y="481"/>
      <point x="339" y="405" type="curve"/>
      <point x="277" y="432"/>
      <point x="227" y="491"/>
      <point x="172" y="513" type="curve"/>
      <point x="111" y="416" type="line"/>
      <point x="166" y="395"/>
      <point x="254" y="398"/>
      <point x="319" y="376" type="curve"/>
      <point x="252" y="320"/>
      <point x="161" y="280"/>
    </contour>
  </outline>
</glyph>
<glyph name="comma" format="2">
  <advance width="614"/>
  <unicode hex="002C"/>
  <outline>
    <contour>
      <point x="37" y="-152" type="line"/>
      <point x="127" y="-152" type="line"/>
      <point x="291" y="-58"/>
      <point x="317" y="-19"/>
      <point x="367" y="132" type="curve"/>
      <point x="231" y="132" type="line"/>
      <point x="196" y="-1"/>
      <point x="178" y="-26"/>
      <point x="38" y="-150" type="curve"/>
    </contour>
  </outline>
</glyph>
<glyph name="hyphen" format="2">
  <advance width="614"/>
  <unicode hex="002D"/>
  <outline>
    <contour>
      <point x="145" y="321" type="line"/>
      <point x="122" y="239" type="line"/>
      <point x="496" y="239" type="line"/>
      <point x="519" y="321" type="line"/>
    </contour>
  </outline>
</glyph>
<glyph name="period" format="2">
  <advance width="614"/>
  <unicode hex="002E"/>
  <outline>
    <contour>
      <point x="252" y="-15" type="curve" smooth="yes"/>
      <point x="322" y="-15"/>
      <point x="354" y="31"/>
      <point x="354" y="82" type="curve" smooth="yes"/>
      <point x="354" y="122"/>
      <point x="325" y="147"/>
      <point x="272" y="147" type="curve" smooth="yes"/>
      <point x="202" y="147"/>
      <point x="170" y="100"/>
      <point x="170" y="50" type="curve" smooth="yes"/>
      <point x="170" y="9"/>
      <point x="198" y="-15"/>
    </contour>
  </outline>
</glyph>
<glyph name="zero" format="2">
  <advance width="614"/>
  <unicode hex="0030"/>
  <outline>
    <contour>
      <point x="413" y="670" type="curve" smooth="yes"/>
      <point x="341" y="670"/>
      <point x="278" y="644"/>
      <point x="227" y="593" type="curve" smooth="yes"/>
      <point x="134" y="500"/>
      <point x="67" y="328"/>
      <point x="67" y="178" type="curve" smooth="yes"/>
      <point x="67" y="47"/>
      <point x="137" y="-15"/>
      <point x="252" y="-15" type="curve" smooth="yes"/>
      <point x="324" y="-15"/>
      <point x="386" y="11"/>
      <point x="437" y="62" type="curve" smooth="yes"/>
      <point x="530" y="155"/>
      <point x="598" y="327"/>
      <point x="598" y="477" type="curve" smooth="yes"/>
      <point x="598" y="608"/>
      <point x="528" y="670"/>
    </contour>
    <contour>
      <point x="286" y="541" type="curve" smooth="yes"/>
      <point x="320" y="576"/>
      <point x="361" y="596"/>
      <point x="408" y="596" type="curve" smooth="yes"/>
      <point x="472" y="596"/>
      <point x="512" y="558"/>
      <point x="512" y="472" type="curve" smooth="yes"/>
      <point x="512" y="459" type="line"/>
      <point x="161" y="268" type="line"/>
      <point x="178" y="367"/>
      <point x="223" y="479"/>
    </contour>
    <contour>
      <point x="256" y="59" type="curve" smooth="yes"/>
      <point x="192" y="59"/>
      <point x="153" y="96"/>
      <point x="153" y="183" type="curve" smooth="yes"/>
      <point x="153" y="196" type="line"/>
      <point x="504" y="388" type="line"/>
      <point x="486" y="288"/>
      <point x="441" y="176"/>
      <point x="379" y="114" type="curve" smooth="yes"/>
      <point x="345" y="79"/>
      <point x="304" y="59"/>
    </contour>
  </outline>
</glyph>
<glyph name="two" format="2">
  <advance width="614"/>
  <unicode hex="0032"/>
  <outline>
    <contour>
      <point x="14" y="0" type="line"/>
      <point x="478" y="0" type="line"/>
      <point x="499" y="72" type="line"/>
      <point x="156" y="72" type="line"/>
      <point x="156" y="75" type="line"/>
      <point x="420" y="281" type="line" smooth="yes"/>
      <point x="581" y="406"/>
      <point x="603" y="465"/>
      <point x="603" y="526" type="curve" smooth="yes"/>
      <point x="603" y="612"/>
      <point x="531" y="670"/>
      <point x="435" y="670" type="curve" smooth="yes"/>
      <point x="351" y="670"/>
      <point x="285" y="643"/>
      <point x="150" y="542" type="curve"/>
      <point x="191" y="481" type="line"/>
      <point x="324" y="578"/>
      <point x="372" y="596"/>
      <point x="426" y="596" type="curve" smooth="yes"/>
      <point x="480" y="596"/>
      <point x="511" y="566"/>
      <point x="511" y="520" type="curve" smooth="yes"/>
      <point x="511" y="469"/>
      <point x="482" y="424"/>
      <point x="347" y="315" type="curve" smooth="yes"/>
      <point x="14" y="47" type="line"/>
    </contour>
  </outline>
</glyph>
<glyph name="three" format="2">
  <advance width="614"/>
  <unicode hex="0033"/>
  <outline>
    <contour>
      <point x="170" y="583" type="line"/>
      <point x="475" y="583" type="line"/>
      <point x="475" y="580" type="line"/>
      <point x="215" y="359" type="line"/>
      <point x="217" y="319" type="line"/>
      <point x="406" y="317"/>
      <point x="440" y="285"/>
      <point x="440" y="224" type="curve" smooth="yes"/>
      <point x="440" y="154"/>
      <point x="374" y="90"/>
      <point x="163" y="75" type="curve" smooth="yes"/>
      <point x="37" y="67" type="line"/>
      <point x="22" y="-10" type="line"/>
      <point x="170" y="-1" type="line" smooth="yes"/>
      <point x="431" y="15"/>
      <point x="532" y="105"/>
      <point x="532" y="234" type="curve" smooth="yes"/>
      <point x="532" y="319"/>
      <point x="481" y="369"/>
      <point x="343" y="380" type="curve"/>
      <point x="343" y="383" type="line"/>
      <point x="614" y="608" type="line"/>
      <point x="614" y="655" type="line"/>
      <point x="191" y="655" type="line"/>
    </contour>
  </outline>
</glyph>
<glyph name="five" format="2">
  <advance width="614"/>
  <unicode hex="0035"/>
  <outline>
    <contour>
      <point x="541" y="275" type="curve" smooth="yes"/>
      <point x="541" y="372"/>
      <point x="472" y="421"/>
      <point x="377" y="421" type="curve" smooth="yes"/>
      <point x="330" y="421"/>
      <point x="280" y="410"/>
      <point x="225" y="382" type="curve"/>
      <point x="300" y="583" type="line"/>
      <point x="595" y="583" type="line"/>
      <point x="616" y="655" type="line"/>
      <point x="247" y="655" type="line"/>
      <point x="124" y="312" type="line"/>
      <point x="125" y="307" type="line"/>
      <point x="182" y="298" type="line"/>
      <point x="252" y="335"/>
      <point x="303" y="351"/>
      <point x="350" y="351" type="curve" smooth="yes"/>
      <point x="411" y="351"/>
      <point x="450" y="320"/>
      <point x="450" y="267" type="curve" smooth="yes"/>
      <point x="450" y="182"/>
      <point x="379" y="95"/>
      <point x="160" y="76" type="curve" smooth="yes"/>
      <point x="38" y="65" type="line"/>
      <point x="24" y="-10" type="line"/>
      <point x="163" y="1" type="line" smooth="yes"/>
      <point x="438" y="25"/>
      <point x="541" y="134"/>
    </contour>
  </outline>
</glyph>
<glyph name="six" format="2">
  <advance width="614"/>
  <unicode hex="0036"/>
  <outline>
    <contour>
      <point x="409" y="528" type="curve" smooth="yes"/>
      <point x="578" y="653" type="line"/>
      <point x="578" y="655" type="line"/>
      <point x="464" y="655" type="line"/>
      <point x="333" y="557" type="line" smooth="yes"/>
      <point x="135" y="408"/>
      <point x="67" y="287"/>
      <point x="67" y="168" type="curve" smooth="yes"/>
      <point x="67" y="49"/>
      <point x="145" y="-15"/>
      <point x="259" y="-15" type="curve" smooth="yes"/>
      <point x="418" y="-15"/>
      <point x="541" y="117"/>
      <point x="541" y="248" type="curve" smooth="yes"/>
      <point x="541" y="352"/>
      <point x="475" y="415"/>
      <point x="296" y="435" type="curve"/>
      <point x="327" y="464"/>
      <point x="365" y="495"/>
    </contour>
    <contour>
      <point x="154" y="172" type="curve" smooth="yes"/>
      <point x="154" y="238"/>
      <point x="176" y="305"/>
      <point x="245" y="383" type="curve"/>
      <point x="403" y="365"/>
      <point x="454" y="325"/>
      <point x="454" y="244" type="curve" smooth="yes"/>
      <point x="454" y="156"/>
      <point x="370" y="56"/>
      <point x="264" y="56" type="curve" smooth="yes"/>
      <point x="197" y="56"/>
      <point x="154" y="97"/>
    </contour>
  </outline>
</glyph>
<glyph name="eight" format="2">
  <advance width="614"/>
  <unicode hex="0038"/>
  <outline>
    <contour>
      <point x="266" y="-15" type="curve" smooth="yes"/>
      <point x="408" y="-15"/>
      <point x="526" y="69"/>
      <point x="526" y="192" type="curve" smooth="yes"/>
      <point x="526" y="253"/>
      <point x="488" y="302"/>
      <point x="425" y="328" type="curve"/>
      <point x="425" y="333" type="line"/>
      <point x="534" y="353"/>
      <point x="596" y="428"/>
      <point x="596" y="514" type="curve" smooth="yes"/>
      <point x="596" y="608"/>
      <point x="523" y="670"/>
      <point x="400" y="670" type="curve" smooth="yes"/>
      <point x="261" y="670"/>
      <point x="168" y="576"/>
      <point x="168" y="476" type="curve" smooth="yes"/>
      <point x="168" y="419"/>
      <point x="201" y="374"/>
      <point x="257" y="349" type="curve"/>
      <point x="257" y="344" type="line"/>
      <point x="132" y="326"/>
      <point x="54" y="246"/>
      <point x="54" y="150" type="curve" smooth="yes"/>
      <point x="54" y="45"/>
      <point x="140" y="-15"/>
    </contour>
    <contour>
      <point x="354" y="368" type="curve" smooth="yes"/>
      <point x="293" y="368"/>
      <point x="250" y="404"/>
      <point x="250" y="461" type="curve" smooth="yes"/>
      <point x="250" y="540"/>
      <point x="316" y="601"/>
      <point x="400" y="601" type="curve" smooth="yes"/>
      <point x="468" y="601"/>
      <point x="511" y="566"/>
      <point x="511" y="510" type="curve" smooth="yes"/>
      <point x="511" y="437"/>
      <point x="438" y="368"/>
    </contour>
    <contour>
      <point x="267" y="54" type="curve" smooth="yes"/>
      <point x="191" y="54"/>
      <point x="142" y="90"/>
      <point x="142" y="155" type="curve" smooth="yes"/>
      <point x="142" y="237"/>
      <point x="218" y="305"/>
      <point x="316" y="305" type="curve" smooth="yes"/>
      <point x="391" y="305"/>
      <point x="441" y="265"/>
      <point x="441" y="205" type="curve" smooth="yes"/>
      <point x="441" y="119"/>
      <point x="364" y="54"/>
    </contour>
  </outline>
</glyph>
<glyph name="nine" format="2">
  <advance width="614"/>
  <unicode hex="0039"/>
  <outline>
    <contour>
      <point x="266" y="126" type="curve" smooth="yes"/>
      <point x="96" y="1" type="line"/>
      <point x="96" y="-1" type="line"/>
      <point x="211" y="-1" type="line"/>
      <point x="342" y="97" type="line" smooth="yes"/>
      <point x="539" y="247"/>
      <point x="607" y="367"/>
      <point x="607" y="486" type="curve" smooth="yes"/>
      <point x="607" y="606"/>
      <point x="530" y="669"/>
      <point x="415" y="669" type="curve" smooth="yes"/>
      <point x="256" y="669"/>
      <point x="133" y="538"/>
      <point x="133" y="406" type="curve" smooth="yes"/>
      <point x="133" y="303"/>
      <point x="200" y="240"/>
      <point x="380" y="220" type="curve"/>
      <point x="348" y="190"/>
      <point x="311" y="159"/>
    </contour>
    <contour>
      <point x="220" y="410" type="curve" smooth="yes"/>
      <point x="220" y="499"/>
      <point x="304" y="598"/>
      <point x="411" y="598" type="curve" smooth="yes"/>
      <point x="477" y="598"/>
      <point x="520" y="558"/>
      <point x="520" y="482" type="curve" smooth="yes"/>
      <point x="520" y="417"/>
      <point x="498" y="350"/>
      <point x="430" y="272" type="curve"/>
      <point x="272" y="289"/>
      <point x="220" y="329"/>
    </contour>
  </outline>
</glyph>
<glyph name="colon" format="2">
  <advance width="614"/>
  <unicode hex="003A"/>
  <outline>
    <contour>
      <point x="342" y="322" type="curve" smooth="yes"/>
      <point x="409" y="322"/>
      <point x="447" y="367"/>
      <point x="447" y="420" type="curve" smooth="yes"/>
      <point x="447" y="457"/>
      <point x="421" y="478"/>
      <point x="368" y="478" type="curve" smooth="yes"/>
      <point x="300" y="478"/>
      <point x="263" y="430"/>
      <point x="263" y="381" type="curve" smooth="yes"/>
      <point x="263" y="341"/>
      <point x="294" y="322"/>
    </contour>
    <contour>
      <point x="246" y="-15" type="curve" smooth="yes"/>
      <point x="313" y="-15"/>
      <point x="351" y="31"/>
      <point x="351" y="83" type="curve" smooth="yes"/>
      <point x="351" y="121"/>
      <point x="325" y="141"/>
      <point x="272" y="141" type="curve" smooth="yes"/>
      <point x="208" y="141"/>
      <point x="167" y="96"/>
      <point x="167" y="44" type="curve" smooth="yes"/>
      <point x="167" y="4"/>
      <point x="198" y="-15"/>
    </contour>
  </outline>
</glyph>
<glyph name="semicolon" format="2">
  <advance width="614"/>
  <unicode hex="003B"/>
  <outline>
    <contour>
      <point x="352" y="322" type="curve" smooth="yes"/>
      <point x="419" y="322"/>
      <point x="458" y="367"/>
      <point x="458" y="420" type="curve" smooth="yes"/>
      <point x="458" y="457"/>
      <point x="431" y="478"/>
      <point x="379" y="478" type="curve" smooth="yes"/>
      <point x="311" y="478"/>
      <point x="274" y="430"/>
      <point x="274" y="381" type="curve" smooth="yes"/>
      <point x="274" y="341"/>
      <point x="305" y="322"/>
    </contour>
    <contour>
      <point x="25" y="-152" type="line"/>
      <point x="113" y="-152" type="line"/>
      <point x="265" y="-47"/>
      <point x="293" y="-13"/>
      <point x="356" y="132" type="curve"/>
      <point x="220" y="132" type="line"/>
      <point x="173" y="5"/>
      <point x="154" y="-20"/>
      <point x="26" y="-150" type="curve"/>
    </contour>
  </outline>
</glyph>
<glyph name="question" format="2">
  <advance width="614"/>
  <unicode hex="003F"/>
  <outline>
    <contour>
      <point x="273" y="242" type="line"/>
      <point x="301" y="314"/>
      <point x="308" y="321"/>
      <point x="339" y="333" type="curve" smooth="yes"/>
      <point x="445" y="375" type="line" smooth="yes"/>
      <point x="593" y="434"/>
      <point x="632" y="493"/>
      <point x="632" y="581" type="curve" smooth="yes"/>
      <point x="632" y="669"/>
      <point x="564" y="725"/>
      <point x="459" y="725" type="curve" smooth="yes"/>
      <point x="376" y="725"/>
      <point x="309" y="707"/>
      <point x="169" y="632" type="curve"/>
      <point x="197" y="566" type="line"/>
      <point x="343" y="640"/>
      <point x="390" y="653"/>
      <point x="444" y="653" type="curve" smooth="yes"/>
      <point x="503" y="653"/>
      <point x="541" y="624"/>
      <point x="541" y="570" type="curve" smooth="yes"/>
      <point x="541" y="521"/>
      <point x="518" y="482"/>
      <point x="414" y="441" type="curve" smooth="yes"/>
      <point x="298" y="397" type="line" smooth="yes"/>
      <point x="252" y="378"/>
      <point x="239" y="367"/>
      <point x="233" y="343" type="curve" smooth="yes"/>
      <point x="229" y="329"/>
      <point x="225" y="306"/>
      <point x="217" y="242" type="curve"/>
    </contour>
    <contour>
      <point x="205" y="114" type="curve" smooth="yes"/>
      <point x="138" y="114"/>
      <point x="110" y="77"/>
      <point x="110" y="35" type="curve" smooth="yes"/>
      <point x="110" y="4"/>
      <point x="133" y="-15"/>
      <point x="182" y="-15" type="curve" smooth="yes"/>
      <point x="249" y="-15"/>
      <point x="277" y="22"/>
      <point x="277" y="64" type="curve" smooth="yes"/>
      <point x="277" y="95"/>
      <point x="253" y="114"/>
    </contour>
  </outline>
</glyph>
<glyph name="at" format="2">
  <advance width="614"/>
  <unicode hex="0040"/>
  <outline>
    <contour>
      <point x="411" y="-61" type="curve"/>
      <point x="402" y="-14" type="line"/>
      <point x="345" y="-27"/>
      <point x="303" y="-31"/>
      <point x="271" y="-31" type="curve" smooth="yes"/>
      <point x="161" y="-31"/>
      <point x="101" y="13"/>
      <point x="101" y="130" type="curve" smooth="yes"/>
      <point x="101" y="257"/>
      <point x="182" y="511"/>
      <point x="271" y="601" type="curve" smooth="yes"/>
      <point x="332" y="661"/>
      <point x="389" y="677"/>
      <point x="454" y="677" type="curve" smooth="yes"/>
      <point x="541" y="677"/>
      <point x="582" y="652"/>
      <point x="582" y="567" type="curve" smooth="yes"/>
      <point x="582" y="553"/>
      <point x="580" y="535"/>
      <point x="578" y="515" type="curve"/>
      <point x="478" y="515" type="line" smooth="yes"/>
      <point x="408" y="515"/>
      <point x="351" y="498"/>
      <point x="309" y="456" type="curve" smooth="yes"/>
      <point x="260" y="407"/>
      <point x="231" y="313"/>
      <point x="231" y="246" type="curve" smooth="yes"/>
      <point x="231" y="166"/>
      <point x="279" y="129"/>
      <point x="378" y="129" type="curve" smooth="yes"/>
      <point x="431" y="129"/>
      <point x="475" y="142"/>
      <point x="515" y="181" type="curve" smooth="yes"/>
      <point x="585" y="252"/>
      <point x="635" y="478"/>
      <point x="635" y="574" type="curve" smooth="yes"/>
      <point x="635" y="695"/>
      <point x="570" y="725"/>
      <point x="455" y="725" type="curve" smooth="yes"/>
      <point x="375" y="725"/>
      <point x="303" y="702"/>
      <point x="242" y="640" type="curve" smooth="yes"/>
      <point x="135" y="533"/>
      <point x="49" y="270"/>
      <point x="49" y="117" type="curve" smooth="yes"/>
      <point x="49" y="-24"/>
      <point x="121" y="-79"/>
      <point x="257" y="-79" type="curve" smooth="yes"/>
      <point x="305" y="-79"/>
      <point x="349" y="-73"/>
    </contour>
    <contour>
      <point x="360" y="419" type="curve" smooth="yes"/>
      <point x="386" y="445"/>
      <point x="419" y="457"/>
      <point x="458" y="457" type="curve" smooth="yes"/>
      <point x="567" y="457" type="line"/>
      <point x="549" y="368"/>
      <point x="515" y="262"/>
      <point x="478" y="225" type="curve" smooth="yes"/>
      <point x="450" y="196"/>
      <point x="417" y="187"/>
      <point x="378" y="187" type="curve" smooth="yes"/>
      <point x="326" y="187"/>
      <point x="299" y="204"/>
      <point x="299" y="254" type="curve" smooth="yes"/>
      <point x="299" y="309"/>
      <point x="326" y="385"/>
    </contour>
  </outline>
</glyph>
<glyph name="A" format="2">
  <advance width="614"/>
  <unicode hex="0041"/>
  <anchor x="425" y="691" name="aboveUC"/>
  <anchor x="413" y="651" name="aboveUCx"/>
  <anchor x="459" y="-10" name="belowogonek"/>
  <anchor x="265" y="-32" name="below"/>
  <anchor x="274" y="0" name="belowx"/>
  <outline>
    <contour>
      <point x="67" y="0" type="line"/>
      <point x="174" y="178" type="line"/>
      <point x="417" y="178" type="line"/>
      <point x="423" y="0" type="line"/>
      <point x="508" y="0" type="line"/>
      <point x="481" y="655" type="line"/>
      <point x="375" y="655" type="line"/>
      <point x="-26" y="0" type="line"/>
    </contour>
    <contour>
      <point x="215" y="248" type="line"/>
      <point x="407" y="570" type="line"/>
      <point x="417" y="248" type="line"/>
    </contour>
  </outline>
</glyph>
<glyph name="B" format="2">
  <advance width="614"/>
  <unicode hex="0042"/>
  <anchor x="233" y="-35" name="below"/>
  <outline>
    <contour>
      <point x="216" y="655" type="line"/>
      <point x="28" y="0" type="line"/>
      <point x="275" y="0" type="line" smooth="yes"/>
      <point x="470" y="0"/>
      <point x="552" y="88"/>
      <point x="552" y="195" type="curve" smooth="yes"/>
      <point x="552" y="264"/>
      <point x="508" y="314"/>
      <point x="422" y="332" type="curve"/>
      <point x="422" y="336" type="line"/>
      <point x="571" y="368"/>
      <point x="624" y="444"/>
      <point x="624" y="527" type="curve" smooth="yes"/>
      <point x="624" y="602"/>
      <point x="569" y="655"/>
      <point x="451" y="655" type="curve" smooth="yes"/>
    </contour>
    <contour>
      <point x="428" y="587" type="line" smooth="yes"/>
      <point x="499" y="587"/>
      <point x="530" y="557"/>
      <point x="530" y="510" type="curve" smooth="yes"/>
      <point x="530" y="444"/>
      <point x="468" y="378"/>
      <point x="325" y="372" type="curve" smooth="yes"/>
      <point x="218" y="366" type="line"/>
      <point x="281" y="587" type="line"/>
    </contour>
    <contour>
      <point x="318" y="300" type="line" smooth="yes"/>
      <point x="421" y="296"/>
      <point x="464" y="256"/>
      <point x="464" y="200" type="curve" smooth="yes"/>
      <point x="464" y="131"/>
      <point x="408" y="68"/>
      <point x="293" y="68" type="curve" smooth="yes"/>
      <point x="133" y="68" type="line"/>
      <point x="201" y="305" type="line"/>
    </contour>
  </outline>
</glyph>
<glyph name="C" format="2">
  <advance width="614"/>
  <unicode hex="0043"/>
  <anchor x="465" y="693" name="aboveUC"/>
  <anchor x="455" y="658" name="aboveUCx"/>
  <anchor x="261" y="-40" name="below"/>
  <anchor x="260" y="-15" name="belowcedilla"/>
  <outline>
    <contour>
      <point x="271" y="-15" type="curve" smooth="yes"/>
      <point x="350" y="-15"/>
      <point x="419" y="6"/>
      <point x="526" y="75" type="curve"/>
      <point x="486" y="138" type="line"/>
      <point x="388" y="78"/>
      <point x="332" y="57"/>
      <point x="275" y="57" type="curve" smooth="yes"/>
      <point x="208" y="57"/>
      <point x="156" y="105"/>
      <point x="156" y="204" type="curve" smooth="yes"/>
      <point x="156" y="404"/>
      <point x="279" y="598"/>
      <point x="443" y="598" type="curve" smooth="yes"/>
      <point x="496" y="598"/>
      <point x="535" y="585"/>
      <point x="608" y="518" type="curve"/>
      <point x="659" y="581" type="line"/>
      <point x="581" y="651"/>
      <point x="527" y="670"/>
      <point x="448" y="670" type="curve" smooth="yes"/>
      <point x="215" y="670"/>
      <point x="66" y="431"/>
      <point x="66" y="201" type="curve" smooth="yes"/>
      <point x="66" y="59"/>
      <point x="138" y="-15"/>
    </contour>
  </outline>
</glyph>
<glyph name="D" format="2">
  <advance width="614"/>
  <unicode hex="0044"/>
  <anchor x="407" y="691" name="aboveUC"/>
  <anchor x="201" y="-35" name="below"/>
  <outline>
    <contour>
      <point x="214" y="655" type="line"/>
      <point x="26" y="0" type="line"/>
      <point x="105" y="0" type="line" smooth="yes"/>
      <point x="286" y="0"/>
      <point x="410" y="51"/>
      <point x="491" y="131" type="curve" smooth="yes"/>
      <point x="568" y="209"/>
      <point x="607" y="310"/>
      <point x="607" y="422" type="curve" smooth="yes"/>
      <point x="607" y="491"/>
      <point x="587" y="544"/>
      <point x="549" y="582" type="curve" smooth="yes"/>
      <point x="504" y="627"/>
      <point x="425.0" y="655.0"/>
      <point x="305" y="655" type="curve" smooth="yes"/>
    </contour>
    <contour>
      <point x="517" y="424" type="curve" smooth="yes"/>
      <point x="517" y="234"/>
      <point x="374" y="75"/>
      <point x="133" y="72" type="curve"/>
      <point x="280" y="583" type="line"/>
      <point x="292" y="583" type="line" smooth="yes"/>
      <point x="466.0" y="583.0"/>
      <point x="517.0" y="525.0"/>
    </contour>
  </outline>
</glyph>
<glyph name="E" format="2">
  <advance width="614"/>
  <unicode hex="0045"/>
  <anchor x="460" y="691" name="aboveUC"/>
  <anchor x="391" y="-10" name="belowogonek"/>
  <anchor x="256" y="-35" name="below"/>
  <outline>
    <contour>
      <point x="219" y="655" type="line"/>
      <point x="31" y="0" type="line"/>
      <point x="475" y="0" type="line"/>
      <point x="496" y="72" type="line"/>
      <point x="139" y="72" type="line"/>
      <point x="203" y="295" type="line"/>
      <point x="499" y="295" type="line"/>
      <point x="520" y="367" type="line"/>
      <point x="223" y="367" type="line"/>
      <point x="285" y="583" type="line"/>
      <point x="636" y="583" type="line"/>
      <point x="657" y="655" type="line"/>
    </contour>
  </outline>
</glyph>
<glyph name="G" format="2">
  <advance width="614"/>
  <unicode hex="0047"/>
  <anchor x="477" y="694" name="aboveUC"/>
  <anchor x="467" y="659" name="aboveUCx"/>
  <anchor x="290" y="-40" name="below"/>
  <outline>
    <contour>
      <point x="613" y="581" type="curve"/>
      <point x="629" y="654" type="line"/>
      <point x="579" y="662"/>
      <point x="546" y="664"/>
      <point x="510" y="664" type="curve" smooth="yes"/>
      <point x="209" y="664"/>
      <point x="59" y="445"/>
      <point x="59" y="223" type="curve" smooth="yes"/>
      <point x="59" y="71"/>
      <point x="140" y="-15"/>
      <point x="313" y="-15" type="curve" smooth="yes"/>
      <point x="365" y="-15"/>
      <point x="415" y="-10"/>
      <point x="478" y="8" type="curve"/>
      <point x="585" y="353" type="line"/>
      <point x="345" y="353" type="line"/>
      <point x="326" y="283" type="line"/>
      <point x="481" y="283" type="line"/>
      <point x="413" y="67" type="line"/>
      <point x="381" y="60"/>
      <point x="349" y="57"/>
      <point x="323" y="57" type="curve" smooth="yes"/>
      <point x="203" y="57"/>
      <point x="149" y="112"/>
      <point x="149" y="224" type="curve" smooth="yes"/>
      <point x="149" y="417"/>
      <point x="270" y="591"/>
      <point x="506" y="591" type="curve" smooth="yes"/>
      <point x="543" y="591"/>
      <point x="571" y="589"/>
    </contour>
  </outline>
</glyph>
<glyph name="H" format="2">
  <advance width="614"/>
  <unicode hex="0048"/>
  <anchor x="438" y="691" name="aboveUC"/>
  <anchor x="231" y="-35" name="below"/>
  <anchor x="67" y="-10" name="belowcedilla"/>
  <anchor x="241" y="0" name="belowx"/>
  <anchor x="428" y="656" name="aboveUCx"/>
  <outline>
    <contour>
      <point x="213" y="655" type="line"/>
      <point x="26" y="0" type="line"/>
      <point x="112" y="0" type="line"/>
      <point x="196" y="294" type="line"/>
      <point x="452" y="294" type="line"/>
      <point x="368" y="0" type="line"/>
      <point x="455" y="0" type="line"/>
      <point x="643" y="655" type="line"/>
      <point x="556" y="655" type="line"/>
      <point x="473" y="367" type="line"/>
      <point x="217" y="367" type="line"/>
      <point x="300" y="655" type="line"/>
    </contour>
  </outline>
</glyph>
<glyph name="I" format="2">
  <advance width="614"/>
  <unicode hex="0049"/>
  <anchor x="231" y="-35" name="below"/>
  <anchor x="238" y="-9" name="belowogonek"/>
  <anchor x="438" y="691" name="aboveUC"/>
  <anchor x="429" y="661" name="aboveUCx"/>
  <outline>
    <contour>
      <point x="78" y="43" type="line"/>
      <point x="65" y="0" type="line"/>
      <point x="417" y="0" type="line"/>
      <point x="429" y="43" type="line"/>
      <point x="297" y="65" type="line"/>
      <point x="458" y="587" type="line"/>
      <point x="591" y="612" type="line"/>
      <point x="604" y="655" type="line"/>
      <point x="251" y="655" type="line"/>
      <point x="239" y="612" type="line"/>
      <point x="372" y="590" type="line"/>
      <point x="211" y="68" type="line"/>
    </contour>
  </outline>
</glyph>
<glyph name="J" format="2">
  <advance width="614"/>
  <unicode hex="004A"/>
  <anchor x="602" y="691" name="aboveUC"/>
  <anchor x="591" y="651" name="aboveUCx"/>
  <outline>
    <contour>
      <point x="271" y="-12" type="curve" smooth="yes"/>
      <point x="399" y="-12"/>
      <point x="467" y="62"/>
      <point x="503" y="188" type="curve" smooth="yes"/>
      <point x="637" y="655" type="line"/>
      <point x="550" y="655" type="line"/>
      <point x="418" y="195" type="line" smooth="yes"/>
      <point x="392" y="105"/>
      <point x="344" y="64"/>
      <point x="272" y="64" type="curve" smooth="yes"/>
      <point x="220" y="64"/>
      <point x="178" y="81"/>
      <point x="90" y="192" type="curve"/>
      <point x="29" y="138" type="line"/>
      <point x="126" y="17"/>
      <point x="188" y="-12"/>
    </contour>
  </outline>
</glyph>
<glyph name="L" format="2">
  <advance width="614"/>
  <unicode hex="004C"/>
  <anchor x="277" y="691" name="aboveUC"/>
  <anchor x="256" y="-35" name="below"/>
  <anchor x="469" y="655" name="topright"/>
  <outline>
    <contour>
      <point x="219" y="655" type="line"/>
      <point x="31" y="0" type="line"/>
      <point x="477" y="0" type="line"/>
      <point x="497" y="71" type="line"/>
      <point x="138" y="71" type="line"/>
      <point x="306" y="655" type="line"/>
    </contour>
  </outline>
</glyph>
<glyph name="M" format="2">
  <advance width="614"/>
  <unicode hex="004D"/>
  <anchor x="434" y="691" name="aboveUC"/>
  <anchor x="424" y="658" name="aboveUCx"/>
  <anchor x="246" y="-35" name="below"/>
  <anchor x="256" y="0" name="belowx"/>
  <outline>
    <contour>
      <point x="647" y="655" type="line"/>
      <point x="545" y="655" type="line"/>
      <point x="331" y="328" type="line"/>
      <point x="304" y="655" type="line"/>
      <point x="211" y="655" type="line"/>
      <point x="-4" y="0" type="line"/>
      <point x="77" y="0" type="line"/>
      <point x="251" y="545" type="line"/>
      <point x="281" y="179" type="line"/>
      <point x="302" y="179" type="line"/>
      <point x="546" y="555" type="line"/>
      <point x="403" y="0" type="line"/>
      <point x="485" y="0" type="line"/>
    </contour>
  </outline>
</glyph>
<glyph name="N" format="2">
  <advance width="614"/>
  <unicode hex="004E"/>
  <anchor x="443" y="691" name="aboveUC"/>
  <anchor x="433" y="656" name="aboveUCx"/>
  <anchor x="238" y="-35" name="below"/>
  <anchor x="248" y="0" name="belowx"/>
  <outline>
    <contour>
      <point x="104" y="0" type="line"/>
      <point x="258" y="555" type="line"/>
      <point x="358" y="0" type="line"/>
      <point x="458" y="0" type="line"/>
      <point x="645" y="655" type="line"/>
      <point x="565" y="655" type="line"/>
      <point x="414" y="110" type="line"/>
      <point x="316" y="655" type="line"/>
      <point x="211" y="655" type="line"/>
      <point x="23" y="0" type="line"/>
    </contour>
  </outline>
</glyph>
<glyph name="O" format="2">
  <advance width="614"/>
  <unicode hex="004F"/>
  <anchor x="430" y="696" name="aboveUC"/>
  <anchor x="420" y="661" name="aboveUCx"/>
  <anchor x="246" y="-40" name="below"/>
  <anchor x="246" y="-15" name="belowogonek"/>
  <outline>
    <contour>
      <point x="407" y="670" type="curve" smooth="yes"/>
      <point x="255" y="670"/>
      <point x="134" y="545"/>
      <point x="82" y="365" type="curve" smooth="yes"/>
      <point x="64" y="301"/>
      <point x="59" y="250"/>
      <point x="59" y="202" type="curve" smooth="yes"/>
      <point x="59" y="56"/>
      <point x="137" y="-15"/>
      <point x="263" y="-15" type="curve" smooth="yes"/>
      <point x="415" y="-15"/>
      <point x="536" y="110"/>
      <point x="588" y="290" type="curve" smooth="yes"/>
      <point x="606" y="354"/>
      <point x="611" y="405"/>
      <point x="611" y="453" type="curve" smooth="yes"/>
      <point x="611" y="599"/>
      <point x="533" y="670"/>
    </contour>
    <contour>
      <point x="268" y="57" type="curve" smooth="yes"/>
      <point x="195" y="57"/>
      <point x="148" y="102"/>
      <point x="148" y="201" type="curve" smooth="yes"/>
      <point x="148" y="245"/>
      <point x="155" y="300"/>
      <point x="172" y="359" type="curve" smooth="yes"/>
      <point x="213" y="502"/>
      <point x="297" y="598"/>
      <point x="402" y="598" type="curve" smooth="yes"/>
      <point x="475" y="598"/>
      <point x="522" y="553"/>
      <point x="522" y="454" type="curve" smooth="yes"/>
      <point x="522" y="410"/>
      <point x="515" y="355"/>
      <point x="498" y="296" type="curve" smooth="yes"/>
      <point x="457" y="153"/>
      <point x="373" y="57"/>
    </contour>
  </outline>
</glyph>
<glyph name="P" format="2">
  <advance width="614"/>
  <unicode hex="0050"/>
  <anchor x="455" y="691" name="aboveUC"/>
  <outline>
    <contour>
      <point x="217" y="655" type="line"/>
      <point x="29" y="0" type="line"/>
      <point x="116" y="0" type="line"/>
      <point x="182" y="229" type="line"/>
      <point x="310" y="229" type="line" smooth="yes"/>
      <point x="425" y="229"/>
      <point x="506" y="251"/>
      <point x="565" y="309" type="curve" smooth="yes"/>
      <point x="610" y="355"/>
      <point x="635" y="415"/>
      <point x="635" y="485" type="curve" smooth="yes"/>
      <point x="635" y="588"/>
      <point x="566" y="655"/>
      <point x="439" y="655" type="curve" smooth="yes"/>
    </contour>
    <contour>
      <point x="420" y="583" type="line" smooth="yes"/>
      <point x="504" y="583"/>
      <point x="541" y="548"/>
      <point x="541" y="486" type="curve" smooth="yes"/>
      <point x="541" y="370"/>
      <point x="461" y="300"/>
      <point x="318" y="300" type="curve" smooth="yes"/>
      <point x="202" y="300" type="line"/>
      <point x="283" y="583" type="line"/>
    </contour>
  </outline>
</glyph>
<glyph name="Q" format="2">
  <advance width="614"/>
  <unicode hex="0051"/>
  <outline>
    <contour>
      <point x="516" y="-114" type="line"/>
      <point x="427" y="42" type="line"/>
      <point x="501" y="95"/>
      <point x="557" y="183"/>
      <point x="588" y="290" type="curve" smooth="yes"/>
      <point x="606" y="354"/>
      <point x="611" y="405"/>
      <point x="611" y="453" type="curve" smooth="yes"/>
      <point x="611" y="599"/>
      <point x="533" y="670"/>
      <point x="407" y="670" type="curve" smooth="yes"/>
      <point x="255" y="670"/>
      <point x="134" y="545"/>
      <point x="82" y="365" type="curve" smooth="yes"/>
      <point x="64" y="301"/>
      <point x="59" y="250"/>
      <point x="59" y="202" type="curve" smooth="yes"/>
      <point x="59" y="58"/>
      <point x="137" y="-12"/>
      <point x="263" y="-12" type="curve" smooth="yes"/>
      <point x="297" y="-12"/>
      <point x="330" y="-6"/>
      <point x="361" y="6" type="curve"/>
      <point x="431" y="-155" type="line"/>
    </contour>
    <contour>
      <point x="268" y="57" type="curve" smooth="yes"/>
      <point x="195" y="57"/>
      <point x="148" y="102"/>
      <point x="148" y="201" type="curve" smooth="yes"/>
      <point x="148" y="245"/>
      <point x="155" y="300"/>
      <point x="172" y="359" type="curve" smooth="yes"/>
      <point x="213" y="502"/>
      <point x="297" y="598"/>
      <point x="402" y="598" type="curve" smooth="yes"/>
      <point x="475" y="598"/>
      <point x="522" y="553"/>
      <point x="522" y="454" type="curve" smooth="yes"/>
      <point x="522" y="410"/>
      <point x="515" y="355"/>
      <point x="498" y="296" type="curve" smooth="yes"/>
      <point x="475" y="215"/>
      <point x="437" y="148"/>
      <point x="390" y="107" type="curve"/>
      <point x="333" y="234" type="line"/>
      <point x="269" y="204" type="line"/>
      <point x="336" y="71" type="line"/>
      <point x="314" y="62"/>
      <point x="292" y="57"/>
    </contour>
  </outline>
</glyph>
<glyph name="R" format="2">
  <advance width="614"/>
  <unicode hex="0052"/>
  <anchor x="445" y="691" name="aboveUC"/>
  <anchor x="256" y="-35" name="below"/>
  <anchor x="266" y="0" name="belowx"/>
  <outline>
    <contour>
      <point x="515" y="4" type="line"/>
      <point x="423" y="164" type="line" smooth="yes"/>
      <point x="385" y="231"/>
      <point x="363" y="253"/>
      <point x="328" y="276" type="curve"/>
      <point x="328" y="281" type="line"/>
      <point x="536" y="295"/>
      <point x="619" y="379"/>
      <point x="619" y="511" type="curve" smooth="yes"/>
      <point x="619" y="597"/>
      <point x="558" y="655"/>
      <point x="438" y="655" type="curve" smooth="yes"/>
      <point x="216" y="655" type="line"/>
      <point x="29" y="0" type="line"/>
      <point x="115" y="0" type="line"/>
      <point x="191" y="265" type="line"/>
      <point x="261" y="262"/>
      <point x="283" y="243"/>
      <point x="323" y="171" type="curve" smooth="yes"/>
      <point x="416" y="0" type="line"/>
      <point x="514" y="0" type="line"/>
    </contour>
    <contour>
      <point x="422" y="585" type="line" smooth="yes"/>
      <point x="493" y="585"/>
      <point x="527" y="556"/>
      <point x="527" y="505" type="curve" smooth="yes"/>
      <point x="527" y="411"/>
      <point x="467" y="344"/>
      <point x="290" y="335" type="curve" smooth="yes"/>
      <point x="210" y="331" type="line"/>
      <point x="283" y="585" type="line"/>
    </contour>
  </outline>
</glyph>
<glyph name="S" format="2">
  <advance width="614"/>
  <unicode hex="0053"/>
  <guideline x="399" y="399" angle="91.40802033825844" identifier="ylsDMwWxaG"/>
  <anchor x="448" y="696" name="aboveUC"/>
  <anchor x="438" y="661" name="aboveUCx"/>
  <anchor x="245" y="-37" name="below"/>
  <anchor x="253" y="-15" name="belowcedilla"/>
  <outline>
    <contour>
      <point x="292" y="61" type="curve" smooth="yes"/>
      <point x="215" y="61"/>
      <point x="138" y="89"/>
      <point x="57" y="128" type="curve"/>
      <point x="26" y="55" type="line"/>
      <point x="112" y="13"/>
      <point x="192" y="-13"/>
      <point x="293" y="-13" type="curve" smooth="yes"/>
      <point x="439" y="-13"/>
      <point x="532" y="58"/>
      <point x="532" y="180" type="curve" smooth="yes"/>
      <point x="532" y="249"/>
      <point x="511" y="292"/>
      <point x="406" y="351" type="curve" smooth="yes"/>
      <point x="328" y="395" type="line" smooth="yes"/>
      <point x="268" y="429"/>
      <point x="254" y="458"/>
      <point x="254" y="495" type="curve" smooth="yes"/>
      <point x="254" y="551"/>
      <point x="298" y="593"/>
      <point x="398" y="593" type="curve" smooth="yes"/>
      <point x="463" y="593"/>
      <point x="528" y="577"/>
      <point x="600" y="549" type="curve"/>
      <point x="624" y="624" type="line"/>
      <point x="544" y="652"/>
      <point x="483" y="667"/>
      <point x="399" y="667" type="curve" smooth="yes"/>
      <point x="245" y="667"/>
      <point x="166" y="582"/>
      <point x="166" y="489" type="curve" smooth="yes"/>
      <point x="166" y="419"/>
      <point x="198" y="372"/>
      <point x="279" y="327" type="curve" smooth="yes"/>
      <point x="357" y="284" type="line" smooth="yes"/>
      <point x="430" y="243"/>
      <point x="444" y="210"/>
      <point x="444" y="173" type="curve" smooth="yes"/>
      <point x="444" y="103"/>
      <point x="392" y="61"/>
    </contour>
  </outline>
</glyph>
<glyph name="T" format="2">
  <advance width="614"/>
  <unicode hex="0054"/>
  <anchor x="431" y="691" name="aboveUC"/>
  <anchor x="231" y="-35" name="below"/>
  <anchor x="237" y="-10" name="belowcedilla"/>
  <outline>
    <contour>
      <point x="148" y="583" type="line"/>
      <point x="361" y="583" type="line"/>
      <point x="194" y="0" type="line"/>
      <point x="281" y="0" type="line"/>
      <point x="448" y="583" type="line"/>
      <point x="660" y="583" type="line"/>
      <point x="681" y="655" type="line"/>
      <point x="169" y="655" type="line"/>
    </contour>
  </outline>
</glyph>
<glyph name="U" format="2">
  <advance width="614"/>
  <unicode hex="0055"/>
  <anchor x="438" y="691" name="aboveUC"/>
  <anchor x="428" y="656" name="aboveUCx"/>
  <anchor x="229" y="-40" name="below"/>
  <anchor x="250" y="-15" name="belowogonek"/>
  <outline>
    <contour>
      <point x="445" y="213" type="line" smooth="yes"/>
      <point x="414" y="107"/>
      <point x="360" y="62"/>
      <point x="279" y="62" type="curve" smooth="yes"/>
      <point x="195" y="62"/>
      <point x="155" y="102"/>
      <point x="155" y="168" type="curve" smooth="yes"/>
      <point x="155" y="188"/>
      <point x="159" y="215"/>
      <point x="172" y="261" type="curve" smooth="yes"/>
      <point x="286" y="655" type="line"/>
      <point x="199" y="655" type="line"/>
      <point x="92" y="286" type="line" smooth="yes"/>
      <point x="75" y="228"/>
      <point x="69" y="194"/>
      <point x="69" y="164" type="curve" smooth="yes"/>
      <point x="69" y="43"/>
      <point x="146" y="-15"/>
      <point x="267" y="-15" type="curve" smooth="yes"/>
      <point x="404" y="-15"/>
      <point x="484" y="51"/>
      <point x="528" y="206" type="curve" smooth="yes"/>
      <point x="658" y="655" type="line"/>
      <point x="572" y="655" type="line"/>
    </contour>
  </outline>
</glyph>
<glyph name="V" format="2">
  <advance width="614"/>
  <unicode hex="0056"/>
  <anchor x="232" y="-35" name="below"/>
  <outline>
    <contour>
      <point x="162" y="655" type="line"/>
      <point x="188" y="0" type="line"/>
      <point x="293" y="0" type="line"/>
      <point x="695" y="655" type="line"/>
      <point x="603" y="655" type="line"/>
      <point x="265" y="98" type="line"/>
      <point x="246" y="655" type="line"/>
    </contour>
  </outline>
</glyph>
<glyph name="Z" format="2">
  <advance width="614"/>
  <unicode hex="005A"/>
  <anchor x="433" y="691" name="aboveUC"/>
  <anchor x="233" y="-35" name="below"/>
  <anchor x="240" y="-10" name="belowcedilla"/>
  <outline>
    <contour>
      <point x="14" y="0" type="line"/>
      <point x="486" y="0" type="line"/>
      <point x="506" y="71" type="line"/>
      <point x="146" y="71" type="line"/>
      <point x="146" y="74" type="line"/>
      <point x="640" y="613" type="line"/>
      <point x="640" y="655" type="line"/>
      <point x="188" y="655" type="line"/>
      <point x="167" y="583" type="line"/>
      <point x="505" y="583" type="line"/>
      <point x="505" y="580" type="line"/>
      <point x="14" y="42" type="line"/>
    </contour>
  </outline>
</glyph>
<glyph name="a" format="2">
  <advance width="614"/>
  <unicode hex="0061"/>
  <anchor x="224" y="-35" name="below"/>
  <anchor x="400" y="-10" name="belowogonek"/>
  <anchor x="375" y="507" name="aboveLC"/>
  <anchor x="365" y="472" name="aboveLCx"/>
  <outline>
    <contour>
      <point x="458" y="126" type="curve" smooth="yes"/>
      <point x="525" y="314" type="line" smooth="yes"/>
      <point x="532" y="336"/>
      <point x="535" y="355"/>
      <point x="535" y="372" type="curve" smooth="yes"/>
      <point x="535" y="439"/>
      <point x="481" y="473"/>
      <point x="364" y="473" type="curve" smooth="yes"/>
      <point x="304" y="473"/>
      <point x="247" y="468"/>
      <point x="172" y="456" type="curve"/>
      <point x="152" y="384" type="line"/>
      <point x="236" y="397"/>
      <point x="304" y="403"/>
      <point x="340" y="403" type="curve" smooth="yes"/>
      <point x="419" y="403"/>
      <point x="449" y="386"/>
      <point x="449" y="350" type="curve" smooth="yes"/>
      <point x="449" y="340"/>
      <point x="447" y="330"/>
      <point x="441" y="312" type="curve" smooth="yes"/>
      <point x="432" y="286" type="line"/>
      <point x="287" y="273" type="line" smooth="yes"/>
      <point x="157" y="262"/>
      <point x="114" y="246"/>
      <point x="82" y="214" type="curve" smooth="yes"/>
      <point x="48" y="181"/>
      <point x="32" y="131"/>
      <point x="32" y="89" type="curve" smooth="yes"/>
      <point x="32" y="36"/>
      <point x="61" y="-6"/>
      <point x="139" y="-6" type="curve" smooth="yes"/>
      <point x="215" y="-6"/>
      <point x="277" y="15"/>
      <point x="358" y="64" type="curve"/>
      <point x="364" y="64" type="line"/>
      <point x="374" y="27"/>
      <point x="401" y="5"/>
      <point x="459" y="0" type="curve" smooth="yes"/>
      <point x="506" y="-5" type="line"/>
      <point x="526" y="62" type="line"/>
      <point x="486" y="68" type="line" smooth="yes"/>
      <point x="461" y="72"/>
      <point x="450" y="76"/>
      <point x="450" y="92" type="curve" smooth="yes"/>
      <point x="450" y="100"/>
      <point x="452" y="110"/>
    </contour>
    <contour>
      <point x="175" y="60" type="curve" smooth="yes"/>
      <point x="135" y="60"/>
      <point x="121" y="77"/>
      <point x="121" y="104" type="curve" smooth="yes"/>
      <point x="121" y="131"/>
      <point x="129" y="154"/>
      <point x="151" y="176" type="curve" smooth="yes"/>
      <point x="170" y="195"/>
      <point x="199" y="208"/>
      <point x="299" y="217" type="curve" smooth="yes"/>
      <point x="412" y="228" type="line"/>
      <point x="381" y="137" type="line"/>
      <point x="302" y="83"/>
      <point x="231" y="60"/>
    </contour>
  </outline>
</glyph>
<glyph name="b" format="2">
  <advance width="614"/>
  <unicode hex="0062"/>
  <anchor x="234" y="-35" name="below"/>
  <outline>
    <contour>
      <point x="316" y="710" type="line"/>
      <point x="230" y="710" type="line"/>
      <point x="36" y="37" type="line"/>
      <point x="92" y="9"/>
      <point x="166" y="-8"/>
      <point x="231" y="-8" type="curve" smooth="yes"/>
      <point x="439" y="-8"/>
      <point x="567" y="131"/>
      <point x="567" y="300" type="curve" smooth="yes"/>
      <point x="567" y="410"/>
      <point x="496" y="475"/>
      <point x="404" y="475" type="curve" smooth="yes"/>
      <point x="345" y="475"/>
      <point x="292" y="452"/>
      <point x="223" y="389" type="curve"/>
    </contour>
    <contour>
      <point x="379" y="403" type="curve" smooth="yes"/>
      <point x="436" y="403"/>
      <point x="477" y="362"/>
      <point x="477" y="291" type="curve" smooth="yes"/>
      <point x="477" y="185"/>
      <point x="399" y="63"/>
      <point x="234" y="63" type="curve" smooth="yes"/>
      <point x="195" y="63"/>
      <point x="162" y="70"/>
      <point x="134" y="81" type="curve"/>
      <point x="199" y="305" type="line"/>
      <point x="290" y="387"/>
      <point x="330" y="403"/>
    </contour>
  </outline>
</glyph>
<glyph name="c" format="2">
  <advance width="614"/>
  <unicode hex="0063"/>
  <anchor x="235" y="-15" name="belowcedilla"/>
  <anchor x="393" y="472" name="aboveLCx"/>
  <anchor x="242" y="-38" name="below"/>
  <anchor x="403" y="507" name="aboveLC"/>
  <outline>
    <contour>
      <point x="376" y="407" type="curve" smooth="yes"/>
      <point x="423" y="407"/>
      <point x="463" y="392"/>
      <point x="542" y="345" type="curve"/>
      <point x="582" y="414" type="line"/>
      <point x="499" y="463"/>
      <point x="443" y="480"/>
      <point x="366" y="480" type="curve" smooth="yes"/>
      <point x="283" y="480"/>
      <point x="206" y="444"/>
      <point x="150" y="388" type="curve" smooth="yes"/>
      <point x="85" y="324"/>
      <point x="58" y="243"/>
      <point x="58" y="166" type="curve" smooth="yes"/>
      <point x="58" y="51"/>
      <point x="134" y="-15"/>
      <point x="254" y="-15" type="curve" smooth="yes"/>
      <point x="327" y="-15"/>
      <point x="398" y="-3"/>
      <point x="502" y="49" type="curve"/>
      <point x="473" y="117" type="line"/>
      <point x="373" y="70"/>
      <point x="319" y="58"/>
      <point x="270" y="58" type="curve" smooth="yes"/>
      <point x="197" y="58"/>
      <point x="151" y="103"/>
      <point x="151" y="175" type="curve" smooth="yes"/>
      <point x="151" y="231"/>
      <point x="178" y="298"/>
      <point x="222" y="342" type="curve" smooth="yes"/>
      <point x="262" y="382"/>
      <point x="317" y="407"/>
    </contour>
  </outline>
</glyph>
<glyph name="d" format="2">
  <advance width="614"/>
  <unicode hex="0064"/>
  <anchor x="235" y="-35" name="below"/>
  <anchor x="791" y="788" name="topright"/>
  <outline>
    <contour>
      <point x="389" y="0" type="line"/>
      <point x="456" y="0" type="line"/>
      <point x="659" y="710" type="line"/>
      <point x="574" y="710" type="line"/>
      <point x="502" y="458" type="line"/>
      <point x="464" y="470"/>
      <point x="427" y="475"/>
      <point x="389" y="475" type="curve" smooth="yes"/>
      <point x="178" y="475"/>
      <point x="48" y="336"/>
      <point x="48" y="167" type="curve" smooth="yes"/>
      <point x="48" y="56"/>
      <point x="118" y="-8"/>
      <point x="207" y="-8" type="curve" smooth="yes"/>
      <point x="269" y="-8"/>
      <point x="326" y="16"/>
      <point x="398" y="82" type="curve"/>
    </contour>
    <contour>
      <point x="138" y="175" type="curve" smooth="yes"/>
      <point x="138" y="281"/>
      <point x="219" y="403"/>
      <point x="389" y="403" type="curve" smooth="yes"/>
      <point x="421" y="403"/>
      <point x="452" y="398"/>
      <point x="481" y="386" type="curve"/>
      <point x="416" y="161" type="line"/>
      <point x="324" y="78"/>
      <point x="282" y="63"/>
      <point x="233" y="63" type="curve" smooth="yes"/>
      <point x="178" y="63"/>
      <point x="138" y="105"/>
    </contour>
  </outline>
</glyph>
<glyph name="e" format="2">
  <advance width="614"/>
  <unicode hex="0065"/>
  <anchor x="243" y="-37" name="below"/>
  <anchor x="322" y="-10" name="belowogonek"/>
  <anchor x="386" y="471" name="aboveLCx"/>
  <anchor x="396" y="507" name="aboveLC"/>
  <outline>
    <contour>
      <point x="416" y="62" type="line"/>
      <point x="206" y="62"/>
      <point x="153" y="85"/>
      <point x="153" y="171" type="curve"/>
      <point x="153" y="183" type="line"/>
      <point x="319" y="197" type="line" smooth="yes"/>
      <point x="521" y="215"/>
      <point x="572" y="273"/>
      <point x="572" y="355" type="curve" smooth="yes"/>
      <point x="572" y="429"/>
      <point x="512" y="480"/>
      <point x="402" y="480" type="curve" smooth="yes"/>
      <point x="211" y="480"/>
      <point x="66" y="321"/>
      <point x="66" y="163" type="curve" smooth="yes"/>
      <point x="66" y="40"/>
      <point x="130" y="-7"/>
      <point x="395" y="-7" type="curve"/>
    </contour>
    <contour>
      <point x="397" y="411" type="curve" smooth="yes"/>
      <point x="454" y="411"/>
      <point x="485" y="384"/>
      <point x="485" y="350" type="curve" smooth="yes"/>
      <point x="485" y="309"/>
      <point x="453" y="270"/>
      <point x="317" y="256" type="curve" smooth="yes"/>
      <point x="165" y="241" type="line"/>
      <point x="197" y="337"/>
      <point x="293" y="411"/>
    </contour>
  </outline>
</glyph>
<glyph name="f" format="2">
  <advance width="614"/>
  <unicode hex="0066"/>
  <outline>
    <contour>
      <point x="117" y="388" type="line"/>
      <point x="274" y="388" type="line"/>
      <point x="162" y="0" type="line"/>
      <point x="247" y="0" type="line"/>
      <point x="359" y="388" type="line"/>
      <point x="553" y="388" type="line"/>
      <point x="573" y="460" type="line"/>
      <point x="377" y="460" type="line"/>
      <point x="395" y="522" type="line" smooth="yes"/>
      <point x="418" y="601"/>
      <point x="451" y="632"/>
      <point x="544" y="638" type="curve" smooth="yes"/>
      <point x="666" y="646" type="line"/>
      <point x="666" y="719" type="line"/>
      <point x="557" y="711" type="line" smooth="yes"/>
      <point x="404" y="700"/>
      <point x="350" y="658"/>
      <point x="311" y="520" type="curve" smooth="yes"/>
      <point x="294" y="460" type="line"/>
      <point x="137" y="460" type="line"/>
    </contour>
  </outline>
</glyph>
<glyph name="g" format="2">
  <advance width="614"/>
  <unicode hex="0067"/>
  <anchor x="389" y="504" name="aboveLC"/>
  <anchor x="379" y="469" name="aboveLCx"/>
  <outline>
    <contour>
      <point x="381" y="36" type="line" smooth="yes"/>
      <point x="337" y="-115"/>
      <point x="288" y="-152"/>
      <point x="126" y="-160" type="curve" smooth="yes"/>
      <point x="10" y="-166" type="line"/>
      <point x="10" y="-239" type="line"/>
      <point x="128" y="-232" type="line" smooth="yes"/>
      <point x="348" y="-220"/>
      <point x="408" y="-172"/>
      <point x="466" y="31" type="curve" smooth="yes"/>
      <point x="579" y="429" type="line"/>
      <point x="515" y="460"/>
      <point x="453" y="475"/>
      <point x="389" y="475" type="curve" smooth="yes"/>
      <point x="179" y="475"/>
      <point x="48" y="344"/>
      <point x="48" y="188" type="curve" smooth="yes"/>
      <point x="48" y="80"/>
      <point x="120" y="16"/>
      <point x="211" y="16" type="curve" smooth="yes"/>
      <point x="273" y="16"/>
      <point x="330" y="40"/>
      <point x="401" y="105" type="curve"/>
    </contour>
    <contour>
      <point x="138" y="196" type="curve" smooth="yes"/>
      <point x="138" y="293"/>
      <point x="219" y="403"/>
      <point x="390" y="403" type="curve" smooth="yes"/>
      <point x="422" y="403"/>
      <point x="452" y="398"/>
      <point x="481" y="386" type="curve"/>
      <point x="425" y="189" type="line"/>
      <point x="330" y="103"/>
      <point x="286" y="87"/>
      <point x="236" y="87" type="curve" smooth="yes"/>
      <point x="179" y="87"/>
      <point x="138" y="128"/>
    </contour>
  </outline>
</glyph>
<glyph name="h" format="2">
  <advance width="614"/>
  <unicode hex="0068"/>
  <anchor x="237" y="-35" name="below"/>
  <anchor x="247" y="0" name="belowx"/>
  <anchor x="69" y="-10" name="belowcedilla"/>
  <anchor x="284" y="740" name="aboveLC"/>
  <anchor x="266" y="679" name="aboveLCx"/>
  <outline>
    <contour>
      <point x="318" y="710" type="line"/>
      <point x="233" y="710" type="line"/>
      <point x="29" y="0" type="line"/>
      <point x="114" y="0" type="line"/>
      <point x="180" y="230" type="line"/>
      <point x="332" y="376"/>
      <point x="368" y="394"/>
      <point x="413" y="394" type="curve" smooth="yes"/>
      <point x="444" y="394"/>
      <point x="464" y="379"/>
      <point x="464" y="349" type="curve" smooth="yes"/>
      <point x="464" y="338"/>
      <point x="463" y="324"/>
      <point x="454" y="294" type="curve" smooth="yes"/>
      <point x="369" y="0" type="line"/>
      <point x="455" y="0" type="line"/>
      <point x="541" y="297" type="line" smooth="yes"/>
      <point x="552" y="337"/>
      <point x="556" y="360"/>
      <point x="556" y="376" type="curve" smooth="yes"/>
      <point x="556" y="436"/>
      <point x="513" y="472"/>
      <point x="448" y="472" type="curve" smooth="yes"/>
      <point x="381" y="472"/>
      <point x="335" y="451"/>
      <point x="209" y="332" type="curve"/>
    </contour>
  </outline>
</glyph>
<glyph name="i" format="2">
  <advance width="614"/>
  <unicode hex="0069"/>
  <anchor x="245" y="-35" name="below"/>
  <anchor x="252" y="-10" name="belowogonek"/>
  <outline>
    <contour>
      <point x="409" y="603" type="curve" smooth="yes"/>
      <point x="463" y="603"/>
      <point x="496" y="635"/>
      <point x="496" y="677" type="curve" smooth="yes"/>
      <point x="496" y="711"/>
      <point x="472" y="730"/>
      <point x="427" y="730" type="curve" smooth="yes"/>
      <point x="368" y="730"/>
      <point x="340" y="693"/>
      <point x="340" y="657" type="curve" smooth="yes"/>
      <point x="340" y="621"/>
      <point x="368" y="603"/>
    </contour>
    <contour>
      <point x="68" y="72" type="line"/>
      <point x="47" y="0" type="line"/>
      <point x="465" y="0" type="line"/>
      <point x="485" y="72" type="line"/>
      <point x="310" y="72" type="line"/>
      <point x="445" y="465" type="line"/>
      <point x="201" y="465" type="line"/>
      <point x="180" y="393" type="line"/>
      <point x="335" y="393" type="line"/>
      <point x="225" y="72" type="line"/>
    </contour>
  </outline>
</glyph>
<glyph name="j" format="2">
  <advance width="614"/>
  <unicode hex="006A"/>
  <outline>
    <contour>
      <point x="468" y="603" type="curve" smooth="yes"/>
      <point x="522" y="603"/>
      <point x="555" y="636"/>
      <point x="555" y="677" type="curve" smooth="yes"/>
      <point x="555" y="711"/>
      <point x="531" y="730"/>
      <point x="486" y="730" type="curve" smooth="yes"/>
      <point x="427" y="730"/>
      <point x="399" y="694"/>
      <point x="399" y="657" type="curve" smooth="yes"/>
      <point x="399" y="621"/>
      <point x="426" y="603"/>
    </contour>
    <contour>
      <point x="359" y="17" type="curve" smooth="yes"/>
      <point x="488" y="465" type="line"/>
      <point x="190" y="465" type="line"/>
      <point x="169" y="393" type="line"/>
      <point x="382" y="393" type="line"/>
      <point x="277" y="26" type="line" smooth="yes"/>
      <point x="238" y="-110"/>
      <point x="200" y="-151"/>
      <point x="45" y="-160" type="curve" smooth="yes"/>
      <point x="-31" y="-164" type="line"/>
      <point x="-31" y="-238" type="line"/>
      <point x="46" y="-233" type="line" smooth="yes"/>
      <point x="256" y="-220"/>
      <point x="305" y="-174"/>
    </contour>
  </outline>
</glyph>
<glyph name="l" format="2">
  <advance width="614"/>
  <unicode hex="006C"/>
  <anchor x="227" y="-35" name="below"/>
  <anchor x="428" y="752" name="aboveLC"/>
  <anchor x="418" y="716" name="aboveLCx"/>
  <anchor x="636" y="788" name="topright"/>
  <outline>
    <contour>
      <point x="230" y="254" type="line" smooth="yes"/>
      <point x="208" y="193"/>
      <point x="200" y="156"/>
      <point x="200" y="123" type="curve" smooth="yes"/>
      <point x="200" y="38"/>
      <point x="246" y="-1"/>
      <point x="352" y="-4" type="curve" smooth="yes"/>
      <point x="462" y="-8" type="line"/>
      <point x="483" y="66" type="line"/>
      <point x="369" y="70" type="line" smooth="yes"/>
      <point x="313" y="72"/>
      <point x="288" y="90"/>
      <point x="288" y="139" type="curve" smooth="yes"/>
      <point x="288" y="166"/>
      <point x="293" y="189"/>
      <point x="312" y="243" type="curve" smooth="yes"/>
      <point x="480" y="710" type="line"/>
      <point x="202" y="710" type="line"/>
      <point x="181" y="638" type="line"/>
      <point x="369" y="638" type="line"/>
    </contour>
  </outline>
</glyph>
<glyph name="m" format="2">
  <advance width="614"/>
  <unicode hex="006D"/>
  <anchor x="385" y="502" name="aboveLC"/>
  <anchor x="233" y="-35" name="below"/>
  <outline>
    <contour>
      <point x="184" y="465" type="line"/>
      <point x="120" y="465" type="line"/>
      <point x="-14" y="0" type="line"/>
      <point x="64" y="0" type="line"/>
      <point x="141" y="270" type="line"/>
      <point x="231" y="375"/>
      <point x="258" y="389"/>
      <point x="280" y="389" type="curve" smooth="yes"/>
      <point x="296" y="389"/>
      <point x="305" y="382"/>
      <point x="305" y="365" type="curve" smooth="yes"/>
      <point x="305" y="357"/>
      <point x="303" y="347"/>
      <point x="298" y="332" type="curve" smooth="yes"/>
      <point x="204" y="0" type="line"/>
      <point x="279" y="0" type="line"/>
      <point x="356" y="270" type="line"/>
      <point x="445" y="375"/>
      <point x="472" y="389"/>
      <point x="494" y="389" type="curve" smooth="yes"/>
      <point x="510" y="389"/>
      <point x="519" y="382"/>
      <point x="519" y="365" type="curve" smooth="yes"/>
      <point x="519" y="357"/>
      <point x="517" y="347"/>
      <point x="513" y="332" type="curve" smooth="yes"/>
      <point x="418" y="0" type="line"/>
      <point x="496" y="0" type="line"/>
      <point x="604" y="374" type="line" smooth="yes"/>
      <point x="608" y="390"/>
      <point x="610" y="403"/>
      <point x="610" y="415" type="curve" smooth="yes"/>
      <point x="610" y="451"/>
      <point x="588" y="473"/>
      <point x="547" y="473" type="curve" smooth="yes"/>
      <point x="505" y="473"/>
      <point x="460" y="444"/>
      <point x="375" y="330" type="curve"/>
      <point x="373" y="330" type="line"/>
      <point x="387" y="378" type="line" smooth="yes"/>
      <point x="391" y="392"/>
      <point x="393" y="405"/>
      <point x="393" y="416" type="curve" smooth="yes"/>
      <point x="393" y="452"/>
      <point x="370" y="473"/>
      <point x="331" y="473" type="curve" smooth="yes"/>
      <point x="291" y="473"/>
      <point x="243" y="444"/>
      <point x="157" y="332" type="curve"/>
      <point x="155" y="332" type="line"/>
    </contour>
  </outline>
</glyph>
<glyph name="n" format="2">
  <advance width="614"/>
  <unicode hex="006E"/>
  <anchor x="383" y="502" name="aboveLC"/>
  <anchor x="237" y="-35" name="below"/>
  <anchor x="247" y="0" name="belowx"/>
  <outline>
    <contour>
      <point x="242" y="465" type="line"/>
      <point x="162" y="465" type="line"/>
      <point x="29" y="0" type="line"/>
      <point x="114" y="0" type="line"/>
      <point x="180" y="230" type="line"/>
      <point x="332" y="376"/>
      <point x="368" y="394"/>
      <point x="413" y="394" type="curve" smooth="yes"/>
      <point x="444" y="394"/>
      <point x="464" y="379"/>
      <point x="464" y="349" type="curve" smooth="yes"/>
      <point x="464" y="338"/>
      <point x="463" y="324"/>
      <point x="454" y="294" type="curve" smooth="yes"/>
      <point x="369" y="0" type="line"/>
      <point x="455" y="0" type="line"/>
      <point x="541" y="297" type="line" smooth="yes"/>
      <point x="552" y="337"/>
      <point x="556" y="360"/>
      <point x="556" y="376" type="curve" smooth="yes"/>
      <point x="556" y="436"/>
      <point x="513" y="472"/>
      <point x="448" y="472" type="curve" smooth="yes"/>
      <point x="380" y="472"/>
      <point x="334" y="451"/>
      <point x="205" y="328" type="curve"/>
    </contour>
  </outline>
</glyph>
<glyph name="o" format="2">
  <advance width="614"/>
  <unicode hex="006F"/>
  <anchor x="374" y="507" name="aboveLC"/>
  <anchor x="364" y="472" name="aboveLCx"/>
  <anchor x="243" y="-40" name="below"/>
  <anchor x="245" y="-15" name="belowogonek"/>
  <outline>
    <contour>
      <point x="356" y="480" type="curve" smooth="yes"/>
      <point x="179" y="480"/>
      <point x="52" y="340"/>
      <point x="52" y="188" type="curve" smooth="yes"/>
      <point x="52" y="72"/>
      <point x="132" y="-15"/>
      <point x="258" y="-15" type="curve" smooth="yes"/>
      <point x="435" y="-15"/>
      <point x="562" y="125"/>
      <point x="562" y="277" type="curve" smooth="yes"/>
      <point x="562" y="393"/>
      <point x="482" y="480"/>
    </contour>
    <contour>
      <point x="270" y="56" type="curve" smooth="yes"/>
      <point x="194" y="56"/>
      <point x="140" y="111"/>
      <point x="140" y="190" type="curve" smooth="yes"/>
      <point x="140" y="304"/>
      <point x="233" y="410"/>
      <point x="345" y="410" type="curve" smooth="yes"/>
      <point x="420" y="410"/>
      <point x="474" y="354"/>
      <point x="474" y="276" type="curve" smooth="yes"/>
      <point x="474" y="161"/>
      <point x="381" y="56"/>
    </contour>
  </outline>
</glyph>
<glyph name="p" format="2">
  <advance width="614"/>
  <unicode hex="0070"/>
  <anchor x="402" y="502" name="aboveLC"/>
  <outline>
    <contour>
      <point x="-41" y="-230" type="line"/>
      <point x="45" y="-230" type="line"/>
      <point x="114" y="9" type="line"/>
      <point x="148" y="-2"/>
      <point x="186" y="-8"/>
      <point x="228" y="-8" type="curve" smooth="yes"/>
      <point x="436" y="-8"/>
      <point x="566" y="131"/>
      <point x="566" y="300" type="curve" smooth="yes"/>
      <point x="566" y="412"/>
      <point x="497" y="475"/>
      <point x="402" y="475" type="curve" smooth="yes"/>
      <point x="341" y="475"/>
      <point x="286" y="450"/>
      <point x="215" y="384" type="curve"/>
      <point x="226" y="465" type="line"/>
      <point x="159" y="465" type="line"/>
    </contour>
    <contour>
      <point x="376" y="403" type="curve" smooth="yes"/>
      <point x="434" y="403"/>
      <point x="476" y="362"/>
      <point x="476" y="291" type="curve" smooth="yes"/>
      <point x="476" y="185"/>
      <point x="396" y="63"/>
      <point x="230" y="63" type="curve" smooth="yes"/>
      <point x="193" y="63"/>
      <point x="161" y="70"/>
      <point x="135" y="82" type="curve"/>
      <point x="199" y="307" type="line"/>
      <point x="289" y="387"/>
      <point x="329" y="403"/>
    </contour>
  </outline>
</glyph>
<glyph name="q" format="2">
  <advance width="614"/>
  <unicode hex="0071"/>
  <outline>
    <contour>
      <point x="304" y="-230" type="line"/>
      <point x="390" y="-230" type="line"/>
      <point x="579" y="429" type="line"/>
      <point x="515" y="460"/>
      <point x="453" y="475"/>
      <point x="390" y="475" type="curve" smooth="yes"/>
      <point x="179" y="475"/>
      <point x="49" y="336"/>
      <point x="49" y="167" type="curve" smooth="yes"/>
      <point x="49" y="56"/>
      <point x="118" y="-8"/>
      <point x="207" y="-8" type="curve" smooth="yes"/>
      <point x="268" y="-8"/>
      <point x="323" y="15"/>
      <point x="392" y="77" type="curve"/>
    </contour>
    <contour>
      <point x="138" y="175" type="curve" smooth="yes"/>
      <point x="138" y="281"/>
      <point x="219" y="403"/>
      <point x="390" y="403" type="curve" smooth="yes"/>
      <point x="422" y="403"/>
      <point x="452" y="398"/>
      <point x="481" y="386" type="curve"/>
      <point x="416" y="160" type="line"/>
      <point x="325" y="78"/>
      <point x="282" y="63"/>
      <point x="233" y="63" type="curve" smooth="yes"/>
      <point x="178" y="63"/>
      <point x="138" y="105"/>
    </contour>
  </outline>
</glyph>
<glyph name="r" format="2">
  <advance width="614"/>
  <unicode hex="0072"/>
  <anchor x="376" y="502" name="aboveLC"/>
  <anchor x="163" y="-35" name="below"/>
  <outline>
    <contour>
      <point x="8" y="72" type="line"/>
      <point x="-13" y="0" type="line"/>
      <point x="343" y="0" type="line"/>
      <point x="364" y="72" type="line"/>
      <point x="215" y="72" type="line"/>
      <point x="259" y="226" type="line"/>
      <point x="410" y="363"/>
      <point x="427" y="371"/>
      <point x="515" y="377" type="curve" smooth="yes"/>
      <point x="595" y="381" type="line"/>
      <point x="600" y="469" type="line"/>
      <point x="532" y="466" type="line" smooth="yes"/>
      <point x="444" y="462"/>
      <point x="414" y="446"/>
      <point x="278" y="305" type="curve"/>
      <point x="318" y="465" type="line"/>
      <point x="141" y="465" type="line"/>
      <point x="120" y="393" type="line"/>
      <point x="221" y="393" type="line"/>
      <point x="129" y="72" type="line"/>
    </contour>
  </outline>
</glyph>
<glyph name="s" format="2">
  <advance width="614"/>
  <unicode hex="0073"/>
  <guideline x="246" y="205" angle="219.92905713311168" identifier="MYhE05PKT0"/>
  <anchor x="399" y="507" name="aboveLC"/>
  <anchor x="221" y="-40" name="below"/>
  <anchor x="230" y="-15" name="belowcedilla"/>
  <anchor x="389" y="472" name="aboveLCx"/>
  <outline>
    <contour>
      <point x="493" y="127" type="curve" smooth="yes"/>
      <point x="493" y="189"/>
      <point x="470" y="213"/>
      <point x="359" y="261" type="curve" smooth="yes"/>
      <point x="294" y="289" type="line" smooth="yes"/>
      <point x="236" y="315"/>
      <point x="224" y="325"/>
      <point x="224" y="354" type="curve" smooth="yes"/>
      <point x="224" y="384"/>
      <point x="250" y="405"/>
      <point x="346" y="405" type="curve" smooth="yes"/>
      <point x="395" y="405"/>
      <point x="461" y="397"/>
      <point x="539" y="376" type="curve"/>
      <point x="560" y="447" type="line"/>
      <point x="484" y="466"/>
      <point x="402" y="475"/>
      <point x="348" y="475" type="curve" smooth="yes"/>
      <point x="197" y="475"/>
      <point x="136" y="424"/>
      <point x="136" y="348" type="curve" smooth="yes"/>
      <point x="136" y="294"/>
      <point x="158" y="262"/>
      <point x="269" y="216" type="curve" smooth="yes"/>
      <point x="335" y="188" type="line" smooth="yes"/>
      <point x="393" y="163"/>
      <point x="406" y="149"/>
      <point x="406" y="120" type="curve" smooth="yes"/>
      <point x="406" y="86"/>
      <point x="374" y="60"/>
      <point x="277" y="60" type="curve" smooth="yes"/>
      <point x="218" y="60"/>
      <point x="143" y="69"/>
      <point x="54" y="93" type="curve"/>
      <point x="34" y="20" type="line"/>
      <point x="128" y="-2"/>
      <point x="193" y="-11"/>
      <point x="274" y="-11" type="curve" smooth="yes"/>
      <point x="426" y="-11"/>
      <point x="493" y="48"/>
    </contour>
  </outline>
</glyph>
<glyph name="t" format="2">
  <advance width="614"/>
  <unicode hex="0074"/>
  <anchor x="599" y="788" name="topright"/>
  <anchor x="252" y="-35" name="below"/>
  <anchor x="252" y="-10" name="belowcedilla"/>
  <outline>
    <contour>
      <point x="294" y="229" type="curve" smooth="yes"/>
      <point x="355" y="393" type="line"/>
      <point x="552" y="393" type="line"/>
      <point x="572" y="465" type="line"/>
      <point x="382" y="465" type="line"/>
      <point x="446" y="638" type="line"/>
      <point x="363" y="638" type="line"/>
      <point x="297" y="465" type="line"/>
      <point x="125" y="465" type="line"/>
      <point x="104" y="393" type="line"/>
      <point x="269" y="393" type="line"/>
      <point x="211" y="239" type="line" smooth="yes"/>
      <point x="187" y="174"/>
      <point x="183" y="144"/>
      <point x="183" y="123" type="curve" smooth="yes"/>
      <point x="183" y="45"/>
      <point x="234" y="1"/>
      <point x="348" y="-3" type="curve" smooth="yes"/>
      <point x="454" y="-7" type="line"/>
      <point x="474" y="67" type="line"/>
      <point x="352" y="74" type="line" smooth="yes"/>
      <point x="297" y="77"/>
      <point x="272" y="97"/>
      <point x="272" y="138" type="curve" smooth="yes"/>
      <point x="272" y="155"/>
      <point x="276" y="181"/>
    </contour>
  </outline>
</glyph>
<glyph name="u" format="2">
  <advance width="614"/>
  <unicode hex="0075"/>
  <anchor x="385" y="502" name="aboveLC"/>
  <anchor x="227" y="-35" name="below"/>
  <anchor x="411" y="-10" name="belowogonek"/>
  <anchor x="374" y="463" name="aboveLCx"/>
  <outline>
    <contour>
      <point x="372" y="0" type="line"/>
      <point x="452" y="0" type="line"/>
      <point x="586" y="465" type="line"/>
      <point x="500" y="465" type="line"/>
      <point x="435" y="237" type="line"/>
      <point x="282" y="90"/>
      <point x="246" y="71"/>
      <point x="202" y="71" type="curve" smooth="yes"/>
      <point x="170" y="71"/>
      <point x="150" y="87"/>
      <point x="150" y="116" type="curve" smooth="yes"/>
      <point x="150" y="127"/>
      <point x="152" y="141"/>
      <point x="160" y="171" type="curve" smooth="yes"/>
      <point x="245" y="465" type="line"/>
      <point x="159" y="465" type="line"/>
      <point x="74" y="168" type="line" smooth="yes"/>
      <point x="62" y="128"/>
      <point x="59" y="106"/>
      <point x="59" y="89" type="curve" smooth="yes"/>
      <point x="59" y="30"/>
      <point x="102" y="-7"/>
      <point x="167" y="-7" type="curve" smooth="yes"/>
      <point x="233" y="-7"/>
      <point x="281" y="14"/>
      <point x="408" y="135" type="curve"/>
    </contour>
  </outline>
</glyph>
<glyph name="v" format="2">
  <advance width="614"/>
  <unicode hex="0076"/>
  <anchor x="230" y="-35" name="below"/>
  <outline>
    <contour>
      <point x="122" y="465" type="line"/>
      <point x="190" y="0" type="line"/>
      <point x="291" y="0" type="line"/>
      <point x="625" y="465" type="line"/>
      <point x="527" y="465" type="line"/>
      <point x="257" y="77" type="line"/>
      <point x="210" y="465" type="line"/>
    </contour>
  </outline>
</glyph>
<glyph name="x" format="2">
  <advance width="614"/>
  <unicode hex="0078"/>
  <anchor x="384" y="502" name="aboveLC"/>
  <anchor x="230" y="-35" name="below"/>
  <anchor x="239" y="-2" name="belowx"/>
  <anchor x="374" y="469" name="aboveLCx"/>
  <outline>
    <contour>
      <point x="5" y="0" type="line"/>
      <point x="110" y="0" type="line"/>
      <point x="296" y="189" type="line"/>
      <point x="393" y="0" type="line"/>
      <point x="493" y="0" type="line"/>
      <point x="356" y="235" type="line"/>
      <point x="594" y="465" type="line"/>
      <point x="485" y="465" type="line"/>
      <point x="318" y="295" type="line"/>
      <point x="232" y="465" type="line"/>
      <point x="136" y="465" type="line"/>
      <point x="257" y="247" type="line"/>
    </contour>
  </outline>
</glyph>
<glyph name="y" format="2">
  <advance width="614"/>
  <unicode hex="0079"/>
  <anchor x="384" y="502" name="aboveLC"/>
  <anchor x="402" y="-35" name="below"/>
  <anchor x="375" y="469" name="aboveLCx"/>
  <outline>
    <contour>
      <point x="206" y="-133" type="curve" smooth="yes"/>
      <point x="623" y="465" type="line"/>
      <point x="522" y="465" type="line"/>
      <point x="257" y="73" type="line"/>
      <point x="206" y="465" type="line"/>
      <point x="120" y="465" type="line"/>
      <point x="193" y="-15" type="line"/>
      <point x="140" y="-90" type="line" smooth="yes"/>
      <point x="97" y="-150"/>
      <point x="87" y="-155"/>
      <point x="21" y="-157" type="curve" smooth="yes"/>
      <point x="-83" y="-162" type="line"/>
      <point x="-82" y="-234" type="line"/>
      <point x="26" y="-230" type="line" smooth="yes"/>
      <point x="136" y="-226"/>
      <point x="151" y="-213"/>
    </contour>
  </outline>
</glyph>
<glyph name="braceleft" format="2">
  <advance width="614"/>
  <unicode hex="007B"/>
  <outline>
    <contour>
      <point x="124" y="-34" type="curve" smooth="yes"/>
      <point x="124" y="-70"/>
      <point x="147" y="-97"/>
      <point x="221" y="-108" type="curve" smooth="yes"/>
      <point x="441" y="-139" type="line"/>
      <point x="461" y="-68" type="line"/>
      <point x="249" y="-37" type="line" smooth="yes"/>
      <point x="226" y="-34"/>
      <point x="218" y="-25"/>
      <point x="218" y="-14" type="curve" smooth="yes"/>
      <point x="218" y="-2"/>
      <point x="223" y="6"/>
      <point x="264" y="42" type="curve" smooth="yes"/>
      <point x="326" y="95" type="line" smooth="yes"/>
      <point x="398" y="156"/>
      <point x="409" y="176"/>
      <point x="409" y="201" type="curve" smooth="yes"/>
      <point x="409" y="243"/>
      <point x="386" y="265"/>
      <point x="169" y="324" type="curve"/>
      <point x="169" y="327" type="line"/>
      <point x="477" y="397"/>
      <point x="493" y="436"/>
      <point x="493" y="480" type="curve" smooth="yes"/>
      <point x="493" y="502"/>
      <point x="484" y="522"/>
      <point x="459" y="562" type="curve" smooth="yes"/>
      <point x="426" y="618" type="line" smooth="yes"/>
      <point x="412" y="641"/>
      <point x="409" y="653"/>
      <point x="409" y="662" type="curve" smooth="yes"/>
      <point x="409" y="678"/>
      <point x="418" y="692"/>
      <point x="460" y="698" type="curve" smooth="yes"/>
      <point x="690" y="729" type="line"/>
      <point x="710" y="801" type="line"/>
      <point x="450" y="767" type="line" smooth="yes"/>
      <point x="347" y="753"/>
      <point x="320" y="710"/>
      <point x="320" y="663" type="curve" smooth="yes"/>
      <point x="320" y="642"/>
      <point x="329" y="620"/>
      <point x="348" y="587" type="curve" smooth="yes"/>
      <point x="381" y="532" type="line" smooth="yes"/>
      <point x="395" y="507"/>
      <point x="400" y="494"/>
      <point x="400" y="485" type="curve" smooth="yes"/>
      <point x="400" y="455"/>
      <point x="382" y="438"/>
      <point x="114" y="370" type="curve"/>
      <point x="91" y="292" type="line"/>
      <point x="290" y="237"/>
      <point x="316" y="215"/>
      <point x="316" y="196" type="curve" smooth="yes"/>
      <point x="316" y="180"/>
      <point x="310" y="173"/>
      <point x="265" y="134" type="curve" smooth="yes"/>
      <point x="203" y="79" type="line" smooth="yes"/>
      <point x="138" y="23"/>
      <point x="124" y="-1"/>
    </contour>
  </outline>
</glyph>
<glyph name="braceright" format="2">
  <advance width="614"/>
  <unicode hex="007D"/>
  <outline>
    <contour>
      <point x="355" y="-1" type="curve" smooth="yes"/>
      <point x="355" y="20"/>
      <point x="346" y="42"/>
      <point x="327" y="75" type="curve" smooth="yes"/>
      <point x="294" y="130" type="line" smooth="yes"/>
      <point x="280" y="155"/>
      <point x="275" y="168"/>
      <point x="275" y="177" type="curve" smooth="yes"/>
      <point x="275" y="207"/>
      <point x="293" y="224"/>
      <point x="562" y="292" type="curve"/>
      <point x="584" y="370" type="line"/>
      <point x="385" y="426"/>
      <point x="360" y="447"/>
      <point x="360" y="466" type="curve" smooth="yes"/>
      <point x="360" y="482"/>
      <point x="365" y="489"/>
      <point x="410" y="529" type="curve" smooth="yes"/>
      <point x="473" y="583" type="line" smooth="yes"/>
      <point x="537" y="639"/>
      <point x="551" y="663"/>
      <point x="551" y="696" type="curve" smooth="yes"/>
      <point x="551" y="732"/>
      <point x="528" y="759"/>
      <point x="454" y="770" type="curve" smooth="yes"/>
      <point x="234" y="801" type="line"/>
      <point x="214" y="730" type="line"/>
      <point x="426" y="699" type="line" smooth="yes"/>
      <point x="450" y="696"/>
      <point x="457" y="687"/>
      <point x="457" y="676" type="curve" smooth="yes"/>
      <point x="457" y="664"/>
      <point x="452" y="656"/>
      <point x="411" y="620" type="curve" smooth="yes"/>
      <point x="349" y="567" type="line" smooth="yes"/>
      <point x="277" y="506"/>
      <point x="266" y="486"/>
      <point x="266" y="461" type="curve" smooth="yes"/>
      <point x="266" y="419"/>
      <point x="289" y="397"/>
      <point x="506" y="338" type="curve"/>
      <point x="506" y="335" type="line"/>
      <point x="198" y="265"/>
      <point x="182" y="226"/>
      <point x="182" y="182" type="curve" smooth="yes"/>
      <point x="182" y="160"/>
      <point x="191" y="140"/>
      <point x="216" y="100" type="curve" smooth="yes"/>
      <point x="249" y="44" type="line" smooth="yes"/>
      <point x="263" y="21"/>
      <point x="266" y="9"/>
      <point x="266" y="0" type="curve" smooth="yes"/>
      <point x="266" y="-16"/>
      <point x="257" y="-30"/>
      <point x="215" y="-36" type="curve" smooth="yes"/>
      <point x="-15" y="-67" type="line"/>
      <point x="-35" y="-139" type="line"/>
      <point x="225" y="-105" type="line" smooth="yes"/>
      <point x="328" y="-91"/>
      <point x="355" y="-48"/>
    </contour>
  </outline>
</glyph>
<glyph name="asciitilde" format="2">
  <advance width="614"/>
  <unicode hex="007E"/>
  <outline>
    <contour>
      <point x="343" y="373" type="curve" smooth="yes"/>
      <point x="274" y="431"/>
      <point x="255" y="441"/>
      <point x="226" y="441" type="curve" smooth="yes"/>
      <point x="178" y="441"/>
      <point x="148" y="422"/>
      <point x="48" y="254" type="curve"/>
      <point x="112" y="215" type="line"/>
      <point x="186" y="334"/>
      <point x="201" y="357"/>
      <point x="224" y="357" type="curve" smooth="yes"/>
      <point x="238" y="357"/>
      <point x="247" y="352"/>
      <point x="316" y="294" type="curve" smooth="yes"/>
      <point x="384" y="236"/>
      <point x="404" y="226"/>
      <point x="433" y="226" type="curve" smooth="yes"/>
      <point x="481" y="226"/>
      <point x="511" y="245"/>
      <point x="610" y="413" type="curve"/>
      <point x="546" y="452" type="line"/>
      <point x="473" y="333"/>
      <point x="458" y="310"/>
      <point x="435" y="310" type="curve" smooth="yes"/>
      <point x="421" y="310"/>
      <point x="411" y="315"/>
    </contour>
  </outline>
</glyph>
<glyph name="exclamdown" format="2">
  <advance width="614"/>
  <unicode hex="00A1"/>
  <outline>
    <contour>
      <point x="421" y="596" type="curve" smooth="yes"/>
      <point x="487" y="596"/>
      <point x="516" y="633"/>
      <point x="516" y="675" type="curve" smooth="yes"/>
      <point x="516" y="706"/>
      <point x="492" y="725"/>
      <point x="443" y="725" type="curve" smooth="yes"/>
      <point x="377" y="725"/>
      <point x="349" y="687"/>
      <point x="349" y="646" type="curve" smooth="yes"/>
      <point x="349" y="615"/>
      <point x="372" y="596"/>
    </contour>
    <contour>
      <point x="402" y="468" type="line"/>
      <point x="348" y="468" type="line"/>
      <point x="158" y="0" type="line"/>
      <point x="322" y="0" type="line"/>
    </contour>
  </outline>
</glyph>
<glyph name="cent" format="2">
  <advance width="614"/>
  <unicode hex="00A2"/>
  <outline>
    <contour>
      <point x="171" y="-142" type="line"/>
      <point x="238" y="-142" type="line"/>
      <point x="288" y="1" type="line"/>
      <point x="352" y="4"/>
      <point x="418" y="18"/>
      <point x="509" y="64" type="curve"/>
      <point x="480" y="131" type="line"/>
      <point x="398" y="94"/>
      <point x="348" y="78"/>
      <point x="306" y="74" type="curve"/>
      <point x="423" y="414" type="line"/>
      <point x="456" y="406"/>
      <point x="492" y="389"/>
      <point x="547" y="356" type="curve"/>
      <point x="588" y="424" type="line"/>
      <point x="537" y="455"/>
      <point x="496" y="473"/>
      <point x="454" y="482" type="curve"/>
      <point x="506" y="632" type="line"/>
      <point x="438" y="632" type="line"/>
      <point x="388" y="490" type="line"/>
      <point x="383" y="490"/>
      <point x="378" y="490"/>
      <point x="372" y="490" type="curve" smooth="yes"/>
      <point x="288" y="490"/>
      <point x="211" y="455"/>
      <point x="154" y="398" type="curve" smooth="yes"/>
      <point x="90" y="334"/>
      <point x="63" y="255"/>
      <point x="63" y="179" type="curve" smooth="yes"/>
      <point x="63" y="78"/>
      <point x="123" y="15"/>
      <point x="221" y="3" type="curve"/>
    </contour>
    <contour>
      <point x="157" y="188" type="curve" smooth="yes"/>
      <point x="157" y="243"/>
      <point x="183" y="308"/>
      <point x="227" y="353" type="curve" smooth="yes"/>
      <point x="265" y="390"/>
      <point x="317" y="415"/>
      <point x="372" y="418" type="curve"/>
      <point x="254" y="74" type="line"/>
      <point x="194" y="82"/>
      <point x="157" y="126"/>
    </contour>
  </outline>
</glyph>
<glyph name="sterling" format="2">
  <advance width="614"/>
  <unicode hex="00A3"/>
  <outline>
    <contour>
      <point x="9" y="0" type="line"/>
      <point x="488" y="0" type="line"/>
      <point x="509" y="72" type="line"/>
      <point x="137" y="72" type="line"/>
      <point x="262" y="168"/>
      <point x="306" y="214"/>
      <point x="321" y="252" type="curve"/>
      <point x="517" y="252" type="line"/>
      <point x="532" y="309" type="line"/>
      <point x="329" y="309" type="line"/>
      <point x="324" y="373"/>
      <point x="264" y="414"/>
      <point x="264" y="481" type="curve" smooth="yes"/>
      <point x="264" y="539"/>
      <point x="316" y="598"/>
      <point x="412" y="598" type="curve" smooth="yes"/>
      <point x="488" y="598"/>
      <point x="532" y="567"/>
      <point x="579" y="496" type="curve"/>
      <point x="642" y="547" type="line"/>
      <point x="583" y="630"/>
      <point x="524" y="670"/>
      <point x="416" y="670" type="curve" smooth="yes"/>
      <point x="257" y="670"/>
      <point x="175" y="574"/>
      <point x="175" y="481" type="curve" smooth="yes"/>
      <point x="175" y="388"/>
      <point x="235" y="354"/>
      <point x="248" y="305" type="curve"/>
      <point x="104" y="305" type="line"/>
      <point x="87" y="249" type="line"/>
      <point x="237" y="249" type="line"/>
      <point x="215" y="214"/>
      <point x="156" y="159"/>
      <point x="9" y="47" type="curve"/>
    </contour>
  </outline>
</glyph>
<glyph name="section" format="2">
  <advance width="614"/>
  <unicode hex="00A7"/>
  <outline>
    <contour>
      <point x="43" y="187" type="curve" smooth="yes"/>
      <point x="43" y="135"/>
      <point x="63" y="103"/>
      <point x="163" y="41" type="curve" smooth="yes"/>
      <point x="251" y="-12" type="line" smooth="yes"/>
      <point x="319" y="-54"/>
      <point x="329" y="-70"/>
      <point x="329" y="-99" type="curve" smooth="yes"/>
      <point x="329" y="-142"/>
      <point x="297" y="-168"/>
      <point x="185" y="-168" type="curve" smooth="yes"/>
      <point x="124" y="-168"/>
      <point x="66" y="-159"/>
      <point x="2" y="-141" type="curve"/>
      <point x="-19" y="-214" type="line"/>
      <point x="44" y="-230"/>
      <point x="113" y="-240"/>
      <point x="184" y="-240" type="curve" smooth="yes"/>
      <point x="346" y="-240"/>
      <point x="415" y="-180"/>
      <point x="415" y="-92" type="curve" smooth="yes"/>
      <point x="415" y="-40"/>
      <point x="397" y="-6"/>
      <point x="334" y="36" type="curve"/>
      <point x="534" y="129"/>
      <point x="559" y="174"/>
      <point x="559" y="242" type="curve" smooth="yes"/>
      <point x="559" y="294"/>
      <point x="539" y="327"/>
      <point x="439" y="388" type="curve" smooth="yes"/>
      <point x="351" y="441" type="line" smooth="yes"/>
      <point x="282" y="483"/>
      <point x="272" y="499"/>
      <point x="272" y="528" type="curve" smooth="yes"/>
      <point x="272" y="570"/>
      <point x="305" y="597"/>
      <point x="416" y="597" type="curve" smooth="yes"/>
      <point x="477" y="597"/>
      <point x="535" y="588"/>
      <point x="600" y="570" type="curve"/>
      <point x="620" y="643" type="line"/>
      <point x="558" y="658"/>
      <point x="488" y="669"/>
      <point x="417" y="669" type="curve" smooth="yes"/>
      <point x="256" y="669"/>
      <point x="186" y="608"/>
      <point x="186" y="521" type="curve" smooth="yes"/>
      <point x="186" y="469"/>
      <point x="205" y="435"/>
      <point x="268" y="393" type="curve"/>
      <point x="68" y="300"/>
      <point x="43" y="255"/>
    </contour>
    <contour>
      <point x="237" y="96" type="line" smooth="yes"/>
      <point x="141" y="155"/>
      <point x="130" y="170"/>
      <point x="130" y="201" type="curve" smooth="yes"/>
      <point x="130" y="241"/>
      <point x="146" y="264"/>
      <point x="328" y="356" type="curve"/>
      <point x="365" y="333" type="line" smooth="yes"/>
      <point x="460" y="274"/>
      <point x="471" y="259"/>
      <point x="471" y="228" type="curve" smooth="yes"/>
      <point x="471" y="189"/>
      <point x="456" y="165"/>
      <point x="274" y="73" type="curve"/>
    </contour>
  </outline>
</glyph>
<glyph name="copyright" format="2">
  <advance width="614"/>
  <unicode hex="00A9"/>
  <outline>
    <contour>
      <point x="581" y="310" type="curve" smooth="yes"/>
      <point x="609" y="408"/>
      <point x="623" y="486"/>
      <point x="623" y="546" type="curve" smooth="yes"/>
      <point x="623" y="679"/>
      <point x="553" y="725"/>
      <point x="436" y="725" type="curve" smooth="yes"/>
      <point x="290" y="725"/>
      <point x="171" y="635"/>
      <point x="88" y="346" type="curve" smooth="yes"/>
      <point x="60" y="249"/>
      <point x="47" y="171"/>
      <point x="47" y="111" type="curve" smooth="yes"/>
      <point x="47" y="-23"/>
      <point x="116" y="-70"/>
      <point x="232" y="-70" type="curve" smooth="yes"/>
      <point x="379" y="-70"/>
      <point x="498" y="20"/>
    </contour>
    <contour>
      <point x="134" y="328" type="curve" smooth="yes"/>
      <point x="214" y="606"/>
      <point x="312" y="680"/>
      <point x="433" y="680" type="curve" smooth="yes"/>
      <point x="521" y="680"/>
      <point x="574" y="647"/>
      <point x="574" y="547" type="curve" smooth="yes"/>
      <point x="574" y="492"/>
      <point x="562" y="422"/>
      <point x="535" y="328" type="curve" smooth="yes"/>
      <point x="455" y="50"/>
      <point x="358" y="-25"/>
      <point x="235" y="-25" type="curve" smooth="yes"/>
      <point x="148" y="-25"/>
      <point x="95" y="8"/>
      <point x="95" y="111" type="curve" smooth="yes"/>
      <point x="95" y="166"/>
      <point x="107" y="235"/>
    </contour>
    <contour>
      <point x="282" y="97" type="curve" smooth="yes"/>
      <point x="322" y="97"/>
      <point x="358" y="107"/>
      <point x="424" y="177" type="curve"/>
      <point x="385" y="212" type="line"/>
      <point x="334" y="158"/>
      <point x="312" y="151"/>
      <point x="291" y="151" type="curve" smooth="yes"/>
      <point x="265" y="151"/>
      <point x="250" y="172"/>
      <point x="250" y="218" type="curve" smooth="yes"/>
      <point x="250" y="326"/>
      <point x="325" y="504"/>
      <point x="393" y="504" type="curve" smooth="yes"/>
      <point x="418" y="504"/>
      <point x="430" y="495"/>
      <point x="457" y="444" type="curve"/>
      <point x="506" y="470" type="line"/>
      <point x="472" y="544"/>
      <point x="443" y="558"/>
      <point x="398" y="558" type="curve" smooth="yes"/>
      <point x="285" y="558"/>
      <point x="188" y="363"/>
      <point x="188" y="214" type="curve" smooth="yes"/>
      <point x="188" y="138"/>
      <point x="219" y="97"/>
    </contour>
  </outline>
</glyph>
<glyph name="ordfeminine" format="2">
  <advance width="614"/>
  <unicode hex="00AA"/>
  <outline>
    <contour>
      <point x="503" y="426" type="curve" smooth="yes"/>
      <point x="551" y="571" type="line" smooth="yes"/>
      <point x="557" y="588"/>
      <point x="559" y="602"/>
      <point x="559" y="615" type="curve" smooth="yes"/>
      <point x="559" y="666"/>
      <point x="514" y="692"/>
      <point x="418" y="692" type="curve" smooth="yes"/>
      <point x="370" y="692"/>
      <point x="324" y="688"/>
      <point x="265" y="680" type="curve"/>
      <point x="249" y="620" type="line"/>
      <point x="317" y="631"/>
      <point x="370" y="634"/>
      <point x="399" y="634" type="curve" smooth="yes"/>
      <point x="465" y="634"/>
      <point x="488" y="622"/>
      <point x="488" y="599" type="curve" smooth="yes"/>
      <point x="488" y="591"/>
      <point x="486" y="584"/>
      <point x="482" y="569" type="curve" smooth="yes"/>
      <point x="476" y="550" type="line"/>
      <point x="363" y="540" type="line" smooth="yes"/>
      <point x="260" y="532"/>
      <point x="222" y="520"/>
      <point x="196" y="494" type="curve" smooth="yes"/>
      <point x="172" y="471"/>
      <point x="160" y="433"/>
      <point x="160" y="398" type="curve" smooth="yes"/>
      <point x="160" y="357"/>
      <point x="184" y="325"/>
      <point x="250" y="325" type="curve" smooth="yes"/>
      <point x="310" y="325"/>
      <point x="360" y="340"/>
      <point x="425" y="379" type="curve"/>
      <point x="429" y="379" type="line"/>
      <point x="437" y="350"/>
      <point x="457" y="334"/>
      <point x="499" y="330" type="curve" smooth="yes"/>
      <point x="539" y="326" type="line"/>
      <point x="554" y="376" type="line"/>
      <point x="523" y="381" type="line" smooth="yes"/>
      <point x="506" y="384"/>
      <point x="498" y="387"/>
      <point x="498" y="400" type="curve" smooth="yes"/>
      <point x="498" y="406"/>
      <point x="499" y="413"/>
    </contour>
    <contour>
      <point x="278" y="381" type="curve" smooth="yes"/>
      <point x="242" y="381"/>
      <point x="231" y="393"/>
      <point x="231" y="413" type="curve" smooth="yes"/>
      <point x="231" y="431"/>
      <point x="239" y="453"/>
      <point x="253" y="467" type="curve" smooth="yes"/>
      <point x="267" y="482"/>
      <point x="303" y="487"/>
      <point x="372" y="493" type="curve" smooth="yes"/>
      <point x="461" y="501" type="line"/>
      <point x="439" y="432" type="line"/>
      <point x="380" y="394"/>
      <point x="321" y="381"/>
    </contour>
    <contour>
      <point x="125" y="236" type="line"/>
      <point x="108" y="179" type="line"/>
      <point x="490" y="179" type="line"/>
      <point x="506" y="236" type="line"/>
    </contour>
  </outline>
</glyph>
<glyph name="registered" format="2">
  <advance width="614"/>
  <unicode hex="00AE"/>
  <outline>
    <contour>
      <point x="324" y="208" type="curve" smooth="yes"/>
      <point x="513" y="208"/>
      <point x="626" y="383"/>
      <point x="626" y="537" type="curve" smooth="yes"/>
      <point x="626" y="655"/>
      <point x="552" y="725"/>
      <point x="423" y="725" type="curve" smooth="yes"/>
      <point x="235" y="725"/>
      <point x="122" y="550"/>
      <point x="122" y="396" type="curve" smooth="yes"/>
      <point x="122" y="278"/>
      <point x="195" y="208"/>
    </contour>
    <contour>
      <point x="422" y="689" type="curve" smooth="yes"/>
      <point x="528" y="689"/>
      <point x="586" y="634"/>
      <point x="586" y="535" type="curve" smooth="yes"/>
      <point x="586" y="402"/>
      <point x="484" y="243"/>
      <point x="323" y="243" type="curve" smooth="yes"/>
      <point x="220" y="243"/>
      <point x="163" y="299"/>
      <point x="163" y="398" type="curve" smooth="yes"/>
      <point x="163" y="531"/>
      <point x="264" y="689"/>
    </contour>
    <contour>
      <point x="467" y="345" type="line"/>
      <point x="431" y="409" type="line" smooth="yes"/>
      <point x="416" y="435"/>
      <point x="407" y="444"/>
      <point x="392" y="453" type="curve"/>
      <point x="392" y="456" type="line"/>
      <point x="475" y="461"/>
      <point x="509" y="492"/>
      <point x="509" y="542" type="curve" smooth="yes"/>
      <point x="509" y="580"/>
      <point x="481" y="604"/>
      <point x="430" y="604" type="curve" smooth="yes"/>
      <point x="323" y="604" type="line"/>
      <point x="248" y="343" type="line"/>
      <point x="296" y="343" type="line"/>
      <point x="326" y="449" type="line"/>
      <point x="352" y="447"/>
      <point x="360" y="438"/>
      <point x="375" y="410" type="curve" smooth="yes"/>
      <point x="410" y="343" type="line"/>
      <point x="467" y="343" type="line"/>
    </contour>
    <contour>
      <point x="417" y="563" type="line" smooth="yes"/>
      <point x="445" y="563"/>
      <point x="458" y="552"/>
      <point x="458" y="534" type="curve" smooth="yes"/>
      <point x="458" y="507"/>
      <point x="434" y="486"/>
      <point x="365" y="484" type="curve" smooth="yes"/>
      <point x="336" y="482" type="line"/>
      <point x="359" y="563" type="line"/>
    </contour>
  </outline>
</glyph>
<glyph name="degree" format="2">
  <advance width="614"/>
  <unicode hex="00B0"/>
  <outline>
    <contour>
      <point x="355" y="290" type="curve" smooth="yes"/>
      <point x="494" y="290"/>
      <point x="595" y="404"/>
      <point x="595" y="530" type="curve" smooth="yes"/>
      <point x="595" y="626"/>
      <point x="524" y="692"/>
      <point x="408" y="692" type="curve" smooth="yes"/>
      <point x="269" y="692"/>
      <point x="168" y="579"/>
      <point x="168" y="453" type="curve" smooth="yes"/>
      <point x="168" y="357"/>
      <point x="239" y="290"/>
    </contour>
    <contour>
      <point x="410" y="631" type="curve" smooth="yes"/>
      <point x="480" y="631"/>
      <point x="523" y="589"/>
      <point x="523" y="528" type="curve" smooth="yes"/>
      <point x="523" y="436"/>
      <point x="447" y="351"/>
      <point x="353" y="351" type="curve" smooth="yes"/>
      <point x="283" y="351"/>
      <point x="240" y="393"/>
      <point x="240" y="454" type="curve" smooth="yes"/>
      <point x="240" y="546"/>
      <point x="315" y="631"/>
    </contour>
  </outline>
</glyph>
<glyph name="mu" format="2">
  <advance width="614"/>
  <unicode hex="00B5"/>
  <outline>
    <contour>
      <point x="181" y="-8" type="curve" smooth="yes"/>
      <point x="242" y="-8"/>
      <point x="282" y="15"/>
      <point x="408" y="135" type="curve"/>
      <point x="372" y="0" type="line"/>
      <point x="452" y="0" type="line"/>
      <point x="586" y="465" type="line"/>
      <point x="500" y="465" type="line"/>
      <point x="435" y="237" type="line"/>
      <point x="284" y="92"/>
      <point x="251" y="71"/>
      <point x="208" y="71" type="curve" smooth="yes"/>
      <point x="168" y="71"/>
      <point x="150" y="87"/>
      <point x="150" y="118" type="curve" smooth="yes"/>
      <point x="150" y="130"/>
      <point x="152" y="142"/>
      <point x="156" y="156" type="curve" smooth="yes"/>
      <point x="245" y="465" type="line"/>
      <point x="159" y="465" type="line"/>
      <point x="-40" y="-230" type="line"/>
      <point x="48" y="-230" type="line"/>
      <point x="52" y="-215" type="line"/>
      <point x="106" y="33" type="line"/>
      <point x="121" y="5"/>
      <point x="150" y="-8"/>
    </contour>
  </outline>
</glyph>
<glyph name="paragraph" format="2">
  <advance width="614"/>
  <unicode hex="00B6"/>
  <outline>
    <contour>
      <point x="342" y="280" type="line"/>
      <point x="432" y="591" type="line"/>
      <point x="533" y="591" type="line"/>
      <point x="364" y="0" type="line"/>
      <point x="445" y="0" type="line"/>
      <point x="633" y="655" type="line"/>
      <point x="432" y="655" type="line" smooth="yes"/>
      <point x="225" y="655"/>
      <point x="140" y="553"/>
      <point x="140" y="422" type="curve" smooth="yes"/>
      <point x="140" y="329"/>
      <point x="207" y="280"/>
      <point x="338" y="280" type="curve" smooth="yes"/>
    </contour>
  </outline>
</glyph>
<glyph name="ordmasculine" format="2">
  <advance width="614"/>
  <unicode hex="00BA"/>
  <outline>
    <contour>
      <point x="419" y="692" type="curve" smooth="yes"/>
      <point x="291" y="692"/>
      <point x="189" y="596"/>
      <point x="189" y="471" type="curve" smooth="yes"/>
      <point x="189" y="379"/>
      <point x="259" y="323"/>
      <point x="353" y="323" type="curve" smooth="yes"/>
      <point x="480" y="323"/>
      <point x="583" y="419"/>
      <point x="583" y="544" type="curve" smooth="yes"/>
      <point x="583" y="636"/>
      <point x="513" y="692"/>
    </contour>
    <contour>
      <point x="358" y="382" type="curve" smooth="yes"/>
      <point x="294" y="382"/>
      <point x="259" y="422"/>
      <point x="259" y="474" type="curve" smooth="yes"/>
      <point x="259" y="564"/>
      <point x="333" y="632"/>
      <point x="414" y="632" type="curve" smooth="yes"/>
      <point x="478" y="632"/>
      <point x="513" y="593"/>
      <point x="513" y="541" type="curve" smooth="yes"/>
      <point x="513" y="451"/>
      <point x="439" y="382"/>
    </contour>
    <contour>
      <point x="127" y="236" type="line"/>
      <point x="111" y="179" type="line"/>
      <point x="479" y="179" type="line"/>
      <point x="495" y="236" type="line"/>
    </contour>
  </outline>
</glyph>
<glyph name="questiondown" format="2">
  <advance width="614"/>
  <unicode hex="00BF"/>
  <outline>
    <contour>
      <point x="485" y="596" type="curve" smooth="yes"/>
      <point x="552" y="596"/>
      <point x="580" y="633"/>
      <point x="580" y="675" type="curve" smooth="yes"/>
      <point x="580" y="706"/>
      <point x="557" y="725"/>
      <point x="508" y="725" type="curve" smooth="yes"/>
      <point x="441" y="725"/>
      <point x="413" y="688"/>
      <point x="413" y="646" type="curve" smooth="yes"/>
      <point x="413" y="615"/>
      <point x="436" y="596"/>
    </contour>
    <contour>
      <point x="417" y="468" type="line"/>
      <point x="389" y="397"/>
      <point x="382" y="389"/>
      <point x="350" y="377" type="curve" smooth="yes"/>
      <point x="245" y="335" type="line" smooth="yes"/>
      <point x="96" y="276"/>
      <point x="57" y="217"/>
      <point x="57" y="129" type="curve" smooth="yes"/>
      <point x="57" y="41"/>
      <point x="126" y="-15"/>
      <point x="230" y="-15" type="curve" smooth="yes"/>
      <point x="313" y="-15"/>
      <point x="381" y="3"/>
      <point x="521" y="78" type="curve"/>
      <point x="492" y="144" type="line"/>
      <point x="346" y="70"/>
      <point x="299" y="57"/>
      <point x="246" y="57" type="curve" smooth="yes"/>
      <point x="186" y="57"/>
      <point x="149" y="86"/>
      <point x="149" y="140" type="curve" smooth="yes"/>
      <point x="149" y="189"/>
      <point x="172" y="228"/>
      <point x="276" y="269" type="curve" smooth="yes"/>
      <point x="391" y="313" type="line" smooth="yes"/>
      <point x="438" y="332"/>
      <point x="450" y="343"/>
      <point x="457" y="367" type="curve" smooth="yes"/>
      <point x="461" y="381"/>
      <point x="465" y="404"/>
      <point x="472" y="468" type="curve"/>
    </contour>
  </outline>
</glyph>
<glyph name="Aring" format="2">
  <advance width="614"/>
  <unicode hex="00C5"/>
  <outline>
    <contour>
      <point x="67" y="0" type="line"/>
      <point x="174" y="178" type="line"/>
      <point x="417" y="178" type="line"/>
      <point x="423" y="0" type="line"/>
      <point x="508" y="0" type="line"/>
      <point x="484" y="595" type="line"/>
      <point x="565" y="612"/>
      <point x="602" y="668"/>
      <point x="602" y="726" type="curve" smooth="yes"/>
      <point x="602" y="790"/>
      <point x="544" y="829"/>
      <point x="457" y="829" type="curve" smooth="yes"/>
      <point x="337" y="829"/>
      <point x="283" y="763"/>
      <point x="283" y="692" type="curve" smooth="yes"/>
      <point x="283" y="652"/>
      <point x="306" y="622"/>
      <point x="344" y="605" type="curve"/>
      <point x="-26" y="0" type="line"/>
    </contour>
    <contour>
      <point x="448" y="775" type="curve" smooth="yes"/>
      <point x="508" y="775"/>
      <point x="538" y="755"/>
      <point x="538" y="723" type="curve" smooth="yes"/>
      <point x="538" y="683"/>
      <point x="505" y="644"/>
      <point x="438" y="644" type="curve" smooth="yes"/>
      <point x="378" y="644"/>
      <point x="348" y="663"/>
      <point x="348" y="695" type="curve" smooth="yes"/>
      <point x="348" y="735"/>
      <point x="380" y="775"/>
    </contour>
    <contour>
      <point x="215" y="248" type="line"/>
      <point x="407" y="570" type="line"/>
      <point x="417" y="248" type="line"/>
    </contour>
  </outline>
</glyph>
<glyph name="Ccedilla" format="2">
  <advance width="614"/>
  <unicode hex="00C7"/>
  <outline>
    <contour>
      <point x="381" y="-148" type="curve" smooth="yes"/>
      <point x="381" y="-105"/>
      <point x="359" y="-82"/>
      <point x="251" y="-65" type="curve"/>
      <point x="281" y="-15" type="line"/>
      <point x="356" y="-13"/>
      <point x="424" y="9"/>
      <point x="526" y="75" type="curve"/>
      <point x="486" y="138" type="line"/>
      <point x="388" y="78"/>
      <point x="332" y="57"/>
      <point x="275" y="57" type="curve" smooth="yes"/>
      <point x="208" y="57"/>
      <point x="156" y="105"/>
      <point x="156" y="204" type="curve" smooth="yes"/>
      <point x="156" y="404"/>
      <point x="279" y="598"/>
      <point x="443" y="598" type="curve" smooth="yes"/>
      <point x="496" y="598"/>
      <point x="535" y="585"/>
      <point x="608" y="518" type="curve"/>
      <point x="659" y="581" type="line"/>
      <point x="581" y="651"/>
      <point x="527" y="670"/>
      <point x="448" y="670" type="curve" smooth="yes"/>
      <point x="215" y="670"/>
      <point x="66" y="431"/>
      <point x="66" y="201" type="curve" smooth="yes"/>
      <point x="66" y="73"/>
      <point x="124" y="1"/>
      <point x="233" y="-13" type="curve"/>
      <point x="176" y="-102" type="line"/>
      <point x="179" y="-112" type="line"/>
      <point x="284" y="-122"/>
      <point x="307" y="-133"/>
      <point x="307" y="-155" type="curve" smooth="yes"/>
      <point x="307" y="-184"/>
      <point x="289" y="-199"/>
      <point x="90" y="-216" type="curve"/>
      <point x="90" y="-270" type="line"/>
      <point x="359" y="-246"/>
      <point x="381" y="-207"/>
    </contour>
  </outline>
</glyph>
<glyph name="Eth" format="2">
  <advance width="614"/>
  <unicode hex="00D0"/>
  <outline>
    <contour>
      <point x="50" y="303" type="line"/>
      <point x="134" y="303" type="line"/>
      <point x="47" y="0" type="line"/>
      <point x="126" y="0" type="line" smooth="yes"/>
      <point x="297" y="0"/>
      <point x="413" y="53"/>
      <point x="491" y="131" type="curve" smooth="yes"/>
      <point x="569" y="209"/>
      <point x="608" y="310"/>
      <point x="608" y="422" type="curve" smooth="yes"/>
      <point x="608" y="491"/>
      <point x="588" y="545"/>
      <point x="550" y="583" type="curve" smooth="yes"/>
      <point x="501" y="632"/>
      <point x="428" y="655"/>
      <point x="320" y="655" type="curve" smooth="yes"/>
      <point x="235" y="655" type="line"/>
      <point x="149" y="357" type="line"/>
      <point x="66" y="357" type="line"/>
    </contour>
    <contour>
      <point x="342" y="303" type="line"/>
      <point x="358" y="357" type="line"/>
      <point x="236" y="357" type="line"/>
      <point x="301" y="583" type="line"/>
      <point x="335" y="583" type="line" smooth="yes"/>
      <point x="461" y="583"/>
      <point x="518" y="528"/>
      <point x="518" y="424" type="curve" smooth="yes"/>
      <point x="518" y="234"/>
      <point x="382" y="75"/>
      <point x="154" y="72" type="curve"/>
      <point x="220" y="303" type="line"/>
    </contour>
  </outline>
</glyph>
<glyph name="Oslash" format="2">
  <advance width="614"/>
  <unicode hex="00D8"/>
  <outline>
    <contour>
      <point x="407" y="670" type="curve" smooth="yes"/>
      <point x="255" y="670"/>
      <point x="134" y="545"/>
      <point x="82" y="365" type="curve" smooth="yes"/>
      <point x="64" y="301"/>
      <point x="59" y="250"/>
      <point x="59" y="202" type="curve" smooth="yes"/>
      <point x="59" y="155"/>
      <point x="69" y="115"/>
      <point x="86" y="83" type="curve"/>
      <point x="-56" y="-71" type="line"/>
      <point x="29" y="-71" type="line"/>
      <point x="120" y="38" type="line"/>
      <point x="156" y="3"/>
      <point x="206" y="-15"/>
      <point x="263" y="-15" type="curve" smooth="yes"/>
      <point x="415" y="-15"/>
      <point x="536" y="110"/>
      <point x="588" y="290" type="curve" smooth="yes"/>
      <point x="606" y="354"/>
      <point x="611" y="405"/>
      <point x="611" y="453" type="curve" smooth="yes"/>
      <point x="611" y="501"/>
      <point x="601" y="542"/>
      <point x="584" y="574" type="curve"/>
      <point x="725" y="726" type="line"/>
      <point x="639" y="726" type="line"/>
      <point x="550" y="618" type="line"/>
      <point x="514" y="652"/>
      <point x="465" y="670"/>
    </contour>
    <contour>
      <point x="148" y="201" type="curve" smooth="yes"/>
      <point x="148" y="245"/>
      <point x="155" y="300"/>
      <point x="172" y="359" type="curve" smooth="yes"/>
      <point x="213" y="502"/>
      <point x="297" y="598"/>
      <point x="402" y="598" type="curve" smooth="yes"/>
      <point x="442" y="598"/>
      <point x="475" y="584"/>
      <point x="496" y="555" type="curve"/>
      <point x="152" y="153" type="line"/>
      <point x="150" y="167"/>
      <point x="148" y="183"/>
    </contour>
    <contour>
      <point x="268" y="57" type="curve" smooth="yes"/>
      <point x="227" y="57"/>
      <point x="194" y="71"/>
      <point x="174" y="101" type="curve"/>
      <point x="517" y="504" type="line"/>
      <point x="520" y="489"/>
      <point x="522" y="473"/>
      <point x="522" y="454" type="curve" smooth="yes"/>
      <point x="522" y="410"/>
      <point x="515" y="355"/>
      <point x="498" y="296" type="curve" smooth="yes"/>
      <point x="457" y="153"/>
      <point x="373" y="57"/>
    </contour>
  </outline>
</glyph>
<glyph name="Thorn" format="2">
  <advance width="614"/>
  <unicode hex="00DE"/>
  <outline>
    <contour>
      <point x="217" y="655" type="line"/>
      <point x="29" y="0" type="line"/>
      <point x="116" y="0" type="line"/>
      <point x="158" y="148" type="line"/>
      <point x="315" y="148" type="line" smooth="yes"/>
      <point x="422" y="148"/>
      <point x="496" y="166"/>
      <point x="548" y="219" type="curve" smooth="yes"/>
      <point x="585" y="255"/>
      <point x="604" y="306"/>
      <point x="604" y="360" type="curve" smooth="yes"/>
      <point x="604" y="444"/>
      <point x="546" y="507"/>
      <point x="421" y="507" type="curve" smooth="yes"/>
      <point x="262" y="507" type="line"/>
      <point x="304" y="655" type="line"/>
    </contour>
    <contour>
      <point x="409" y="434" type="line" smooth="yes"/>
      <point x="478" y="434"/>
      <point x="514" y="409"/>
      <point x="514" y="357" type="curve" smooth="yes"/>
      <point x="514" y="285"/>
      <point x="460" y="219"/>
      <point x="336" y="219" type="curve" smooth="yes"/>
      <point x="179" y="219" type="line"/>
      <point x="241" y="434" type="line"/>
    </contour>
  </outline>
</glyph>
<glyph name="germandbls" format="2">
  <advance width="614"/>
  <unicode hex="00DF"/>
  <outline>
    <contour>
      <point x="353" y="75" type="curve" smooth="yes"/>
      <point x="267" y="68" type="line"/>
      <point x="267" y="-5" type="line"/>
      <point x="345" y="0" type="line" smooth="yes"/>
      <point x="495" y="9"/>
      <point x="542" y="76"/>
      <point x="542" y="168" type="curve" smooth="yes"/>
      <point x="542" y="215"/>
      <point x="518" y="265"/>
      <point x="433" y="355" type="curve"/>
      <point x="607" y="487"/>
      <point x="622" y="535"/>
      <point x="622" y="595" type="curve" smooth="yes"/>
      <point x="622" y="667"/>
      <point x="567" y="725"/>
      <point x="448" y="725" type="curve" smooth="yes"/>
      <point x="301" y="725"/>
      <point x="209" y="645"/>
      <point x="166" y="494" type="curve" smooth="yes"/>
      <point x="25" y="0" type="line"/>
      <point x="110" y="0" type="line"/>
      <point x="249" y="485" type="line" smooth="yes"/>
      <point x="279" y="590"/>
      <point x="348" y="653"/>
      <point x="444" y="653" type="curve" smooth="yes"/>
      <point x="501" y="653"/>
      <point x="532" y="627"/>
      <point x="532" y="587" type="curve" smooth="yes"/>
      <point x="532" y="538"/>
      <point x="518" y="510"/>
      <point x="350" y="378" type="curve"/>
      <point x="340" y="343" type="line"/>
      <point x="429" y="250"/>
      <point x="453" y="205"/>
      <point x="453" y="170" type="curve" smooth="yes"/>
      <point x="453" y="115"/>
      <point x="423" y="80"/>
    </contour>
  </outline>
</glyph>
<glyph name="ae" format="2">
  <advance width="614"/>
  <unicode hex="00E6"/>
  <outline>
    <contour>
      <point x="327" y="150" type="curve" smooth="yes"/>
      <point x="327" y="169"/>
      <point x="329" y="189"/>
      <point x="334" y="210" type="curve"/>
      <point x="571" y="231"/>
      <point x="609" y="296"/>
      <point x="609" y="376" type="curve" smooth="yes"/>
      <point x="609" y="439"/>
      <point x="569" y="475"/>
      <point x="503" y="475" type="curve" smooth="yes"/>
      <point x="459" y="475"/>
      <point x="409" y="453"/>
      <point x="365" y="404" type="curve"/>
      <point x="359" y="454"/>
      <point x="333" y="475"/>
      <point x="256" y="475" type="curve" smooth="yes"/>
      <point x="215" y="475"/>
      <point x="173" y="470"/>
      <point x="129" y="461" type="curve"/>
      <point x="108" y="394" type="line"/>
      <point x="168" y="405"/>
      <point x="204" y="410"/>
      <point x="243" y="410" type="curve" smooth="yes"/>
      <point x="278" y="410"/>
      <point x="293" y="397"/>
      <point x="293" y="365" type="curve" smooth="yes"/>
      <point x="293" y="354"/>
      <point x="290" y="340"/>
      <point x="269" y="264" type="curve"/>
      <point x="109" y="253"/>
      <point x="65" y="238"/>
      <point x="35" y="208" type="curve" smooth="yes"/>
      <point x="4" y="177"/>
      <point x="-8" y="132"/>
      <point x="-8" y="92" type="curve" smooth="yes"/>
      <point x="-8" y="39"/>
      <point x="16" y="-5"/>
      <point x="99" y="-5" type="curve" smooth="yes"/>
      <point x="143" y="-5"/>
      <point x="176" y="4"/>
      <point x="257" y="57" type="curve"/>
      <point x="263" y="57" type="line"/>
      <point x="289" y="13"/>
      <point x="345" y="-5"/>
      <point x="455" y="-5" type="curve"/>
      <point x="476" y="59" type="line"/>
      <point x="363" y="59"/>
      <point x="327" y="80"/>
    </contour>
    <contour>
      <point x="483" y="409" type="curve" smooth="yes"/>
      <point x="511" y="409"/>
      <point x="527" y="397"/>
      <point x="527" y="367" type="curve" smooth="yes"/>
      <point x="527" y="325"/>
      <point x="497" y="279"/>
      <point x="350" y="263" type="curve"/>
      <point x="379" y="340"/>
      <point x="432" y="409"/>
    </contour>
    <contour>
      <point x="127" y="60" type="curve" smooth="yes"/>
      <point x="84" y="60"/>
      <point x="73" y="76"/>
      <point x="73" y="104" type="curve" smooth="yes"/>
      <point x="73" y="129"/>
      <point x="80" y="153"/>
      <point x="97" y="169" type="curve" smooth="yes"/>
      <point x="114" y="186"/>
      <point x="134" y="197"/>
      <point x="253" y="209" type="curve"/>
      <point x="247" y="185"/>
      <point x="244" y="167"/>
      <point x="244" y="149" type="curve" smooth="yes"/>
      <point x="244" y="135"/>
      <point x="245" y="122"/>
      <point x="246" y="110" type="curve"/>
      <point x="185" y="71"/>
      <point x="154" y="60"/>
    </contour>
  </outline>
</glyph>
<glyph name="ccedilla" format="2">
  <advance width="614"/>
  <unicode hex="00E7"/>
  <outline>
    <contour>
      <point x="376" y="407" type="curve" smooth="yes"/>
      <point x="423" y="407"/>
      <point x="463" y="392"/>
      <point x="542" y="345" type="curve"/>
      <point x="582" y="414" type="line"/>
      <point x="499" y="463"/>
      <point x="443" y="480"/>
      <point x="366" y="480" type="curve" smooth="yes"/>
      <point x="283" y="480"/>
      <point x="206" y="444"/>
      <point x="150" y="388" type="curve" smooth="yes"/>
      <point x="85" y="324"/>
      <point x="58" y="243"/>
      <point x="58" y="166" type="curve" smooth="yes"/>
      <point x="58" y="66"/>
      <point x="115" y="3"/>
      <point x="209" y="-12" type="curve"/>
      <point x="151" y="-102" type="line"/>
      <point x="154" y="-112" type="line"/>
      <point x="259" y="-122"/>
      <point x="282" y="-133"/>
      <point x="282" y="-155" type="curve" smooth="yes"/>
      <point x="282" y="-184"/>
      <point x="264" y="-199"/>
      <point x="65" y="-216" type="curve"/>
      <point x="65" y="-270" type="line"/>
      <point x="334" y="-246"/>
      <point x="356" y="-207"/>
      <point x="356" y="-148" type="curve" smooth="yes"/>
      <point x="356" y="-105"/>
      <point x="334" y="-82"/>
      <point x="226" y="-65" type="curve"/>
      <point x="256" y="-15" type="line"/>
      <point x="327" y="-15"/>
      <point x="398" y="-3"/>
      <point x="502" y="49" type="curve"/>
      <point x="473" y="117" type="line"/>
      <point x="373" y="70"/>
      <point x="319" y="58"/>
      <point x="270" y="58" type="curve" smooth="yes"/>
      <point x="197" y="58"/>
      <point x="151" y="103"/>
      <point x="151" y="175" type="curve" smooth="yes"/>
      <point x="151" y="231"/>
      <point x="178" y="298"/>
      <point x="222" y="342" type="curve" smooth="yes"/>
      <point x="262" y="382"/>
      <point x="317" y="407"/>
    </contour>
  </outline>
</glyph>
<glyph name="eth" format="2">
  <advance width="614"/>
  <unicode hex="00F0"/>
  <outline>
    <contour>
      <point x="575" y="748" type="line"/>
      <point x="470" y="668" type="line"/>
      <point x="432" y="694"/>
      <point x="385" y="714"/>
      <point x="329" y="725" type="curve"/>
      <point x="293" y="664" type="line"/>
      <point x="341" y="653"/>
      <point x="379" y="636"/>
      <point x="409" y="617" type="curve"/>
      <point x="278" y="522" type="line"/>
      <point x="310" y="480" type="line"/>
      <point x="449" y="585" type="line"/>
      <point x="493" y="541"/>
      <point x="506" y="488"/>
      <point x="506" y="440" type="curve" smooth="yes"/>
      <point x="506" y="420"/>
      <point x="504" y="398"/>
      <point x="501" y="374" type="curve"/>
      <point x="435" y="413"/>
      <point x="383" y="424"/>
      <point x="324" y="424" type="curve" smooth="yes"/>
      <point x="141" y="424"/>
      <point x="47" y="290"/>
      <point x="47" y="157" type="curve" smooth="yes"/>
      <point x="47" y="49"/>
      <point x="121" y="-15"/>
      <point x="245" y="-15" type="curve" smooth="yes"/>
      <point x="325" y="-15"/>
      <point x="401" y="19"/>
      <point x="461" y="78" type="curve" smooth="yes"/>
      <point x="550" y="167"/>
      <point x="590" y="310"/>
      <point x="590" y="430" type="curve" smooth="yes"/>
      <point x="590" y="510"/>
      <point x="563" y="582"/>
      <point x="509" y="635" type="curve"/>
      <point x="607" y="707" type="line"/>
    </contour>
    <contour>
      <point x="137" y="162" type="curve" smooth="yes"/>
      <point x="137" y="264"/>
      <point x="216" y="357"/>
      <point x="340" y="357" type="curve" smooth="yes"/>
      <point x="385" y="357"/>
      <point x="426" y="349"/>
      <point x="487" y="311" type="curve"/>
      <point x="467" y="237"/>
      <point x="433" y="166"/>
      <point x="388" y="121" type="curve" smooth="yes"/>
      <point x="346" y="79"/>
      <point x="296" y="57"/>
      <point x="247" y="57" type="curve" smooth="yes"/>
      <point x="179" y="57"/>
      <point x="137" y="96"/>
    </contour>
  </outline>
</glyph>
<glyph name="divide" format="2">
  <advance width="614"/>
  <unicode hex="00F7"/>
  <outline>
    <contour>
      <point x="384" y="472" type="curve" smooth="yes"/>
      <point x="437" y="472"/>
      <point x="467" y="505"/>
      <point x="467" y="548" type="curve" smooth="yes"/>
      <point x="467" y="576"/>
      <point x="447" y="592"/>
      <point x="406" y="592" type="curve" smooth="yes"/>
      <point x="350" y="592"/>
      <point x="322" y="556"/>
      <point x="322" y="515" type="curve" smooth="yes"/>
      <point x="322" y="487"/>
      <point x="343" y="472"/>
    </contour>
    <contour>
      <point x="87" y="292" type="line"/>
      <point x="561" y="292" type="line"/>
      <point x="582" y="363" type="line"/>
      <point x="107" y="363" type="line"/>
    </contour>
    <contour>
      <point x="265" y="63" type="curve" smooth="yes"/>
      <point x="318" y="63"/>
      <point x="348" y="97"/>
      <point x="348" y="140" type="curve" smooth="yes"/>
      <point x="348" y="168"/>
      <point x="328" y="184"/>
      <point x="287" y="184" type="curve" smooth="yes"/>
      <point x="231" y="184"/>
      <point x="203" y="147"/>
      <point x="203" y="107" type="curve" smooth="yes"/>
      <point x="203" y="78"/>
      <point x="224" y="63"/>
    </contour>
  </outline>
</glyph>
<glyph name="oslash" format="2">
  <advance width="614"/>
  <unicode hex="00F8"/>
  <outline>
    <contour>
      <point x="356" y="480" type="curve" smooth="yes"/>
      <point x="179" y="480"/>
      <point x="52" y="340"/>
      <point x="52" y="188" type="curve" smooth="yes"/>
      <point x="52" y="141"/>
      <point x="67" y="99"/>
      <point x="92" y="64" type="curve"/>
      <point x="-50" y="-71" type="line"/>
      <point x="45" y="-71" type="line"/>
      <point x="134" y="23" type="line"/>
      <point x="168" y="-1"/>
      <point x="210" y="-15"/>
      <point x="258" y="-15" type="curve" smooth="yes"/>
      <point x="435" y="-15"/>
      <point x="562" y="125"/>
      <point x="562" y="277" type="curve" smooth="yes"/>
      <point x="562" y="323"/>
      <point x="547" y="366"/>
      <point x="522" y="400" type="curve"/>
      <point x="665" y="536" type="line"/>
      <point x="569" y="536" type="line"/>
      <point x="479" y="442" type="line"/>
      <point x="445" y="466"/>
      <point x="403" y="480"/>
    </contour>
    <contour>
      <point x="140" y="190" type="curve" smooth="yes"/>
      <point x="140" y="304"/>
      <point x="233" y="410"/>
      <point x="345" y="410" type="curve" smooth="yes"/>
      <point x="375" y="410"/>
      <point x="402" y="401"/>
      <point x="423" y="385" type="curve"/>
      <point x="156" y="121" type="line"/>
      <point x="146" y="141"/>
      <point x="140" y="164"/>
    </contour>
    <contour>
      <point x="270" y="56" type="curve" smooth="yes"/>
      <point x="239" y="56"/>
      <point x="212" y="65"/>
      <point x="191" y="81" type="curve"/>
      <point x="458" y="344" type="line"/>
      <point x="468" y="325"/>
      <point x="474" y="302"/>
      <point x="474" y="276" type="curve" smooth="yes"/>
      <point x="474" y="161"/>
      <point x="381" y="56"/>
    </contour>
  </outline>
</glyph>
<glyph name="thorn" format="2">
  <advance width="614"/>
  <unicode hex="00FE"/>
  <outline>
    <contour>
      <point x="-41" y="-230" type="line"/>
      <point x="45" y="-230" type="line"/>
      <point x="114" y="10" type="line"/>
      <point x="149" y="-1"/>
      <point x="186" y="-8"/>
      <point x="228" y="-8" type="curve" smooth="yes"/>
      <point x="436" y="-8"/>
      <point x="566" y="131"/>
      <point x="566" y="300" type="curve" smooth="yes"/>
      <point x="566" y="412"/>
      <point x="497" y="475"/>
      <point x="402" y="475" type="curve" smooth="yes"/>
      <point x="344" y="475"/>
      <point x="290" y="452"/>
      <point x="224" y="392" type="curve"/>
      <point x="315" y="710" type="line"/>
      <point x="229" y="710" type="line"/>
    </contour>
    <contour>
      <point x="376" y="403" type="curve" smooth="yes"/>
      <point x="434" y="403"/>
      <point x="476" y="362"/>
      <point x="476" y="291" type="curve" smooth="yes"/>
      <point x="476" y="185"/>
      <point x="396" y="63"/>
      <point x="230" y="63" type="curve" smooth="yes"/>
      <point x="193" y="63"/>
      <point x="161" y="70"/>
      <point x="135" y="82" type="curve"/>
      <point x="199" y="307" type="line"/>
      <point x="289" y="387"/>
      <point x="329" y="403"/>
    </contour>
  </outline>
</glyph>
<glyph name="Aogonek" format="2">
  <advance width="614"/>
  <unicode hex="0104"/>
  <outline>
    <contour>
      <point x="67" y="0" type="line"/>
      <point x="174" y="178" type="line"/>
      <point x="417" y="178" type="line"/>
      <point x="423" y="0" type="line"/>
      <point x="437" y="0" type="line"/>
      <point x="322" y="-100"/>
      <point x="305" y="-133"/>
      <point x="305" y="-169" type="curve" smooth="yes"/>
      <point x="305" y="-207"/>
      <point x="326" y="-227"/>
      <point x="399" y="-231" type="curve" smooth="yes"/>
      <point x="474" y="-235" type="line"/>
      <point x="496" y="-176" type="line"/>
      <point x="434" y="-172" type="line" smooth="yes"/>
      <point x="395" y="-170"/>
      <point x="385" y="-162"/>
      <point x="385" y="-146" type="curve" smooth="yes"/>
      <point x="385" y="-125"/>
      <point x="392" y="-98"/>
      <point x="488" y="0" type="curve"/>
      <point x="508" y="0" type="line"/>
      <point x="481" y="655" type="line"/>
      <point x="375" y="655" type="line"/>
      <point x="-26" y="0" type="line"/>
    </contour>
    <contour>
      <point x="215" y="248" type="line"/>
      <point x="407" y="570" type="line"/>
      <point x="417" y="248" type="line"/>
    </contour>
  </outline>
</glyph>
<glyph name="aogonek" format="2">
  <advance width="614"/>
  <unicode hex="0105"/>
  <outline>
    <contour>
      <point x="246" y="-169" type="curve" smooth="yes"/>
      <point x="246" y="-207"/>
      <point x="267" y="-227"/>
      <point x="341" y="-231" type="curve" smooth="yes"/>
      <point x="415" y="-235" type="line"/>
      <point x="437" y="-176" type="line"/>
      <point x="376" y="-172" type="line" smooth="yes"/>
      <point x="336" y="-170"/>
      <point x="326" y="-162"/>
      <point x="326" y="-146" type="curve" smooth="yes"/>
      <point x="326" y="-124"/>
      <point x="333" y="-97"/>
      <point x="433" y="4" type="curve"/>
      <point x="441" y="2"/>
      <point x="472" y="-2"/>
      <point x="506" y="-5" type="curve"/>
      <point x="526" y="62" type="line"/>
      <point x="486" y="68" type="line" smooth="yes"/>
      <point x="461" y="72"/>
      <point x="450" y="76"/>
      <point x="450" y="92" type="curve" smooth="yes"/>
      <point x="450" y="100"/>
      <point x="452" y="110"/>
      <point x="458" y="126" type="curve" smooth="yes"/>
      <point x="525" y="314" type="line" smooth="yes"/>
      <point x="532" y="336"/>
      <point x="535" y="355"/>
      <point x="535" y="372" type="curve" smooth="yes"/>
      <point x="535" y="439"/>
      <point x="481" y="473"/>
      <point x="364" y="473" type="curve" smooth="yes"/>
      <point x="304" y="473"/>
      <point x="247" y="468"/>
      <point x="172" y="456" type="curve"/>
      <point x="152" y="384" type="line"/>
      <point x="236" y="397"/>
      <point x="304" y="403"/>
      <point x="340" y="403" type="curve" smooth="yes"/>
      <point x="419" y="403"/>
      <point x="449" y="386"/>
      <point x="449" y="350" type="curve" smooth="yes"/>
      <point x="449" y="340"/>
      <point x="447" y="330"/>
      <point x="441" y="312" type="curve" smooth="yes"/>
      <point x="432" y="286" type="line"/>
      <point x="287" y="273" type="line" smooth="yes"/>
      <point x="157" y="262"/>
      <point x="114" y="246"/>
      <point x="82" y="214" type="curve" smooth="yes"/>
      <point x="48" y="181"/>
      <point x="32" y="131"/>
      <point x="32" y="89" type="curve" smooth="yes"/>
      <point x="32" y="36"/>
      <point x="61" y="-6"/>
      <point x="139" y="-6" type="curve" smooth="yes"/>
      <point x="215" y="-6"/>
      <point x="277" y="15"/>
      <point x="358" y="64" type="curve"/>
      <point x="364" y="64" type="line"/>
      <point x="369" y="44"/>
      <point x="380" y="28"/>
      <point x="398" y="17" type="curve"/>
      <point x="265" y="-96"/>
      <point x="246" y="-131"/>
    </contour>
    <contour>
      <point x="175" y="60" type="curve" smooth="yes"/>
      <point x="135" y="60"/>
      <point x="121" y="77"/>
      <point x="121" y="104" type="curve" smooth="yes"/>
      <point x="121" y="131"/>
      <point x="129" y="154"/>
      <point x="151" y="176" type="curve" smooth="yes"/>
      <point x="170" y="195"/>
      <point x="199" y="208"/>
      <point x="299" y="217" type="curve" smooth="yes"/>
      <point x="412" y="228" type="line"/>
      <point x="381" y="137" type="line"/>
      <point x="302" y="83"/>
      <point x="231" y="60"/>
    </contour>
  </outline>
</glyph>
<glyph name="dcroat" format="2">
  <advance width="614"/>
  <unicode hex="0111"/>
  <anchor x="248" y="-33" name="below"/>
  <outline>
    <contour>
      <point x="370" y="0" type="line"/>
      <point x="437" y="0" type="line"/>
      <point x="589" y="529" type="line"/>
      <point x="672" y="529" type="line"/>
      <point x="688" y="586" type="line"/>
      <point x="605" y="586" type="line"/>
      <point x="641" y="710" type="line"/>
      <point x="555" y="710" type="line"/>
      <point x="519" y="586" type="line"/>
      <point x="342" y="586" type="line"/>
      <point x="325" y="529" type="line"/>
      <point x="503" y="529" type="line"/>
      <point x="469" y="409" type="line"/>
      <point x="435" y="422"/>
      <point x="402" y="428"/>
      <point x="367" y="428" type="curve" smooth="yes"/>
      <point x="170" y="428"/>
      <point x="48" y="304"/>
      <point x="48" y="155" type="curve" smooth="yes"/>
      <point x="48" y="52"/>
      <point x="116" y="-8"/>
      <point x="203" y="-8" type="curve" smooth="yes"/>
      <point x="261" y="-8"/>
      <point x="312" y="16"/>
      <point x="378" y="76" type="curve"/>
    </contour>
    <contour>
      <point x="138" y="164" type="curve" smooth="yes"/>
      <point x="138" y="254"/>
      <point x="211" y="359"/>
      <point x="368" y="359" type="curve" smooth="yes"/>
      <point x="396" y="359"/>
      <point x="423" y="353"/>
      <point x="449" y="341" type="curve"/>
      <point x="396" y="154" type="line"/>
      <point x="313" y="80"/>
      <point x="275" y="63"/>
      <point x="229" y="63" type="curve" smooth="yes"/>
      <point x="176" y="63"/>
      <point x="138" y="100"/>
    </contour>
  </outline>
</glyph>
<glyph name="Eogonek" format="2">
  <advance width="614"/>
  <unicode hex="0118"/>
  <outline>
    <contour>
      <point x="237" y="-169" type="curve" smooth="yes"/>
      <point x="237" y="-207"/>
      <point x="258" y="-227"/>
      <point x="332" y="-231" type="curve" smooth="yes"/>
      <point x="406" y="-235" type="line"/>
      <point x="428" y="-176" type="line"/>
      <point x="367" y="-172" type="line" smooth="yes"/>
      <point x="327" y="-170"/>
      <point x="318" y="-162"/>
      <point x="318" y="-146" type="curve" smooth="yes"/>
      <point x="318" y="-125"/>
      <point x="325" y="-98"/>
      <point x="420" y="0" type="curve"/>
      <point x="475" y="0" type="line"/>
      <point x="496" y="72" type="line"/>
      <point x="139" y="72" type="line"/>
      <point x="203" y="295" type="line"/>
      <point x="499" y="295" type="line"/>
      <point x="520" y="367" type="line"/>
      <point x="223" y="367" type="line"/>
      <point x="285" y="583" type="line"/>
      <point x="636" y="583" type="line"/>
      <point x="657" y="655" type="line"/>
      <point x="219" y="655" type="line"/>
      <point x="31" y="0" type="line"/>
      <point x="369" y="0" type="line"/>
      <point x="254" y="-100"/>
      <point x="237" y="-133"/>
    </contour>
  </outline>
</glyph>
<glyph name="eogonek" format="2">
  <advance width="614"/>
  <unicode hex="0119"/>
  <outline>
    <contour>
      <point x="211" y="-169" type="curve" smooth="yes"/>
      <point x="211" y="-207"/>
      <point x="232" y="-227"/>
      <point x="306" y="-231" type="curve" smooth="yes"/>
      <point x="380" y="-235" type="line"/>
      <point x="402" y="-176" type="line"/>
      <point x="341" y="-172" type="line" smooth="yes"/>
      <point x="301" y="-170"/>
      <point x="292" y="-162"/>
      <point x="292" y="-146" type="curve" smooth="yes"/>
      <point x="292" y="-126"/>
      <point x="300" y="-103"/>
      <point x="395" y="-7" type="curve"/>
      <point x="416" y="62" type="line"/>
      <point x="206" y="62"/>
      <point x="153" y="85"/>
      <point x="153" y="171" type="curve" smooth="yes"/>
      <point x="153" y="183" type="line"/>
      <point x="319" y="197" type="line" smooth="yes"/>
      <point x="521" y="215"/>
      <point x="572" y="273"/>
      <point x="572" y="355" type="curve" smooth="yes"/>
      <point x="572" y="429"/>
      <point x="512" y="480"/>
      <point x="402" y="480" type="curve" smooth="yes"/>
      <point x="211" y="480"/>
      <point x="66" y="321"/>
      <point x="66" y="163" type="curve" smooth="yes"/>
      <point x="66" y="48"/>
      <point x="122" y="0"/>
      <point x="345" y="-6" type="curve"/>
      <point x="229" y="-105"/>
      <point x="211" y="-135"/>
    </contour>
    <contour>
      <point x="397" y="411" type="curve" smooth="yes"/>
      <point x="454" y="411"/>
      <point x="485" y="384"/>
      <point x="485" y="350" type="curve" smooth="yes"/>
      <point x="485" y="309"/>
      <point x="453" y="270"/>
      <point x="317" y="256" type="curve" smooth="yes"/>
      <point x="165" y="241" type="line"/>
      <point x="197" y="337"/>
      <point x="293" y="411"/>
    </contour>
  </outline>
</glyph>
<glyph name="hbar" format="2">
  <advance width="614"/>
  <unicode hex="0127"/>
  <outline>
    <contour>
      <point x="459" y="529" type="line"/>
      <point x="475" y="586" type="line"/>
      <point x="297" y="586" type="line"/>
      <point x="333" y="710" type="line"/>
      <point x="248" y="710" type="line"/>
      <point x="212" y="586" type="line"/>
      <point x="129" y="586" type="line"/>
      <point x="112" y="529" type="line"/>
      <point x="196" y="529" type="line"/>
      <point x="44" y="0" type="line"/>
      <point x="129" y="0" type="line"/>
      <point x="183" y="187" type="line"/>
      <point x="331" y="330"/>
      <point x="363" y="350"/>
      <point x="407" y="350" type="curve" smooth="yes"/>
      <point x="434" y="350"/>
      <point x="451" y="334"/>
      <point x="451" y="305" type="curve" smooth="yes"/>
      <point x="451" y="294"/>
      <point x="450" y="281"/>
      <point x="441" y="250" type="curve" smooth="yes"/>
      <point x="370" y="0" type="line"/>
      <point x="456" y="0" type="line"/>
      <point x="528" y="253" type="line" smooth="yes"/>
      <point x="539" y="293"/>
      <point x="543" y="315"/>
      <point x="543" y="332" type="curve" smooth="yes"/>
      <point x="543" y="392"/>
      <point x="503" y="428"/>
      <point x="442" y="428" type="curve" smooth="yes"/>
      <point x="378" y="428"/>
      <point x="334" y="406"/>
      <point x="212" y="290" type="curve"/>
      <point x="281" y="529" type="line"/>
    </contour>
  </outline>
</glyph>
<glyph name="Iogonek" format="2">
  <advance width="614"/>
  <unicode hex="012E"/>
  <outline>
    <contour>
      <point x="78" y="43" type="line"/>
      <point x="65" y="0" type="line"/>
      <point x="215" y="0" type="line"/>
      <point x="101" y="-100"/>
      <point x="84" y="-132"/>
      <point x="84" y="-168" type="curve" smooth="yes"/>
      <point x="84" y="-207"/>
      <point x="105" y="-227"/>
      <point x="178" y="-230" type="curve" smooth="yes"/>
      <point x="252" y="-234" type="line"/>
      <point x="275" y="-176" type="line"/>
      <point x="213" y="-172" type="line" smooth="yes"/>
      <point x="173" y="-169"/>
      <point x="164" y="-161"/>
      <point x="164" y="-145" type="curve" smooth="yes"/>
      <point x="164" y="-125"/>
      <point x="171" y="-98"/>
      <point x="266" y="0" type="curve"/>
      <point x="417" y="0" type="line"/>
      <point x="429" y="43" type="line"/>
      <point x="297" y="65" type="line"/>
      <point x="458" y="587" type="line"/>
      <point x="591" y="612" type="line"/>
      <point x="604" y="655" type="line"/>
      <point x="251" y="655" type="line"/>
      <point x="239" y="612" type="line"/>
      <point x="372" y="590" type="line"/>
      <point x="211" y="68" type="line"/>
    </contour>
  </outline>
</glyph>
<glyph name="iogonek" format="2">
  <advance width="614"/>
  <unicode hex="012F"/>
  <outline>
    <contour>
      <point x="409" y="603" type="curve" smooth="yes"/>
      <point x="463" y="603"/>
      <point x="496" y="635"/>
      <point x="496" y="677" type="curve" smooth="yes"/>
      <point x="496" y="711"/>
      <point x="472" y="730"/>
      <point x="427" y="730" type="curve" smooth="yes"/>
      <point x="368" y="730"/>
      <point x="340" y="693"/>
      <point x="340" y="657" type="curve" smooth="yes"/>
      <point x="340" y="621"/>
      <point x="368" y="603"/>
    </contour>
    <contour>
      <point x="68" y="72" type="line"/>
      <point x="47" y="0" type="line"/>
      <point x="231" y="0" type="line"/>
      <point x="115" y="-100"/>
      <point x="98" y="-133"/>
      <point x="98" y="-169" type="curve" smooth="yes"/>
      <point x="98" y="-207"/>
      <point x="119" y="-227"/>
      <point x="193" y="-231" type="curve" smooth="yes"/>
      <point x="267" y="-235" type="line"/>
      <point x="290" y="-176" type="line"/>
      <point x="228" y="-172" type="line" smooth="yes"/>
      <point x="188" y="-170"/>
      <point x="179" y="-162"/>
      <point x="179" y="-146" type="curve" smooth="yes"/>
      <point x="179" y="-125"/>
      <point x="186" y="-98"/>
      <point x="281" y="0" type="curve"/>
      <point x="465" y="0" type="line"/>
      <point x="485" y="72" type="line"/>
      <point x="310" y="72" type="line"/>
      <point x="445" y="465" type="line"/>
      <point x="201" y="465" type="line"/>
      <point x="180" y="393" type="line"/>
      <point x="335" y="393" type="line"/>
      <point x="225" y="72" type="line"/>
    </contour>
  </outline>
</glyph>
<glyph name="lslash" format="2">
  <advance width="614"/>
  <unicode hex="0142"/>
  <outline>
    <contour>
      <point x="88" y="239" type="line"/>
      <point x="253" y="317" type="line"/>
      <point x="230" y="254" type="line" smooth="yes"/>
      <point x="208" y="193"/>
      <point x="200" y="156"/>
      <point x="200" y="123" type="curve" smooth="yes"/>
      <point x="200" y="38"/>
      <point x="246" y="-1"/>
      <point x="352" y="-4" type="curve" smooth="yes"/>
      <point x="462" y="-8" type="line"/>
      <point x="483" y="66" type="line"/>
      <point x="369" y="70" type="line" smooth="yes"/>
      <point x="313" y="72"/>
      <point x="288" y="90"/>
      <point x="288" y="139" type="curve" smooth="yes"/>
      <point x="288" y="166"/>
      <point x="293" y="189"/>
      <point x="312" y="243" type="curve" smooth="yes"/>
      <point x="351" y="353" type="line"/>
      <point x="543" y="444" type="line"/>
      <point x="563" y="514" type="line"/>
      <point x="378" y="426" type="line"/>
      <point x="480" y="710" type="line"/>
      <point x="202" y="710" type="line"/>
      <point x="181" y="638" type="line"/>
      <point x="369" y="638" type="line"/>
      <point x="279" y="390" type="line"/>
      <point x="109" y="309" type="line"/>
    </contour>
  </outline>
</glyph>
<glyph name="Eng" format="2">
  <advance width="614"/>
  <unicode hex="014A"/>
  <outline>
    <contour>
      <point x="104" y="0" type="line"/>
      <point x="258" y="555" type="line"/>
      <point x="367" y="-53" type="line"/>
      <point x="341" y="-128"/>
      <point x="299" y="-154"/>
      <point x="222" y="-160" type="curve" smooth="yes"/>
      <point x="89" y="-169" type="line"/>
      <point x="89" y="-238" type="line"/>
      <point x="213" y="-230" type="line" smooth="yes"/>
      <point x="350" y="-221"/>
      <point x="409" y="-173"/>
      <point x="444" y="-49" type="curve" smooth="yes"/>
      <point x="646" y="655" type="line"/>
      <point x="565" y="655" type="line"/>
      <point x="413" y="111" type="line"/>
      <point x="316" y="655" type="line"/>
      <point x="211" y="655" type="line"/>
      <point x="23" y="0" type="line"/>
    </contour>
  </outline>
</glyph>
<glyph name="eng" format="2">
  <advance width="614"/>
  <unicode hex="014B"/>
  <outline>
    <contour>
      <point x="460" y="17" type="curve" smooth="yes"/>
      <point x="541" y="297" type="line" smooth="yes"/>
      <point x="553" y="337"/>
      <point x="556" y="360"/>
      <point x="556" y="376" type="curve" smooth="yes"/>
      <point x="556" y="436"/>
      <point x="513" y="472"/>
      <point x="448" y="472" type="curve" smooth="yes"/>
      <point x="380" y="472"/>
      <point x="334" y="451"/>
      <point x="205" y="328" type="curve"/>
      <point x="242" y="465" type="line"/>
      <point x="162" y="465" type="line"/>
      <point x="29" y="0" type="line"/>
      <point x="114" y="0" type="line"/>
      <point x="180" y="230" type="line"/>
      <point x="332" y="376"/>
      <point x="368" y="394"/>
      <point x="413" y="394" type="curve" smooth="yes"/>
      <point x="444" y="394"/>
      <point x="464" y="379"/>
      <point x="464" y="349" type="curve" smooth="yes"/>
      <point x="464" y="338"/>
      <point x="463" y="324"/>
      <point x="454" y="294" type="curve" smooth="yes"/>
      <point x="377" y="26" type="line" smooth="yes"/>
      <point x="339" y="-110"/>
      <point x="305" y="-151"/>
      <point x="158" y="-160" type="curve" smooth="yes"/>
      <point x="88" y="-164" type="line"/>
      <point x="88" y="-238" type="line"/>
      <point x="158" y="-233" type="line" smooth="yes"/>
      <point x="361" y="-220"/>
      <point x="405" y="-174"/>
    </contour>
  </outline>
</glyph>
<glyph name="OE" format="2">
  <advance width="614"/>
  <unicode hex="0152"/>
  <outline>
    <contour>
      <point x="230" y="0" type="curve" smooth="yes"/>
      <point x="520" y="0" type="line"/>
      <point x="541" y="70" type="line"/>
      <point x="337" y="70" type="line"/>
      <point x="402" y="297" type="line"/>
      <point x="582" y="297" type="line"/>
      <point x="601" y="365" type="line"/>
      <point x="422" y="365" type="line"/>
      <point x="485" y="585" type="line"/>
      <point x="688" y="585" type="line"/>
      <point x="708" y="655" type="line"/>
      <point x="443" y="655" type="line" smooth="yes"/>
      <point x="317" y="655"/>
      <point x="238" y="633"/>
      <point x="163" y="558" type="curve" smooth="yes"/>
      <point x="83" y="477"/>
      <point x="29" y="302"/>
      <point x="29" y="190" type="curve" smooth="yes"/>
      <point x="29" y="68"/>
      <point x="93" y="0"/>
    </contour>
    <contour>
      <point x="242" y="67" type="line" smooth="yes"/>
      <point x="151" y="67"/>
      <point x="115" y="106"/>
      <point x="115" y="192" type="curve" smooth="yes"/>
      <point x="115" y="283"/>
      <point x="161" y="444"/>
      <point x="234" y="517" type="curve" smooth="yes"/>
      <point x="279" y="562"/>
      <point x="329" y="585"/>
      <point x="402" y="588" type="curve"/>
      <point x="252" y="67" type="line"/>
    </contour>
  </outline>
</glyph>
<glyph name="oe" format="2">
  <advance width="614"/>
  <unicode hex="0153"/>
  <outline>
    <contour>
      <point x="123" y="-14" type="curve" smooth="yes"/>
      <point x="181" y="-14"/>
      <point x="231" y="24"/>
      <point x="270" y="80" type="curve"/>
      <point x="289" y="19"/>
      <point x="342" y="-5"/>
      <point x="463" y="-5" type="curve"/>
      <point x="484" y="59" type="line"/>
      <point x="371" y="59"/>
      <point x="335" y="80"/>
      <point x="335" y="150" type="curve" smooth="yes"/>
      <point x="335" y="169"/>
      <point x="337" y="189"/>
      <point x="342" y="210" type="curve"/>
      <point x="579" y="231"/>
      <point x="617" y="296"/>
      <point x="617" y="376" type="curve" smooth="yes"/>
      <point x="617" y="441"/>
      <point x="577" y="478"/>
      <point x="512" y="478" type="curve" smooth="yes"/>
      <point x="458" y="478"/>
      <point x="397" y="446"/>
      <point x="347" y="371" type="curve"/>
      <point x="339" y="440"/>
      <point x="304" y="478"/>
      <point x="243" y="478" type="curve" smooth="yes"/>
      <point x="194" y="478"/>
      <point x="154" y="456"/>
      <point x="118" y="420" type="curve" smooth="yes"/>
      <point x="49" y="352"/>
      <point x="9" y="237"/>
      <point x="9" y="133" type="curve" smooth="yes"/>
      <point x="9" y="34"/>
      <point x="50" y="-14"/>
    </contour>
    <contour>
      <point x="491" y="413" type="curve" smooth="yes"/>
      <point x="519" y="413"/>
      <point x="536" y="399"/>
      <point x="536" y="367" type="curve" smooth="yes"/>
      <point x="536" y="325"/>
      <point x="505" y="279"/>
      <point x="357" y="263" type="curve"/>
      <point x="387" y="342"/>
      <point x="440" y="413"/>
    </contour>
    <contour>
      <point x="94" y="129" type="curve" smooth="yes"/>
      <point x="94" y="215"/>
      <point x="135" y="332"/>
      <point x="184" y="381" type="curve" smooth="yes"/>
      <point x="203" y="400"/>
      <point x="222" y="411"/>
      <point x="242" y="411" type="curve" smooth="yes"/>
      <point x="274" y="411"/>
      <point x="291" y="382"/>
      <point x="291" y="335" type="curve" smooth="yes"/>
      <point x="291" y="246"/>
      <point x="250" y="132"/>
      <point x="200" y="82" type="curve" smooth="yes"/>
      <point x="182" y="64"/>
      <point x="164" y="54"/>
      <point x="144" y="54" type="curve" smooth="yes"/>
      <point x="111" y="54"/>
      <point x="94" y="80"/>
    </contour>
  </outline>
</glyph>
<glyph name="Scedilla" format="2">
  <advance width="614"/>
  <unicode hex="015E"/>
  <outline>
    <contour>
      <point x="292" y="61" type="curve" smooth="yes"/>
      <point x="215" y="61"/>
      <point x="138" y="89"/>
      <point x="57" y="128" type="curve"/>
      <point x="26" y="55" type="line"/>
      <point x="93" y="22"/>
      <point x="156" y="-1"/>
      <point x="228" y="-9" type="curve"/>
      <point x="169" y="-102" type="line"/>
      <point x="172" y="-112" type="line"/>
      <point x="277" y="-122"/>
      <point x="300" y="-133"/>
      <point x="300" y="-155" type="curve" smooth="yes"/>
      <point x="300" y="-184"/>
      <point x="281" y="-199"/>
      <point x="82" y="-216" type="curve"/>
      <point x="83" y="-270" type="line"/>
      <point x="352" y="-246"/>
      <point x="374" y="-207"/>
      <point x="374" y="-148" type="curve" smooth="yes"/>
      <point x="374" y="-105"/>
      <point x="352" y="-82"/>
      <point x="244" y="-65" type="curve"/>
      <point x="275" y="-13" type="line"/>
      <point x="293" y="-13" type="line" smooth="yes"/>
      <point x="439" y="-13"/>
      <point x="532" y="58"/>
      <point x="532" y="180" type="curve" smooth="yes"/>
      <point x="532" y="249"/>
      <point x="511" y="292"/>
      <point x="406" y="351" type="curve" smooth="yes"/>
      <point x="328" y="395" type="line" smooth="yes"/>
      <point x="268" y="429"/>
      <point x="254" y="458"/>
      <point x="254" y="495" type="curve" smooth="yes"/>
      <point x="254" y="551"/>
      <point x="298" y="593"/>
      <point x="398" y="593" type="curve" smooth="yes"/>
      <point x="463" y="593"/>
      <point x="528" y="577"/>
      <point x="600" y="549" type="curve"/>
      <point x="624" y="624" type="line"/>
      <point x="544" y="652"/>
      <point x="483" y="667"/>
      <point x="399" y="667" type="curve" smooth="yes"/>
      <point x="245" y="667"/>
      <point x="166" y="582"/>
      <point x="166" y="489" type="curve" smooth="yes"/>
      <point x="166" y="419"/>
      <point x="198" y="372"/>
      <point x="279" y="327" type="curve" smooth="yes"/>
      <point x="357" y="284" type="line" smooth="yes"/>
      <point x="430" y="244"/>
      <point x="444" y="210"/>
      <point x="444" y="173" type="curve" smooth="yes"/>
      <point x="444" y="103"/>
      <point x="392" y="61"/>
    </contour>
  </outline>
</glyph>
<glyph name="scedilla" format="2">
  <advance width="614"/>
  <unicode hex="015F"/>
  <outline>
    <contour>
      <point x="493" y="127" type="curve" smooth="yes"/>
      <point x="493" y="189"/>
      <point x="470" y="213"/>
      <point x="359" y="261" type="curve" smooth="yes"/>
      <point x="294" y="289" type="line" smooth="yes"/>
      <point x="236" y="315"/>
      <point x="224" y="325"/>
      <point x="224" y="354" type="curve" smooth="yes"/>
      <point x="224" y="384"/>
      <point x="250" y="405"/>
      <point x="346" y="405" type="curve" smooth="yes"/>
      <point x="395" y="405"/>
      <point x="461" y="397"/>
      <point x="539" y="376" type="curve"/>
      <point x="560" y="447" type="line"/>
      <point x="484" y="466"/>
      <point x="402" y="475"/>
      <point x="348" y="475" type="curve" smooth="yes"/>
      <point x="197" y="475"/>
      <point x="136" y="424"/>
      <point x="136" y="348" type="curve" smooth="yes"/>
      <point x="136" y="294"/>
      <point x="158" y="262"/>
      <point x="269" y="216" type="curve" smooth="yes"/>
      <point x="335" y="188" type="line" smooth="yes"/>
      <point x="393" y="163"/>
      <point x="406" y="149"/>
      <point x="406" y="120" type="curve" smooth="yes"/>
      <point x="406" y="86"/>
      <point x="374" y="60"/>
      <point x="277" y="60" type="curve" smooth="yes"/>
      <point x="218" y="60"/>
      <point x="143" y="69"/>
      <point x="54" y="93" type="curve"/>
      <point x="34" y="20" type="line"/>
      <point x="100" y="4"/>
      <point x="152" y="-5"/>
      <point x="205" y="-9" type="curve"/>
      <point x="146" y="-102" type="line"/>
      <point x="149" y="-112" type="line"/>
      <point x="254" y="-122"/>
      <point x="277" y="-133"/>
      <point x="277" y="-155" type="curve" smooth="yes"/>
      <point x="277" y="-184"/>
      <point x="259" y="-199"/>
      <point x="60" y="-216" type="curve"/>
      <point x="60" y="-270" type="line"/>
      <point x="329" y="-246"/>
      <point x="351" y="-207"/>
      <point x="351" y="-148" type="curve" smooth="yes"/>
      <point x="351" y="-105"/>
      <point x="329" y="-82"/>
      <point x="221" y="-65" type="curve"/>
      <point x="254" y="-11" type="line"/>
      <point x="274" y="-11" type="line" smooth="yes"/>
      <point x="426" y="-11"/>
      <point x="493" y="48"/>
    </contour>
  </outline>
</glyph>
<glyph name="Tcedilla" format="2">
  <advance width="614"/>
  <unicode hex="0162"/>
  <outline>
    <contour>
      <point x="148" y="583" type="line"/>
      <point x="361" y="583" type="line"/>
      <point x="194" y="0" type="line"/>
      <point x="215" y="0" type="line"/>
      <point x="153" y="-97" type="line"/>
      <point x="156" y="-107" type="line"/>
      <point x="261" y="-117"/>
      <point x="285" y="-128"/>
      <point x="285" y="-150" type="curve" smooth="yes"/>
      <point x="285" y="-179"/>
      <point x="266" y="-193"/>
      <point x="67" y="-211" type="curve"/>
      <point x="67" y="-265" type="line"/>
      <point x="336" y="-241"/>
      <point x="359" y="-201"/>
      <point x="359" y="-142" type="curve" smooth="yes"/>
      <point x="359" y="-100"/>
      <point x="337" y="-76"/>
      <point x="228" y="-60" type="curve"/>
      <point x="265" y="0" type="line"/>
      <point x="281" y="0" type="line"/>
      <point x="448" y="583" type="line"/>
      <point x="660" y="583" type="line"/>
      <point x="681" y="655" type="line"/>
      <point x="169" y="655" type="line"/>
    </contour>
  </outline>
</glyph>
<glyph name="tcedilla" format="2">
  <advance width="614"/>
  <unicode hex="0163"/>
  <outline>
    <contour>
      <point x="242" y="20" type="curve"/>
      <point x="168" y="-97" type="line"/>
      <point x="171" y="-107" type="line"/>
      <point x="276" y="-117"/>
      <point x="300" y="-128"/>
      <point x="300" y="-150" type="curve" smooth="yes"/>
      <point x="300" y="-179"/>
      <point x="281" y="-194"/>
      <point x="82" y="-211" type="curve"/>
      <point x="82" y="-265" type="line"/>
      <point x="351" y="-241"/>
      <point x="373" y="-202"/>
      <point x="373" y="-143" type="curve" smooth="yes"/>
      <point x="373" y="-101"/>
      <point x="352" y="-77"/>
      <point x="243" y="-60" type="curve"/>
      <point x="282" y="5" type="line"/>
      <point x="301" y="1"/>
      <point x="323" y="-2"/>
      <point x="348" y="-3" type="curve" smooth="yes"/>
      <point x="454" y="-7" type="line"/>
      <point x="474" y="67" type="line"/>
      <point x="352" y="74" type="line" smooth="yes"/>
      <point x="297" y="77"/>
      <point x="272" y="97"/>
      <point x="272" y="138" type="curve" smooth="yes"/>
      <point x="272" y="155"/>
      <point x="276" y="181"/>
      <point x="294" y="229" type="curve" smooth="yes"/>
      <point x="355" y="393" type="line"/>
      <point x="552" y="393" type="line"/>
      <point x="572" y="465" type="line"/>
      <point x="382" y="465" type="line"/>
      <point x="446" y="638" type="line"/>
      <point x="363" y="638" type="line"/>
      <point x="297" y="465" type="line"/>
      <point x="125" y="465" type="line"/>
      <point x="104" y="393" type="line"/>
      <point x="269" y="393" type="line"/>
      <point x="211" y="239" type="line" smooth="yes"/>
      <point x="187" y="174"/>
      <point x="183" y="144"/>
      <point x="183" y="123" type="curve" smooth="yes"/>
      <point x="183" y="76"/>
      <point x="202" y="41"/>
    </contour>
  </outline>
</glyph>
<glyph name="tbar" format="2">
  <advance width="614"/>
  <unicode hex="0167"/>
  <outline>
    <contour>
      <point x="99" y="217" type="line"/>
      <point x="203" y="217" type="line"/>
      <point x="186" y="167"/>
      <point x="183" y="141"/>
      <point x="183" y="123" type="curve" smooth="yes"/>
      <point x="183" y="45"/>
      <point x="234" y="1"/>
      <point x="348" y="-3" type="curve" smooth="yes"/>
      <point x="454" y="-7" type="line"/>
      <point x="474" y="63" type="line"/>
      <point x="351" y="71" type="line" smooth="yes"/>
      <point x="296" y="74"/>
      <point x="271" y="94"/>
      <point x="271" y="137" type="curve" smooth="yes"/>
      <point x="271" y="152"/>
      <point x="275" y="174"/>
      <point x="290" y="217" type="curve"/>
      <point x="455" y="217" type="line"/>
      <point x="471" y="274" type="line"/>
      <point x="311" y="274" type="line"/>
      <point x="356" y="396" type="line"/>
      <point x="553" y="396" type="line"/>
      <point x="572" y="465" type="line"/>
      <point x="382" y="465" type="line"/>
      <point x="446" y="638" type="line"/>
      <point x="363" y="638" type="line"/>
      <point x="297" y="465" type="line"/>
      <point x="125" y="465" type="line"/>
      <point x="105" y="396" type="line"/>
      <point x="270" y="396" type="line"/>
      <point x="224" y="274" type="line"/>
      <point x="115" y="274" type="line"/>
    </contour>
  </outline>
</glyph>
<glyph name="Uogonek" format="2">
  <advance width="614"/>
  <unicode hex="0172"/>
  <outline>
    <contour>
      <point x="96" y="-174" type="curve" smooth="yes"/>
      <point x="96" y="-212"/>
      <point x="117" y="-232"/>
      <point x="191" y="-236" type="curve" smooth="yes"/>
      <point x="265" y="-240" type="line"/>
      <point x="288" y="-181" type="line"/>
      <point x="226" y="-177" type="line" smooth="yes"/>
      <point x="186" y="-175"/>
      <point x="177" y="-167"/>
      <point x="177" y="-151" type="curve" smooth="yes"/>
      <point x="177" y="-130"/>
      <point x="183" y="-105"/>
      <point x="269" y="-15" type="curve"/>
      <point x="404" y="-15"/>
      <point x="484" y="51"/>
      <point x="528" y="206" type="curve" smooth="yes"/>
      <point x="658" y="655" type="line"/>
      <point x="572" y="655" type="line"/>
      <point x="445" y="213" type="line" smooth="yes"/>
      <point x="414" y="107"/>
      <point x="360" y="62"/>
      <point x="279" y="62" type="curve" smooth="yes"/>
      <point x="195" y="62"/>
      <point x="155" y="102"/>
      <point x="155" y="168" type="curve" smooth="yes"/>
      <point x="155" y="188"/>
      <point x="159" y="215"/>
      <point x="172" y="261" type="curve" smooth="yes"/>
      <point x="286" y="655" type="line"/>
      <point x="199" y="655" type="line"/>
      <point x="92" y="286" type="line" smooth="yes"/>
      <point x="75" y="228"/>
      <point x="69" y="194"/>
      <point x="69" y="164" type="curve" smooth="yes"/>
      <point x="69" y="59"/>
      <point x="127" y="2"/>
      <point x="221" y="-12" type="curve"/>
      <point x="112" y="-106"/>
      <point x="96" y="-139"/>
    </contour>
  </outline>
</glyph>
<glyph name="uogonek" format="2">
  <advance width="614"/>
  <unicode hex="0173"/>
  <outline>
    <contour>
      <point x="256" y="-169" type="curve" smooth="yes"/>
      <point x="256" y="-207"/>
      <point x="278" y="-227"/>
      <point x="351" y="-231" type="curve" smooth="yes"/>
      <point x="425" y="-235" type="line"/>
      <point x="448" y="-176" type="line"/>
      <point x="386" y="-172" type="line" smooth="yes"/>
      <point x="346" y="-170"/>
      <point x="337" y="-162"/>
      <point x="337" y="-146" type="curve" smooth="yes"/>
      <point x="337" y="-125"/>
      <point x="344" y="-98"/>
      <point x="440" y="0" type="curve"/>
      <point x="452" y="0" type="line"/>
      <point x="586" y="465" type="line"/>
      <point x="500" y="465" type="line"/>
      <point x="435" y="237" type="line"/>
      <point x="282" y="90"/>
      <point x="246" y="71"/>
      <point x="202" y="71" type="curve" smooth="yes"/>
      <point x="170" y="71"/>
      <point x="150" y="87"/>
      <point x="150" y="116" type="curve" smooth="yes"/>
      <point x="150" y="127"/>
      <point x="152" y="141"/>
      <point x="160" y="171" type="curve" smooth="yes"/>
      <point x="245" y="465" type="line"/>
      <point x="159" y="465" type="line"/>
      <point x="74" y="168" type="line" smooth="yes"/>
      <point x="62" y="128"/>
      <point x="59" y="106"/>
      <point x="59" y="89" type="curve" smooth="yes"/>
      <point x="59" y="30"/>
      <point x="102" y="-7"/>
      <point x="167" y="-7" type="curve" smooth="yes"/>
      <point x="233" y="-7"/>
      <point x="281" y="14"/>
      <point x="408" y="135" type="curve"/>
      <point x="372" y="0" type="line"/>
      <point x="389" y="0" type="line"/>
      <point x="274" y="-100"/>
      <point x="256" y="-133"/>
    </contour>
  </outline>
</glyph>
<glyph name="Schwa" format="2">
  <advance width="614"/>
  <unicode hex="018F"/>
  <outline>
    <contour>
      <point x="574" y="295" type="curve" smooth="yes"/>
      <point x="594" y="365"/>
      <point x="604" y="422"/>
      <point x="604" y="471" type="curve" smooth="yes"/>
      <point x="604" y="606"/>
      <point x="523" y="664"/>
      <point x="378" y="664" type="curve" smooth="yes"/>
      <point x="338" y="664"/>
      <point x="312" y="661"/>
      <point x="273" y="654" type="curve"/>
      <point x="244" y="579" type="line"/>
      <point x="290" y="588"/>
      <point x="332" y="592"/>
      <point x="365" y="592" type="curve" smooth="yes"/>
      <point x="463" y="592"/>
      <point x="515" y="564"/>
      <point x="515" y="470" type="curve" smooth="yes"/>
      <point x="515" y="444"/>
      <point x="511" y="412"/>
      <point x="503" y="375" type="curve"/>
      <point x="107" y="375" type="line"/>
      <point x="73" y="286"/>
      <point x="58" y="209"/>
      <point x="58" y="149" type="curve" smooth="yes"/>
      <point x="58" y="38"/>
      <point x="131" y="-15"/>
      <point x="245" y="-15" type="curve" smooth="yes"/>
      <point x="396" y="-15"/>
      <point x="510" y="72"/>
    </contour>
    <contour>
      <point x="146" y="161" type="curve" smooth="yes"/>
      <point x="146" y="205"/>
      <point x="155" y="255"/>
      <point x="171" y="306" type="curve"/>
      <point x="484" y="306" type="line"/>
      <point x="424" y="111"/>
      <point x="348" y="57"/>
      <point x="248" y="57" type="curve" smooth="yes"/>
      <point x="185" y="57"/>
      <point x="146" y="83"/>
    </contour>
  </outline>
</glyph>
<glyph name="Ohorn" format="2">
  <advance width="614"/>
  <unicode hex="01A0"/>
  <anchor x="430" y="696" name="aboveUC"/>
  <anchor x="420" y="661" name="aboveUCx"/>
  <anchor x="246" y="-40" name="below"/>
  <outline>
    <contour>
      <point x="406" y="655" type="line" smooth="yes"/>
      <point x="254" y="655"/>
      <point x="133" y="534"/>
      <point x="82" y="358" type="curve" smooth="yes"/>
      <point x="64" y="294"/>
      <point x="59" y="244"/>
      <point x="59" y="196" type="curve" smooth="yes"/>
      <point x="59" y="54"/>
      <point x="137" y="-15"/>
      <point x="263" y="-15" type="curve" smooth="yes"/>
      <point x="415" y="-15"/>
      <point x="537" y="107"/>
      <point x="588" y="283" type="curve" smooth="yes"/>
      <point x="606" y="347"/>
      <point x="611" y="392"/>
      <point x="611" y="441" type="curve" smooth="yes"/>
      <point x="611" y="520"/>
      <point x="584" y="568"/>
      <point x="532" y="601" type="curve"/>
      <point x="535" y="605" type="line"/>
      <point x="544" y="604"/>
      <point x="553" y="603"/>
      <point x="560" y="603" type="curve" smooth="yes"/>
      <point x="678" y="603"/>
      <point x="721" y="635"/>
      <point x="758" y="768" type="curve"/>
      <point x="677" y="768" type="line"/>
      <point x="647" y="677"/>
      <point x="622" y="655"/>
      <point x="524" y="655" type="curve" smooth="yes"/>
    </contour>
    <contour>
      <point x="268" y="57" type="curve" smooth="yes"/>
      <point x="195" y="57"/>
      <point x="148" y="100"/>
      <point x="148" y="195" type="curve" smooth="yes"/>
      <point x="148" y="239"/>
      <point x="155" y="293"/>
      <point x="172" y="352" type="curve" smooth="yes"/>
      <point x="212" y="489"/>
      <point x="296" y="583"/>
      <point x="401" y="583" type="curve" smooth="yes"/>
      <point x="474" y="583"/>
      <point x="522" y="541"/>
      <point x="522" y="447" type="curve" smooth="yes"/>
      <point x="522" y="403"/>
      <point x="515" y="349"/>
      <point x="498" y="289" type="curve" smooth="yes"/>
      <point x="458" y="150"/>
      <point x="373" y="57"/>
    </contour>
  </outline>
</glyph>
<glyph name="ohorn" format="2">
  <advance width="614"/>
  <unicode hex="01A1"/>
  <anchor x="374" y="507" name="aboveLC"/>
  <anchor x="364" y="472" name="aboveLCx"/>
  <anchor x="243" y="-40" name="below"/>
  <outline>
    <contour>
      <point x="357" y="465" type="line" smooth="yes"/>
      <point x="179" y="465"/>
      <point x="52" y="329"/>
      <point x="52" y="181" type="curve" smooth="yes"/>
      <point x="52" y="69"/>
      <point x="132" y="-15"/>
      <point x="258" y="-15" type="curve" smooth="yes"/>
      <point x="435" y="-15"/>
      <point x="562" y="118"/>
      <point x="562" y="267" type="curve" smooth="yes"/>
      <point x="562" y="326"/>
      <point x="531" y="373"/>
      <point x="484" y="409" type="curve"/>
      <point x="488" y="414" type="line"/>
      <point x="497" y="413"/>
      <point x="507" y="412"/>
      <point x="516" y="412" type="curve" smooth="yes"/>
      <point x="612" y="412"/>
      <point x="646" y="445"/>
      <point x="687" y="577" type="curve"/>
      <point x="606" y="577" type="line"/>
      <point x="577" y="484"/>
      <point x="558" y="465"/>
      <point x="482" y="465" type="curve" smooth="yes"/>
    </contour>
    <contour>
      <point x="270" y="56" type="curve" smooth="yes"/>
      <point x="194" y="56"/>
      <point x="140" y="108"/>
      <point x="140" y="183" type="curve" smooth="yes"/>
      <point x="140" y="293"/>
      <point x="234" y="395"/>
      <point x="346" y="395" type="curve" smooth="yes"/>
      <point x="420" y="395"/>
      <point x="474" y="342"/>
      <point x="474" y="269" type="curve" smooth="yes"/>
      <point x="474" y="158"/>
      <point x="381" y="56"/>
    </contour>
  </outline>
</glyph>
<glyph name="Uhorn" format="2">
  <advance width="614"/>
  <unicode hex="01AF"/>
  <outline>
    <contour>
      <point x="445" y="213" type="line" smooth="yes"/>
      <point x="414" y="107"/>
      <point x="360" y="62"/>
      <point x="279" y="62" type="curve" smooth="yes"/>
      <point x="195" y="62"/>
      <point x="155" y="102"/>
      <point x="155" y="168" type="curve" smooth="yes"/>
      <point x="155" y="188"/>
      <point x="159" y="215"/>
      <point x="172" y="261" type="curve" smooth="yes"/>
      <point x="286" y="655" type="line"/>
      <point x="199" y="655" type="line"/>
      <point x="92" y="286" type="line" smooth="yes"/>
      <point x="75" y="228"/>
      <point x="69" y="194"/>
      <point x="69" y="164" type="curve" smooth="yes"/>
      <point x="69" y="43"/>
      <point x="146" y="-15"/>
      <point x="267" y="-15" type="curve" smooth="yes"/>
      <point x="404" y="-15"/>
      <point x="484" y="51"/>
      <point x="528" y="206" type="curve" smooth="yes"/>
      <point x="642" y="599" type="line"/>
      <point x="748" y="599"/>
      <point x="796" y="631"/>
      <point x="834" y="768" type="curve"/>
      <point x="753" y="768" type="line"/>
      <point x="723" y="673"/>
      <point x="705" y="655"/>
      <point x="614" y="655" type="curve" smooth="yes"/>
      <point x="572" y="655" type="line"/>
    </contour>
  </outline>
</glyph>
<glyph name="uhorn" format="2">
  <advance width="614"/>
  <unicode hex="01B0"/>
  <outline>
    <contour>
      <point x="372" y="0" type="line"/>
      <point x="452" y="0" type="line"/>
      <point x="571" y="412" type="line"/>
      <point x="662" y="415"/>
      <point x="709" y="451"/>
      <point x="747" y="577" type="curve"/>
      <point x="667" y="577" type="line"/>
      <point x="636" y="486"/>
      <point x="613" y="465"/>
      <point x="529" y="465" type="curve" smooth="yes"/>
      <point x="500" y="465" type="line"/>
      <point x="435" y="237" type="line"/>
      <point x="282" y="90"/>
      <point x="246" y="71"/>
      <point x="202" y="71" type="curve" smooth="yes"/>
      <point x="170" y="71"/>
      <point x="150" y="87"/>
      <point x="150" y="116" type="curve" smooth="yes"/>
      <point x="150" y="127"/>
      <point x="152" y="141"/>
      <point x="160" y="171" type="curve" smooth="yes"/>
      <point x="245" y="465" type="line"/>
      <point x="159" y="465" type="line"/>
      <point x="74" y="168" type="line" smooth="yes"/>
      <point x="62" y="128"/>
      <point x="59" y="106"/>
      <point x="59" y="89" type="curve" smooth="yes"/>
      <point x="59" y="30"/>
      <point x="102" y="-7"/>
      <point x="167" y="-7" type="curve" smooth="yes"/>
      <point x="233" y="-7"/>
      <point x="281" y="14"/>
      <point x="408" y="135" type="curve"/>
    </contour>
  </outline>
</glyph>
<glyph name="Oogonek" format="2">
  <advance width="614"/>
  <unicode hex="01EA"/>
  <outline>
    <contour>
      <point x="92" y="-174" type="curve" smooth="yes"/>
      <point x="92" y="-212"/>
      <point x="113" y="-232"/>
      <point x="186" y="-236" type="curve" smooth="yes"/>
      <point x="261" y="-240" type="line"/>
      <point x="283" y="-181" type="line"/>
      <point x="221" y="-177" type="line" smooth="yes"/>
      <point x="182" y="-175"/>
      <point x="172" y="-167"/>
      <point x="172" y="-151" type="curve" smooth="yes"/>
      <point x="172" y="-130"/>
      <point x="178" y="-105"/>
      <point x="265" y="-15" type="curve"/>
      <point x="415" y="-15"/>
      <point x="536" y="110"/>
      <point x="588" y="290" type="curve" smooth="yes"/>
      <point x="606" y="354"/>
      <point x="611" y="405"/>
      <point x="611" y="453" type="curve" smooth="yes"/>
      <point x="611" y="599"/>
      <point x="533" y="670"/>
      <point x="407" y="670" type="curve" smooth="yes"/>
      <point x="255" y="670"/>
      <point x="134" y="545"/>
      <point x="82" y="365" type="curve" smooth="yes"/>
      <point x="64" y="301"/>
      <point x="59" y="250"/>
      <point x="59" y="202" type="curve" smooth="yes"/>
      <point x="59" y="75"/>
      <point x="118" y="4"/>
      <point x="217" y="-11" type="curve"/>
      <point x="108" y="-106"/>
      <point x="92" y="-139"/>
    </contour>
    <contour>
      <point x="268" y="57" type="curve" smooth="yes"/>
      <point x="195" y="57"/>
      <point x="148" y="102"/>
      <point x="148" y="201" type="curve" smooth="yes"/>
      <point x="148" y="245"/>
      <point x="155" y="300"/>
      <point x="172" y="359" type="curve" smooth="yes"/>
      <point x="213" y="502"/>
      <point x="297" y="598"/>
      <point x="402" y="598" type="curve" smooth="yes"/>
      <point x="475" y="598"/>
      <point x="522" y="553"/>
      <point x="522" y="454" type="curve" smooth="yes"/>
      <point x="522" y="410"/>
      <point x="515" y="355"/>
      <point x="498" y="296" type="curve" smooth="yes"/>
      <point x="457" y="153"/>
      <point x="373" y="57"/>
    </contour>
  </outline>
</glyph>
<glyph name="oogonek" format="2">
  <advance width="614"/>
  <unicode hex="01EB"/>
  <outline>
    <contour>
      <point x="91" y="-174" type="curve" smooth="yes"/>
      <point x="91" y="-212"/>
      <point x="112" y="-232"/>
      <point x="186" y="-236" type="curve" smooth="yes"/>
      <point x="260" y="-240" type="line"/>
      <point x="282" y="-181" type="line"/>
      <point x="221" y="-177" type="line" smooth="yes"/>
      <point x="181" y="-175"/>
      <point x="171" y="-167"/>
      <point x="171" y="-151" type="curve" smooth="yes"/>
      <point x="171" y="-130"/>
      <point x="177" y="-105"/>
      <point x="264" y="-15" type="curve"/>
      <point x="438" y="-12"/>
      <point x="562" y="127"/>
      <point x="562" y="277" type="curve" smooth="yes"/>
      <point x="562" y="393"/>
      <point x="482" y="480"/>
      <point x="356" y="480" type="curve" smooth="yes"/>
      <point x="179" y="480"/>
      <point x="52" y="340"/>
      <point x="52" y="188" type="curve" smooth="yes"/>
      <point x="52" y="86"/>
      <point x="114" y="6"/>
      <point x="216" y="-12" type="curve"/>
      <point x="107" y="-106"/>
      <point x="91" y="-139"/>
    </contour>
    <contour>
      <point x="270" y="56" type="curve" smooth="yes"/>
      <point x="194" y="56"/>
      <point x="140" y="111"/>
      <point x="140" y="190" type="curve" smooth="yes"/>
      <point x="140" y="304"/>
      <point x="233" y="410"/>
      <point x="345" y="410" type="curve" smooth="yes"/>
      <point x="420" y="410"/>
      <point x="474" y="354"/>
      <point x="474" y="276" type="curve" smooth="yes"/>
      <point x="474" y="161"/>
      <point x="381" y="56"/>
    </contour>
  </outline>
</glyph>
<glyph name="dotlessj" format="2">
  <advance width="614"/>
  <unicode hex="0237"/>
  <anchor x="455" y="502" name="aboveLC"/>
  <outline>
    <contour>
      <point x="359" y="17" type="curve" smooth="yes"/>
      <point x="488" y="465" type="line"/>
      <point x="190" y="465" type="line"/>
      <point x="169" y="393" type="line"/>
      <point x="382" y="393" type="line"/>
      <point x="277" y="26" type="line" smooth="yes"/>
      <point x="238" y="-110"/>
      <point x="200" y="-151"/>
      <point x="45" y="-160" type="curve" smooth="yes"/>
      <point x="-31" y="-164" type="line"/>
      <point x="-31" y="-238" type="line"/>
      <point x="46" y="-233" type="line" smooth="yes"/>
      <point x="256" y="-220"/>
      <point x="305" y="-174"/>
    </contour>
  </outline>
</glyph>
<glyph name="schwa" format="2">
  <advance width="614"/>
  <unicode hex="0259"/>
  <outline>
    <contour>
      <point x="546" y="303" type="curve" smooth="yes"/>
      <point x="546" y="426"/>
      <point x="482" y="473"/>
      <point x="217" y="473" type="curve"/>
      <point x="196" y="404" type="line"/>
      <point x="406" y="404"/>
      <point x="459" y="381"/>
      <point x="459" y="295" type="curve" smooth="yes"/>
      <point x="459" y="283" type="line"/>
      <point x="293" y="269" type="line" smooth="yes"/>
      <point x="91" y="251"/>
      <point x="40" y="193"/>
      <point x="40" y="111" type="curve" smooth="yes"/>
      <point x="40" y="37"/>
      <point x="100" y="-14"/>
      <point x="210" y="-14" type="curve" smooth="yes"/>
      <point x="401" y="-14"/>
      <point x="546" y="145"/>
    </contour>
    <contour>
      <point x="215" y="55" type="curve" smooth="yes"/>
      <point x="158" y="55"/>
      <point x="127" y="82"/>
      <point x="127" y="116" type="curve" smooth="yes"/>
      <point x="127" y="157"/>
      <point x="159" y="196"/>
      <point x="295" y="210" type="curve" smooth="yes"/>
      <point x="447" y="225" type="line"/>
      <point x="415" y="129"/>
      <point x="319" y="55"/>
    </contour>
  </outline>
</glyph>
<glyph name="ringhalfright" format="2">
  <advance width="614"/>
  <unicode hex="02BE"/>
  <outline>
    <contour>
      <point x="190" y="315" type="line"/>
      <point x="329" y="315"/>
      <point x="408" y="342"/>
      <point x="462" y="396" type="curve" smooth="yes"/>
      <point x="504" y="438"/>
      <point x="524" y="495"/>
      <point x="524" y="560" type="curve" smooth="yes"/>
      <point x="524" y="655"/>
      <point x="466" y="725"/>
      <point x="308" y="725" type="curve"/>
      <point x="287" y="651" type="line"/>
      <point x="396" y="651"/>
      <point x="433" y="614"/>
      <point x="433" y="561" type="curve" smooth="yes"/>
      <point x="433" y="458"/>
      <point x="378" y="389"/>
      <point x="212" y="389" type="curve"/>
    </contour>
  </outline>
</glyph>
<glyph name="ringhalfleft" format="2">
  <advance width="614"/>
  <unicode hex="02BF"/>
  <outline>
    <contour>
      <point x="559" y="725" type="line"/>
      <point x="420" y="725"/>
      <point x="341" y="698"/>
      <point x="288" y="644" type="curve" smooth="yes"/>
      <point x="246" y="602"/>
      <point x="226" y="545"/>
      <point x="226" y="480" type="curve" smooth="yes"/>
      <point x="226" y="385"/>
      <point x="283" y="315"/>
      <point x="441" y="315" type="curve"/>
      <point x="463" y="389" type="line"/>
      <point x="354" y="389"/>
      <point x="317" y="426"/>
      <point x="317" y="479" type="curve" smooth="yes"/>
      <point x="317" y="582"/>
      <point x="371" y="651"/>
      <point x="538" y="651" type="curve"/>
    </contour>
  </outline>
</glyph>
<glyph name="gravecmb" format="2">
  <unicode hex="0300"/>
  <anchor x="77" y="502" name="_aboveLC"/>
  <anchor x="69" y="472" name="_aboveLCx"/>
  <outline>
    <contour>
      <point x="181" y="581" type="line"/>
      <point x="17" y="740" type="line"/>
      <point x="-34" y="686" type="line"/>
      <point x="145" y="541" type="line"/>
    </contour>
  </outline>
</glyph>
<glyph name="acutecmb" format="2">
  <unicode hex="0301"/>
  <anchor x="77" y="502" name="_aboveLC"/>
  <anchor x="69" y="472" name="_aboveLCx"/>
  <outline>
    <contour>
      <point x="6" y="587" type="line"/>
      <point x="32" y="541" type="line"/>
      <point x="294" y="687" type="line"/>
      <point x="261" y="746" type="line"/>
    </contour>
  </outline>
</glyph>
<glyph name="circumflexcmb" format="2">
  <unicode hex="0302"/>
  <anchor x="77" y="502" name="_aboveLC"/>
  <anchor x="69" y="472" name="_aboveLCx"/>
  <outline>
    <contour>
      <point x="-89" y="580" type="line"/>
      <point x="-60" y="541" type="line"/>
      <point x="127" y="674" type="line"/>
      <point x="238" y="541" type="line"/>
      <point x="280" y="571" type="line"/>
      <point x="161" y="746" type="line"/>
      <point x="117" y="746" type="line"/>
    </contour>
  </outline>
</glyph>
<glyph name="tildecmb" format="2">
  <unicode hex="0303"/>
  <anchor x="77" y="502" name="_aboveLC"/>
  <anchor x="69" y="472" name="_aboveLCx"/>
  <outline>
    <contour>
      <point x="91" y="611" type="curve" smooth="yes"/>
      <point x="130" y="552"/>
      <point x="150" y="541"/>
      <point x="173" y="541" type="curve" smooth="yes"/>
      <point x="210" y="541"/>
      <point x="241" y="560"/>
      <point x="335" y="710" type="curve"/>
      <point x="284" y="736" type="line"/>
      <point x="212" y="625"/>
      <point x="198" y="612"/>
      <point x="183" y="612" type="curve" smooth="yes"/>
      <point x="172" y="612"/>
      <point x="165" y="619"/>
      <point x="135" y="664" type="curve" smooth="yes"/>
      <point x="96" y="724"/>
      <point x="76" y="734"/>
      <point x="53" y="734" type="curve" smooth="yes"/>
      <point x="16" y="734"/>
      <point x="-14" y="716"/>
      <point x="-108" y="567" type="curve"/>
      <point x="-58" y="539" type="line"/>
      <point x="14" y="651"/>
      <point x="28" y="664"/>
      <point x="43" y="664" type="curve" smooth="yes"/>
      <point x="54" y="664"/>
      <point x="61" y="657"/>
    </contour>
  </outline>
</glyph>
<glyph name="brevecmb" format="2">
  <unicode hex="0306"/>
  <anchor x="77" y="502" name="_aboveLC"/>
  <anchor x="69" y="472" name="_aboveLCx"/>
  <outline>
    <contour>
      <point x="103" y="605" type="curve" smooth="yes"/>
      <point x="44" y="605"/>
      <point x="16" y="643"/>
      <point x="11" y="738" type="curve"/>
      <point x="-43" y="723" type="line"/>
      <point x="-43" y="593"/>
      <point x="6" y="541"/>
      <point x="98" y="541" type="curve" smooth="yes"/>
      <point x="189" y="541"/>
      <point x="256" y="590"/>
      <point x="327" y="717" type="curve"/>
      <point x="271" y="738" type="line"/>
      <point x="212" y="644"/>
      <point x="162" y="605"/>
    </contour>
  </outline>
</glyph>
<glyph name="dotaccentcmb" format="2">
  <unicode hex="0307"/>
  <anchor x="77" y="502" name="_aboveLC"/>
  <anchor x="68" y="472" name="_aboveLCx"/>
  <outline>
    <contour>
      <point x="100" y="561" type="curve" smooth="yes"/>
      <point x="145" y="561"/>
      <point x="176" y="592"/>
      <point x="176" y="638" type="curve" smooth="yes"/>
      <point x="176" y="666"/>
      <point x="156" y="679"/>
      <point x="122" y="679" type="curve" smooth="yes"/>
      <point x="76" y="679"/>
      <point x="46" y="641"/>
      <point x="46" y="603" type="curve" smooth="yes"/>
      <point x="46" y="573"/>
      <point x="69" y="561"/>
    </contour>
  </outline>
</glyph>
<glyph name="dieresiscmb" format="2">
  <unicode hex="0308"/>
  <anchor x="77" y="502" name="_aboveLC"/>
  <anchor x="68" y="472" name="_aboveLCx"/>
  <outline>
    <contour>
      <point x="-18" y="561" type="curve" smooth="yes"/>
      <point x="29" y="561"/>
      <point x="55" y="595"/>
      <point x="55" y="634" type="curve" smooth="yes"/>
      <point x="55" y="662"/>
      <point x="33" y="674"/>
      <point x="4" y="674" type="curve" smooth="yes"/>
      <point x="-40" y="674"/>
      <point x="-69" y="637"/>
      <point x="-69" y="601" type="curve" smooth="yes"/>
      <point x="-69" y="576"/>
      <point x="-53" y="561"/>
    </contour>
    <contour>
      <point x="217" y="561" type="curve" smooth="yes"/>
      <point x="260" y="561"/>
      <point x="289" y="592"/>
      <point x="289" y="634" type="curve" smooth="yes"/>
      <point x="289" y="659"/>
      <point x="270" y="674"/>
      <point x="239" y="674" type="curve" smooth="yes"/>
      <point x="198" y="674"/>
      <point x="166" y="640"/>
      <point x="166" y="601" type="curve" smooth="yes"/>
      <point x="166" y="575"/>
      <point x="184" y="561"/>
    </contour>
  </outline>
</glyph>
<glyph name="hookcmb" format="2">
  <unicode hex="0309"/>
  <outline>
    <contour>
      <point x="-5" y="541" type="line"/>
      <point x="180" y="557"/>
      <point x="233" y="610"/>
      <point x="233" y="669" type="curve" smooth="yes"/>
      <point x="233" y="711"/>
      <point x="195" y="744"/>
      <point x="72" y="762" type="curve"/>
      <point x="24" y="721" type="line"/>
      <point x="24" y="718" type="line"/>
      <point x="129" y="701"/>
      <point x="153" y="683"/>
      <point x="153" y="664" type="curve" smooth="yes"/>
      <point x="153" y="636"/>
      <point x="125" y="607"/>
      <point x="-9" y="588" type="curve"/>
      <point x="-10" y="587" type="line"/>
    </contour>
  </outline>
</glyph>
<glyph name="ringcmb" format="2">
  <unicode hex="030A"/>
  <anchor x="77" y="502" name="_aboveLC"/>
  <anchor x="68" y="472" name="_aboveLCx"/>
  <outline>
    <contour>
      <point x="145" y="790" type="curve" smooth="yes"/>
      <point x="41" y="790"/>
      <point x="-25" y="722"/>
      <point x="-25" y="644" type="curve" smooth="yes"/>
      <point x="-25" y="576"/>
      <point x="31" y="541"/>
      <point x="104" y="541" type="curve" smooth="yes"/>
      <point x="209" y="541"/>
      <point x="274" y="609"/>
      <point x="274" y="687" type="curve" smooth="yes"/>
      <point x="274" y="755"/>
      <point x="218" y="790"/>
    </contour>
    <contour>
      <point x="117" y="596" type="curve"/>
      <point x="65" y="596"/>
      <point x="36" y="612"/>
      <point x="36" y="647" type="curve" smooth="yes"/>
      <point x="36" y="696"/>
      <point x="76" y="735"/>
      <point x="133" y="735" type="curve" smooth="yes"/>
      <point x="184" y="735"/>
      <point x="213" y="719"/>
      <point x="213" y="684" type="curve" smooth="yes"/>
      <point x="213" y="635"/>
      <point x="173" y="596"/>
    </contour>
  </outline>
</glyph>
<glyph name="hungarumlautcmb" format="2">
  <unicode hex="030B"/>
  <anchor x="77" y="502" name="_aboveLC"/>
  <anchor x="69" y="472" name="_aboveLCx"/>
  <outline>
    <contour>
      <point x="-74" y="575" type="line"/>
      <point x="-40" y="541" type="line"/>
      <point x="129" y="698" type="line"/>
      <point x="77" y="742" type="line"/>
    </contour>
    <contour>
      <point x="153" y="575" type="line"/>
      <point x="187" y="541" type="line"/>
      <point x="355" y="698" type="line"/>
      <point x="304" y="742" type="line"/>
    </contour>
  </outline>
</glyph>
<glyph name="commaturnedabovecmb" format="2">
  <unicode hex="0312"/>
  <outline>
    <contour>
      <point x="241" y="762" type="line"/>
      <point x="56" y="746"/>
      <point x="3" y="693"/>
      <point x="3" y="635" type="curve" smooth="yes"/>
      <point x="3" y="592"/>
      <point x="41" y="559"/>
      <point x="164" y="541" type="curve"/>
      <point x="212" y="582" type="line"/>
      <point x="212" y="585" type="line"/>
      <point x="107" y="602"/>
      <point x="83" y="620"/>
      <point x="83" y="640" type="curve" smooth="yes"/>
      <point x="83" y="667"/>
      <point x="111" y="697"/>
      <point x="245" y="715" type="curve"/>
      <point x="246" y="717" type="line"/>
    </contour>
  </outline>
</glyph>
<glyph name="commaaboverightcmb" format="2">
  <unicode hex="0315"/>
  <anchor x="137" y="710" name="_topright"/>
  <outline>
    <contour>
      <point x="73" y="486" type="line"/>
      <point x="129" y="486" type="line"/>
      <point x="222" y="710" type="line"/>
      <point x="137" y="710" type="line"/>
    </contour>
  </outline>
</glyph>
<glyph name="dotbelowcmb" format="2">
  <unicode hex="0323"/>
  <anchor x="-77" y="-35" name="_below"/>
  <anchor x="-68" y="-5" name="_belowx"/>
  <outline>
    <contour>
      <point x="-122" y="-213" type="curve" smooth="yes"/>
      <point x="-77" y="-213"/>
      <point x="-46" y="-182"/>
      <point x="-46" y="-137" type="curve" smooth="yes"/>
      <point x="-46" y="-109"/>
      <point x="-66" y="-95"/>
      <point x="-100" y="-95" type="curve" smooth="yes"/>
      <point x="-146" y="-95"/>
      <point x="-176" y="-133"/>
      <point x="-176" y="-172" type="curve" smooth="yes"/>
      <point x="-176" y="-202"/>
      <point x="-154" y="-213"/>
    </contour>
  </outline>
</glyph>
<glyph name="dieresisbelowcmb" format="2">
  <unicode hex="0324"/>
  <anchor x="-77" y="-35" name="_below"/>
  <anchor x="-68" y="-5" name="_belowx"/>
  <outline>
    <contour>
      <point x="-234" y="-208" type="curve" smooth="yes"/>
      <point x="-188" y="-208"/>
      <point x="-162" y="-174"/>
      <point x="-162" y="-135" type="curve" smooth="yes"/>
      <point x="-162" y="-107"/>
      <point x="-183" y="-95"/>
      <point x="-213" y="-95" type="curve" smooth="yes"/>
      <point x="-257" y="-95"/>
      <point x="-286" y="-132"/>
      <point x="-286" y="-168" type="curve" smooth="yes"/>
      <point x="-286" y="-193"/>
      <point x="-269" y="-208"/>
    </contour>
    <contour>
      <point x="0" y="-208" type="curve" smooth="yes"/>
      <point x="43" y="-208"/>
      <point x="73" y="-177"/>
      <point x="73" y="-135" type="curve" smooth="yes"/>
      <point x="73" y="-110"/>
      <point x="53" y="-95"/>
      <point x="22" y="-95" type="curve" smooth="yes"/>
      <point x="-19" y="-95"/>
      <point x="-51" y="-129"/>
      <point x="-51" y="-168" type="curve" smooth="yes"/>
      <point x="-51" y="-194"/>
      <point x="-33" y="-208"/>
    </contour>
  </outline>
</glyph>
<glyph name="uni0326" format="2">
  <unicode hex="0326"/>
  <anchor x="-77" y="-35" name="_below"/>
  <anchor x="-68" y="-5" name="_belowx"/>
  <outline>
    <contour>
      <point x="-244" y="-296" type="line"/>
      <point x="-59" y="-280"/>
      <point x="-6" y="-227"/>
      <point x="-6" y="-168" type="curve" smooth="yes"/>
      <point x="-6" y="-126"/>
      <point x="-44" y="-93"/>
      <point x="-166" y="-75" type="curve"/>
      <point x="-215" y="-116" type="line"/>
      <point x="-215" y="-119" type="line"/>
      <point x="-109" y="-136"/>
      <point x="-86" y="-154"/>
      <point x="-86" y="-174" type="curve" smooth="yes"/>
      <point x="-86" y="-201"/>
      <point x="-114" y="-230"/>
      <point x="-248" y="-249" type="curve"/>
      <point x="-249" y="-250" type="line"/>
    </contour>
  </outline>
</glyph>
<glyph name="cedillacmb" format="2">
  <unicode hex="0327"/>
  <anchor x="-70" y="-10" name="_belowcedilla"/>
  <outline>
    <contour>
      <point x="-78" y="21" type="line"/>
      <point x="-154" y="-97" type="line"/>
      <point x="-151" y="-107" type="line"/>
      <point x="-46" y="-117"/>
      <point x="-22" y="-128"/>
      <point x="-22" y="-150" type="curve" smooth="yes"/>
      <point x="-22" y="-179"/>
      <point x="-41" y="-194"/>
      <point x="-240" y="-211" type="curve"/>
      <point x="-240" y="-265" type="line"/>
      <point x="29" y="-241"/>
      <point x="52" y="-202"/>
      <point x="52" y="-143" type="curve" smooth="yes"/>
      <point x="52" y="-100"/>
      <point x="30" y="-77"/>
      <point x="-78" y="-60" type="curve"/>
      <point x="-29" y="21" type="line"/>
    </contour>
  </outline>
</glyph>
<glyph name="ogonekcmb" format="2">
  <unicode hex="0328"/>
  <anchor x="-70" y="-10" name="_belowogonek"/>
  <outline>
    <contour>
      <point x="-224" y="-169" type="curve" smooth="yes"/>
      <point x="-224" y="-207"/>
      <point x="-203" y="-227"/>
      <point x="-129" y="-231" type="curve" smooth="yes"/>
      <point x="-55" y="-235" type="line"/>
      <point x="-32" y="-176" type="line"/>
      <point x="-94" y="-172" type="line" smooth="yes"/>
      <point x="-134" y="-170"/>
      <point x="-143" y="-162"/>
      <point x="-143" y="-146" type="curve" smooth="yes"/>
      <point x="-143" y="-124"/>
      <point x="-136" y="-96"/>
      <point x="-31" y="10" type="curve"/>
      <point x="-59" y="27" type="line"/>
      <point x="-204" y="-94"/>
      <point x="-224" y="-130"/>
    </contour>
  </outline>
</glyph>
<glyph name="circumflexbelowcmb" format="2">
  <unicode hex="032D"/>
  <anchor x="-77" y="-35" name="_below"/>
  <anchor x="-68" y="-5" name="_belowx"/>
  <outline>
    <contour>
      <point x="41" y="-251" type="line"/>
      <point x="-77" y="-75" type="line"/>
      <point x="-121" y="-75" type="line"/>
      <point x="-327" y="-241" type="line"/>
      <point x="-299" y="-280" type="line"/>
      <point x="-112" y="-148" type="line"/>
      <point x="-1" y="-280" type="line"/>
    </contour>
  </outline>
</glyph>
<glyph name="brevebelowcmb" format="2">
  <unicode hex="032E"/>
  <anchor x="-77" y="-35" name="_below"/>
  <anchor x="-68" y="-5" name="_belowx"/>
  <outline>
    <contour>
      <point x="-132" y="-209" type="curve" smooth="yes"/>
      <point x="-191" y="-209"/>
      <point x="-219" y="-170"/>
      <point x="-224" y="-76" type="curve"/>
      <point x="-278" y="-90" type="line"/>
      <point x="-278" y="-221"/>
      <point x="-229" y="-272"/>
      <point x="-138" y="-272" type="curve" smooth="yes"/>
      <point x="-46" y="-272"/>
      <point x="21" y="-224"/>
      <point x="92" y="-97" type="curve"/>
      <point x="35" y="-76" type="line"/>
      <point x="-23" y="-170"/>
      <point x="-73" y="-209"/>
    </contour>
  </outline>
</glyph>
